%TF.GenerationSoftware,KiCad,Pcbnew,9.0.7*%
%TF.CreationDate,2026-04-14T15:06:33-03:00*%
%TF.ProjectId,p3-2,70332d32-2e6b-4696-9361-645f70636258,rev?*%
%TF.SameCoordinates,Original*%
%TF.FileFunction,Paste,Top*%
%TF.FilePolarity,Positive*%
%FSLAX46Y46*%
G04 Gerber Fmt 4.6, Leading zero omitted, Abs format (unit mm)*
G04 Created by KiCad (PCBNEW 9.0.7) date 2026-04-14 15:06:33*
%MOMM*%
%LPD*%
G01*
G04 APERTURE LIST*
G04 Aperture macros list*
%AMRoundRect*
0 Rectangle with rounded corners*
0 $1 Rounding radius*
0 $2 $3 $4 $5 $6 $7 $8 $9 X,Y pos of 4 corners*
0 Add a 4 corners polygon primitive as box body*
4,1,4,$2,$3,$4,$5,$6,$7,$8,$9,$2,$3,0*
0 Add four circle primitives for the rounded corners*
1,1,$1+$1,$2,$3*
1,1,$1+$1,$4,$5*
1,1,$1+$1,$6,$7*
1,1,$1+$1,$8,$9*
0 Add four rect primitives between the rounded corners*
20,1,$1+$1,$2,$3,$4,$5,0*
20,1,$1+$1,$4,$5,$6,$7,0*
20,1,$1+$1,$6,$7,$8,$9,0*
20,1,$1+$1,$8,$9,$2,$3,0*%
G04 Aperture macros list end*
%ADD10RoundRect,0.250000X-0.300000X-0.300000X0.300000X-0.300000X0.300000X0.300000X-0.300000X0.300000X0*%
%ADD11RoundRect,0.150000X0.150000X0.425000X-0.150000X0.425000X-0.150000X-0.425000X0.150000X-0.425000X0*%
%ADD12RoundRect,0.075000X0.075000X0.500000X-0.075000X0.500000X-0.075000X-0.500000X0.075000X-0.500000X0*%
%ADD13O,1.000000X2.100000*%
%ADD14O,1.000000X1.800000*%
%ADD15R,1.150000X1.450000*%
%ADD16R,0.900000X1.500000*%
%ADD17R,1.500000X0.900000*%
%ADD18R,0.900000X0.900000*%
%ADD19RoundRect,0.250000X0.450000X-0.350000X0.450000X0.350000X-0.450000X0.350000X-0.450000X-0.350000X0*%
%ADD20RoundRect,0.250000X-0.350000X-0.450000X0.350000X-0.450000X0.350000X0.450000X-0.350000X0.450000X0*%
%ADD21RoundRect,0.250000X0.350000X0.450000X-0.350000X0.450000X-0.350000X-0.450000X0.350000X-0.450000X0*%
%ADD22R,2.100000X1.400000*%
%ADD23RoundRect,0.250000X-0.450000X0.350000X-0.450000X-0.350000X0.450000X-0.350000X0.450000X0.350000X0*%
%ADD24RoundRect,0.250000X0.475000X-0.337500X0.475000X0.337500X-0.475000X0.337500X-0.475000X-0.337500X0*%
%ADD25RoundRect,0.024000X0.276000X-0.651000X0.276000X0.651000X-0.276000X0.651000X-0.276000X-0.651000X0*%
%ADD26R,1.250000X1.500000*%
%ADD27R,4.000000X6.000000*%
%ADD28RoundRect,0.250000X-1.000000X1.750000X-1.000000X-1.750000X1.000000X-1.750000X1.000000X1.750000X0*%
%ADD29R,1.400000X1.000000*%
%ADD30RoundRect,0.250000X-0.337500X-0.475000X0.337500X-0.475000X0.337500X0.475000X-0.337500X0.475000X0*%
%ADD31R,1.500000X1.700000*%
%ADD32RoundRect,0.035000X-0.700000X-0.105000X0.700000X-0.105000X0.700000X0.105000X-0.700000X0.105000X0*%
%ADD33R,1.200000X1.200000*%
%ADD34R,1.450000X1.150000*%
%ADD35RoundRect,0.116250X-0.873750X-0.348750X0.873750X-0.348750X0.873750X0.348750X-0.873750X0.348750X0*%
%ADD36RoundRect,0.247500X-0.742500X-1.367500X0.742500X-1.367500X0.742500X1.367500X-0.742500X1.367500X0*%
%ADD37RoundRect,0.150000X-0.150000X0.512500X-0.150000X-0.512500X0.150000X-0.512500X0.150000X0.512500X0*%
%ADD38R,1.400000X2.100000*%
%ADD39RoundRect,0.250000X-0.350000X0.350000X-0.350000X-0.350000X0.350000X-0.350000X0.350000X0.350000X0*%
%ADD40R,0.350000X0.875000*%
%ADD41R,0.925000X0.350000*%
%ADD42R,0.375000X0.875000*%
%ADD43R,0.925000X0.325000*%
G04 APERTURE END LIST*
D10*
X-42100000Y-9050000D03*
X-39300000Y-9050000D03*
D11*
X37200000Y38020000D03*
X36400000Y38020000D03*
D12*
X35250000Y38020000D03*
X34250000Y38020000D03*
X33750000Y38020000D03*
X32750000Y38020000D03*
D11*
X31600000Y38020000D03*
X30800000Y38020000D03*
X30800000Y38020000D03*
X31600000Y38020000D03*
D12*
X32250000Y38020000D03*
X33250000Y38020000D03*
X34750000Y38020000D03*
X35750000Y38020000D03*
D11*
X36400000Y38020000D03*
X37200000Y38020000D03*
D13*
X38320000Y38595000D03*
D14*
X38320000Y42775000D03*
D13*
X29680000Y38595000D03*
D14*
X29680000Y42775000D03*
D15*
X20450000Y36100000D03*
X18650000Y36100000D03*
X20450000Y33750000D03*
X18650000Y33750000D03*
X20450000Y31700000D03*
X18650000Y31700000D03*
D16*
X48860000Y-7750000D03*
X47590000Y-7750000D03*
X46320000Y-7750000D03*
X45050000Y-7750000D03*
X43780000Y-7750000D03*
X42510000Y-7750000D03*
X41240000Y-7750000D03*
X39970000Y-7750000D03*
X38700000Y-7750000D03*
X37430000Y-7750000D03*
X36160000Y-7750000D03*
X34890000Y-7750000D03*
X33620000Y-7750000D03*
X32350000Y-7750000D03*
D17*
X31100000Y-5985000D03*
X31100000Y-4715000D03*
X31100000Y-3445000D03*
X31100000Y-2175000D03*
X31100000Y-905000D03*
X31100000Y365000D03*
X31100000Y1635000D03*
X31100000Y2905000D03*
X31100000Y4175000D03*
X31100000Y5445000D03*
X31100000Y6715000D03*
X31100000Y7985000D03*
D16*
X32350000Y9750000D03*
X33620000Y9750000D03*
X34890000Y9750000D03*
X36160000Y9750000D03*
X37430000Y9750000D03*
X38700000Y9750000D03*
X39970000Y9750000D03*
X41240000Y9750000D03*
X42510000Y9750000D03*
X43780000Y9750000D03*
X45050000Y9750000D03*
X46320000Y9750000D03*
X47590000Y9750000D03*
X48860000Y9750000D03*
D18*
X39740000Y1100000D03*
X41140000Y1100000D03*
X42540000Y1100000D03*
X39740000Y2500000D03*
X41140000Y2500000D03*
X42540000Y2500000D03*
X39740000Y3900000D03*
X41140000Y3900000D03*
X42540000Y3900000D03*
D19*
X15250000Y-13250000D03*
X15250000Y-11250000D03*
D15*
X16050000Y-29100000D03*
X14250000Y-29100000D03*
D20*
X-4700000Y18600000D03*
X-2700000Y18600000D03*
D21*
X1200000Y18600000D03*
X-800000Y18600000D03*
D19*
X22550000Y27000000D03*
X22550000Y29000000D03*
D22*
X18200000Y-8300000D03*
X27300000Y-8300000D03*
X18200000Y-12800000D03*
X27300000Y-12800000D03*
D15*
X16050000Y-31300000D03*
X14250000Y-31300000D03*
D20*
X-4700000Y10200000D03*
X-2700000Y10200000D03*
X6100000Y-44200000D03*
X8100000Y-44200000D03*
D23*
X31750000Y34887500D03*
X31750000Y32887500D03*
D24*
X-23500000Y-4475000D03*
X-23500000Y-2400000D03*
D19*
X29860000Y-25000000D03*
X29860000Y-23000000D03*
D21*
X1400000Y1400000D03*
X-600000Y1400000D03*
D19*
X32810000Y-25000000D03*
X32810000Y-23000000D03*
D20*
X18550000Y-41750000D03*
X20550000Y-41750000D03*
D25*
X22350000Y33115000D03*
X23300000Y33115000D03*
X24250000Y33115000D03*
X24250000Y35485000D03*
X22350000Y35485000D03*
D23*
X37400000Y34737500D03*
X37400000Y32737500D03*
D26*
X-29700000Y-33370000D03*
X-31700000Y-33370000D03*
D15*
X19750000Y-27700000D03*
X21550000Y-27700000D03*
D27*
X-12100000Y-27500000D03*
X-12100000Y-16040000D03*
X-42100000Y-27500000D03*
X-42100000Y-16040000D03*
D19*
X35760000Y-25000000D03*
X35760000Y-23000000D03*
D28*
X-21800000Y-35170000D03*
X-21800000Y-43170000D03*
D20*
X-6100000Y-44100000D03*
X-4100000Y-44100000D03*
D29*
X-4900000Y-5800000D03*
X-4900000Y-3900000D03*
X-7100000Y-4850000D03*
D30*
X44400000Y13800000D03*
X46475000Y13800000D03*
D31*
X-10350000Y-1700000D03*
X-20250000Y-1700000D03*
D32*
X10700000Y-42000000D03*
X10700000Y-42500000D03*
X10700000Y-43000000D03*
X10700000Y-43500000D03*
X10700000Y-44000000D03*
X15000000Y-44000000D03*
X15000000Y-43500000D03*
X15000000Y-43000000D03*
X15000000Y-42500000D03*
X15000000Y-42000000D03*
D33*
X-38600000Y-33500000D03*
X-36500000Y-33500000D03*
D30*
X-1937500Y-40700000D03*
X137500Y-40700000D03*
D19*
X38710000Y-25000000D03*
X38710000Y-23000000D03*
D34*
X-44200000Y-4700000D03*
X-44200000Y-6500000D03*
D35*
X-41600000Y-600000D03*
X-41600000Y-2900000D03*
X-41600000Y-5200000D03*
D36*
X-35570000Y-2900000D03*
D33*
X-30100000Y400000D03*
X-32200000Y400000D03*
D19*
X41660000Y-25000000D03*
X41660000Y-23000000D03*
D20*
X-32000000Y-2700000D03*
X-30000000Y-2700000D03*
X-43000000Y-33370000D03*
X-41000000Y-33370000D03*
D37*
X34900000Y30687500D03*
X33950000Y30687500D03*
X33000000Y30687500D03*
X33000000Y28412500D03*
X33950000Y28412500D03*
X34900000Y28412500D03*
D21*
X20550000Y-39150000D03*
X18550000Y-39150000D03*
X-4200000Y-40800000D03*
X-6200000Y-40800000D03*
D38*
X46350000Y28262500D03*
X46350000Y19162500D03*
X41850000Y28262500D03*
X41850000Y19162500D03*
D34*
X-44300000Y-2700000D03*
X-44300000Y-900000D03*
D39*
X29200000Y34637500D03*
X29200000Y31237500D03*
D34*
X17200000Y-43600000D03*
X17200000Y-45400000D03*
D40*
X19587500Y-31465000D03*
D41*
X20425000Y-31152500D03*
X20425000Y-30652500D03*
X20425000Y-30152500D03*
X20425000Y-29652500D03*
D40*
X19587500Y-29340000D03*
D42*
X19075000Y-29340000D03*
D40*
X18587500Y-29340000D03*
D43*
X17750000Y-29640000D03*
D41*
X17750000Y-30152500D03*
X17750000Y-30652500D03*
X17750000Y-31152500D03*
D40*
X18587500Y-31465000D03*
D42*
X19100000Y-31465000D03*
D21*
X46400000Y16000000D03*
X44400000Y16000000D03*
D30*
X-16637500Y-8600000D03*
X-14562500Y-8600000D03*
D21*
X-200000Y-4650000D03*
X-2200000Y-4650000D03*
D20*
X-4500000Y1380000D03*
X-2500000Y1380000D03*
D21*
X1200000Y10200000D03*
X-800000Y10200000D03*
D23*
X20550000Y28950000D03*
X20550000Y26950000D03*
M02*
