%TF.GenerationSoftware,KiCad,Pcbnew,9.0.7*%
%TF.CreationDate,2026-04-14T15:06:33-03:00*%
%TF.ProjectId,p3-2,70332d32-2e6b-4696-9361-645f70636258,rev?*%
%TF.SameCoordinates,Original*%
%TF.FileFunction,Copper,L2,Bot*%
%TF.FilePolarity,Positive*%
%FSLAX46Y46*%
G04 Gerber Fmt 4.6, Leading zero omitted, Abs format (unit mm)*
G04 Created by KiCad (PCBNEW 9.0.7) date 2026-04-14 15:06:33*
%MOMM*%
%LPD*%
G01*
G04 APERTURE LIST*
G04 Aperture macros list*
%AMRoundRect*
0 Rectangle with rounded corners*
0 $1 Rounding radius*
0 $2 $3 $4 $5 $6 $7 $8 $9 X,Y pos of 4 corners*
0 Add a 4 corners polygon primitive as box body*
4,1,4,$2,$3,$4,$5,$6,$7,$8,$9,$2,$3,0*
0 Add four circle primitives for the rounded corners*
1,1,$1+$1,$2,$3*
1,1,$1+$1,$4,$5*
1,1,$1+$1,$6,$7*
1,1,$1+$1,$8,$9*
0 Add four rect primitives between the rounded corners*
20,1,$1+$1,$2,$3,$4,$5,0*
20,1,$1+$1,$4,$5,$6,$7,0*
20,1,$1+$1,$6,$7,$8,$9,0*
20,1,$1+$1,$8,$9,$2,$3,0*%
G04 Aperture macros list end*
%TA.AperFunction,HeatsinkPad*%
%ADD10O,1.000000X2.100000*%
%TD*%
%TA.AperFunction,HeatsinkPad*%
%ADD11O,1.000000X1.800000*%
%TD*%
%TA.AperFunction,ComponentPad*%
%ADD12C,2.200000*%
%TD*%
%TA.AperFunction,ComponentPad*%
%ADD13RoundRect,0.249999X-0.850001X0.850001X-0.850001X-0.850001X0.850001X-0.850001X0.850001X0.850001X0*%
%TD*%
%TA.AperFunction,HeatsinkPad*%
%ADD14C,0.600000*%
%TD*%
%TA.AperFunction,ComponentPad*%
%ADD15C,5.700000*%
%TD*%
%TA.AperFunction,ComponentPad*%
%ADD16R,1.700000X1.700000*%
%TD*%
%TA.AperFunction,ComponentPad*%
%ADD17C,1.700000*%
%TD*%
%TA.AperFunction,ComponentPad*%
%ADD18RoundRect,0.250000X1.000000X1.000000X-1.000000X1.000000X-1.000000X-1.000000X1.000000X-1.000000X0*%
%TD*%
%TA.AperFunction,ComponentPad*%
%ADD19C,2.500000*%
%TD*%
%TA.AperFunction,SMDPad,CuDef*%
%ADD20RoundRect,0.250000X-0.450000X0.350000X-0.450000X-0.350000X0.450000X-0.350000X0.450000X0.350000X0*%
%TD*%
%TA.AperFunction,SMDPad,CuDef*%
%ADD21RoundRect,0.250000X-0.350000X-0.450000X0.350000X-0.450000X0.350000X0.450000X-0.350000X0.450000X0*%
%TD*%
%TA.AperFunction,SMDPad,CuDef*%
%ADD22RoundRect,0.250000X0.350000X0.450000X-0.350000X0.450000X-0.350000X-0.450000X0.350000X-0.450000X0*%
%TD*%
%TA.AperFunction,SMDPad,CuDef*%
%ADD23RoundRect,0.250000X0.450000X-0.350000X0.450000X0.350000X-0.450000X0.350000X-0.450000X-0.350000X0*%
%TD*%
%TA.AperFunction,SMDPad,CuDef*%
%ADD24R,1.150000X1.450000*%
%TD*%
%TA.AperFunction,ViaPad*%
%ADD25C,0.600000*%
%TD*%
%TA.AperFunction,ViaPad*%
%ADD26C,0.800000*%
%TD*%
%TA.AperFunction,Conductor*%
%ADD27C,0.250000*%
%TD*%
%TA.AperFunction,Conductor*%
%ADD28C,0.500000*%
%TD*%
%TA.AperFunction,Conductor*%
%ADD29C,0.200000*%
%TD*%
%TA.AperFunction,Conductor*%
%ADD30C,0.800000*%
%TD*%
G04 APERTURE END LIST*
D10*
X38320000Y38595000D03*
D11*
X38320000Y42775000D03*
D10*
X29680000Y38595000D03*
D11*
X29680000Y42775000D03*
D12*
X-43892500Y36220000D03*
D13*
X-43892500Y38760000D03*
D12*
X-43892500Y28630000D03*
D13*
X-43892500Y31170000D03*
D12*
X-43892500Y21040000D03*
D13*
X-43892500Y23580000D03*
D12*
X-43892500Y13450000D03*
D13*
X-43892500Y15990000D03*
D14*
X40440000Y1100000D03*
X41840000Y1100000D03*
X39740000Y1800000D03*
X41140000Y1800000D03*
X42540000Y1800000D03*
X40440000Y2500000D03*
X41840000Y2500000D03*
X39740000Y3200000D03*
X41140000Y3200000D03*
X42540000Y3200000D03*
X40440000Y3900000D03*
X41840000Y3900000D03*
D15*
X44000000Y-44000000D03*
D16*
X-520000Y45940000D03*
D17*
X-520000Y43400000D03*
X-520000Y40860000D03*
D16*
X40200000Y-27900000D03*
D17*
X37660000Y-27900000D03*
X35120000Y-27900000D03*
X32580000Y-27900000D03*
X30040000Y-27900000D03*
D16*
X-7160000Y4380000D03*
D17*
X-4620000Y4380000D03*
X-2080000Y4380000D03*
X460000Y4380000D03*
D15*
X-44000000Y44000000D03*
X-44000000Y-44000000D03*
D16*
X-22880000Y45400000D03*
D17*
X-25420000Y45400000D03*
X-27960000Y45400000D03*
X-30500000Y45400000D03*
X-33040000Y45400000D03*
D16*
X-9700000Y45940000D03*
D17*
X-9700000Y43400000D03*
X-9700000Y40860000D03*
D16*
X-7200000Y13200000D03*
D17*
X-4660000Y13200000D03*
X-2120000Y13200000D03*
X420000Y13200000D03*
D16*
X-7300000Y21600000D03*
D17*
X-4760000Y21600000D03*
X-2220000Y21600000D03*
X320000Y21600000D03*
D18*
X-32000000Y-44000000D03*
D19*
X-37000000Y-44000000D03*
D16*
X-5110000Y45940000D03*
D17*
X-5110000Y43400000D03*
X-5110000Y40860000D03*
D15*
X44000000Y44000000D03*
D20*
X-25400000Y41400000D03*
X-25400000Y39400000D03*
D21*
X-37500000Y13400000D03*
X-35500000Y13400000D03*
D22*
X500000Y37000000D03*
X-1500000Y37000000D03*
D20*
X-28000000Y41400000D03*
X-28000000Y39400000D03*
X-22900000Y41400000D03*
X-22900000Y39400000D03*
D22*
X-8700000Y37000000D03*
X-10700000Y37000000D03*
D21*
X-37800000Y28600000D03*
X-35800000Y28600000D03*
D23*
X-30500000Y39400000D03*
X-30500000Y41400000D03*
D21*
X-38000000Y36300000D03*
X-36000000Y36300000D03*
D24*
X-37700000Y31100000D03*
X-35900000Y31100000D03*
D22*
X-4100000Y37000000D03*
X-6100000Y37000000D03*
D21*
X-37800000Y21100000D03*
X-35800000Y21100000D03*
D24*
X-37850000Y38900000D03*
X-36050000Y38900000D03*
X-37400000Y15900000D03*
X-35600000Y15900000D03*
X-37800000Y23600000D03*
X-36000000Y23600000D03*
D25*
X35100000Y36250000D03*
X33625000Y36350000D03*
X34330882Y25567648D03*
D26*
X39000000Y36150000D03*
X33949999Y28485923D03*
D25*
X33300000Y24850000D03*
D26*
X30806250Y36243750D03*
D25*
X44650000Y11800000D03*
X24850000Y27000000D03*
D26*
X13750000Y-36500000D03*
X7950000Y-36500000D03*
X19900000Y-36500000D03*
D25*
X14400000Y-38400000D03*
X15600000Y-38400000D03*
X-45400000Y-30800000D03*
X21600000Y-25900000D03*
X47800000Y12400000D03*
X-16200000Y-34000000D03*
X46800000Y-39600000D03*
X45900000Y39000000D03*
X-44900000Y-7800000D03*
X-46400000Y-38500000D03*
X-39600000Y47500000D03*
X-45800000Y-500000D03*
X30200000Y12100000D03*
X34400000Y12000000D03*
X27600000Y8100000D03*
X27600000Y5600000D03*
X27600000Y4300000D03*
X39500000Y12000000D03*
X38200000Y12000000D03*
X36890000Y12000000D03*
X35620000Y12000000D03*
X40700000Y12000000D03*
X41970000Y12000000D03*
X43200000Y12000000D03*
D26*
X-31600000Y-5950000D03*
X24750000Y-43550000D03*
D27*
X35100000Y36250000D02*
X33725000Y36250000D01*
X33725000Y36250000D02*
X33625000Y36350000D01*
D28*
X39000000Y34461651D02*
X39000000Y36150000D01*
X36100000Y31561651D02*
X39000000Y34461651D01*
X36100000Y30635924D02*
X36100000Y31561651D01*
X33949999Y28485923D02*
X36100000Y30635924D01*
X33514077Y28485923D02*
X30806250Y31193750D01*
X30806250Y31193750D02*
X30806250Y36243750D01*
X33949999Y28485923D02*
X33514077Y28485923D01*
D29*
X34330882Y25567648D02*
X34330882Y25555882D01*
X34330882Y25555882D02*
X33625000Y24850000D01*
X33625000Y24850000D02*
X33300000Y24850000D01*
D27*
X29650000Y27000000D02*
X44650000Y12000000D01*
X24850000Y27000000D02*
X29650000Y27000000D01*
X44650000Y12000000D02*
X44650000Y11800000D01*
D28*
X13750000Y-36500000D02*
X19900000Y-36500000D01*
X6100000Y-36500000D02*
X7950000Y-36500000D01*
X19900000Y-36500000D02*
X22100000Y-36500000D01*
D29*
X15600000Y-38400000D02*
X14400000Y-38400000D01*
D30*
X-30500000Y41400000D02*
X-30500000Y45400000D01*
X-25400000Y45380000D02*
X-25420000Y45400000D01*
X-25400000Y41400000D02*
X-25400000Y45380000D01*
X-28000000Y45360000D02*
X-27960000Y45400000D01*
X-28000000Y41400000D02*
X-28000000Y45360000D01*
X-22900000Y41400000D02*
X-22900000Y45380000D01*
X-22900000Y45380000D02*
X-22880000Y45400000D01*
X-37850000Y38900000D02*
X-37850000Y36450000D01*
D27*
X34400000Y12900000D02*
X30200000Y17100000D01*
X30200000Y17100000D02*
X-18800000Y17100000D01*
X-18800000Y17100000D02*
X-38000000Y36300000D01*
D30*
X-37850000Y36450000D02*
X-38000000Y36300000D01*
D27*
X34400000Y12000000D02*
X34400000Y12900000D01*
D30*
X-43752500Y38900000D02*
X-43892500Y38760000D01*
X-37850000Y38900000D02*
X-43752500Y38900000D01*
D27*
X6600000Y16100000D02*
X14600000Y8100000D01*
X-33700000Y24500000D02*
X-32800000Y23600000D01*
D30*
X-37800000Y31000000D02*
X-37700000Y31100000D01*
X-37700000Y31100000D02*
X-43822500Y31100000D01*
D27*
X-37800000Y28600000D02*
X-33700000Y24500000D01*
D30*
X-37800000Y28600000D02*
X-37800000Y31000000D01*
D27*
X-32800000Y23600000D02*
X-32800000Y20700000D01*
X-28200000Y16100000D02*
X6600000Y16100000D01*
X14600000Y8100000D02*
X27600000Y8100000D01*
D30*
X-43822500Y31100000D02*
X-43892500Y31170000D01*
D27*
X-32800000Y20700000D02*
X-28200000Y16100000D01*
X-37800000Y21100000D02*
X-25000000Y8300000D01*
X-25000000Y8300000D02*
X10000000Y8300000D01*
X12700000Y5600000D02*
X27600000Y5600000D01*
X10000000Y8300000D02*
X12700000Y5600000D01*
D30*
X-37800000Y21100000D02*
X-37800000Y23600000D01*
X-37800000Y23600000D02*
X-43872500Y23600000D01*
X-43872500Y23600000D02*
X-43892500Y23580000D01*
D27*
X12400000Y4300000D02*
X27600000Y4300000D01*
X-37500000Y13400000D02*
X-31200000Y7100000D01*
D30*
X-37400000Y13500000D02*
X-37500000Y13400000D01*
X-37400000Y15900000D02*
X-43802500Y15900000D01*
X-43802500Y15900000D02*
X-43892500Y15990000D01*
D27*
X9600000Y7100000D02*
X12400000Y4300000D01*
D30*
X-37400000Y15900000D02*
X-37400000Y13500000D01*
D27*
X-31200000Y7100000D02*
X9600000Y7100000D01*
X-10800000Y39760000D02*
X-9700000Y40860000D01*
X-10800000Y37100000D02*
X-10800000Y39760000D01*
X-10700000Y37000000D02*
X-10800000Y37100000D01*
X-6100000Y39870000D02*
X-5110000Y40860000D01*
X-6100000Y37000000D02*
X-6100000Y39870000D01*
X-1500000Y37000000D02*
X-1500000Y39880000D01*
X-1500000Y39880000D02*
X-520000Y40860000D01*
X-18300000Y29700000D02*
X-22900000Y34300000D01*
X2000000Y29700000D02*
X-18300000Y29700000D01*
X-22900000Y34300000D02*
X-22900000Y39400000D01*
X29900000Y21600000D02*
X10100000Y21600000D01*
X10100000Y21600000D02*
X2000000Y29700000D01*
X39500000Y12000000D02*
X29900000Y21600000D01*
X1500000Y28500000D02*
X-19200000Y28500000D01*
X29900000Y20400000D02*
X9600000Y20400000D01*
X-25400000Y34700000D02*
X-25400000Y39400000D01*
X38200000Y12100000D02*
X29900000Y20400000D01*
X38200000Y12000000D02*
X38200000Y12100000D01*
X9600000Y20400000D02*
X1500000Y28500000D01*
X-19200000Y28500000D02*
X-25400000Y34700000D01*
X36890000Y12000000D02*
X36890000Y12310000D01*
X36890000Y12310000D02*
X29900000Y19300000D01*
X8900000Y19300000D02*
X1100000Y27100000D01*
X29900000Y19300000D02*
X8900000Y19300000D01*
X1100000Y27100000D02*
X-19600000Y27100000D01*
X-19600000Y27100000D02*
X-28000000Y35500000D01*
X-28000000Y35500000D02*
X-28000000Y39400000D01*
X-30400000Y35400000D02*
X-30500000Y35500000D01*
X8500000Y18100000D02*
X1000000Y25600000D01*
X1000000Y25600000D02*
X-20000000Y25600000D01*
X35620000Y12580000D02*
X30100000Y18100000D01*
X-30500000Y35500000D02*
X-30500000Y39400000D01*
X30100000Y18100000D02*
X8500000Y18100000D01*
X-29800000Y35400000D02*
X-30400000Y35400000D01*
X35620000Y12000000D02*
X35620000Y12580000D01*
X-20000000Y25600000D02*
X-29800000Y35400000D01*
X40700000Y12000000D02*
X30000000Y22700000D01*
X10700000Y22700000D02*
X2400000Y31000000D01*
X2400000Y31000000D02*
X-2700000Y31000000D01*
X-2700000Y31000000D02*
X-8700000Y37000000D01*
X30000000Y22700000D02*
X10700000Y22700000D01*
X-2095514Y35974000D02*
X-2426000Y36304486D01*
X-2426000Y37000000D02*
X-4100000Y37000000D01*
X41870000Y12000000D02*
X30070000Y23800000D01*
X41970000Y12000000D02*
X41870000Y12000000D01*
X30070000Y23800000D02*
X11300000Y23800000D01*
X-874000Y35974000D02*
X-2095514Y35974000D01*
X11300000Y23800000D02*
X-874000Y35974000D01*
X-2426000Y36304486D02*
X-2426000Y37000000D01*
X500000Y36400000D02*
X500000Y37000000D01*
X12000000Y24900000D02*
X500000Y36400000D01*
X30100000Y24900000D02*
X12000000Y24900000D01*
X43200000Y12000000D02*
X43000000Y12000000D01*
X43000000Y12000000D02*
X30100000Y24900000D01*
D28*
X-31600000Y-5950000D02*
X-24450000Y-5950000D01*
X-24450000Y-5950000D02*
X6100000Y-36500000D01*
X22100000Y-36500000D02*
X25250000Y-39650000D01*
X7950000Y-36500000D02*
X13750000Y-36500000D01*
X25250000Y-39650000D02*
X25250000Y-43050000D01*
X25250000Y-43050000D02*
X24750000Y-43550000D01*
%TA.AperFunction,Conductor*%
G36*
X49442539Y49479815D02*
G01*
X49488294Y49427011D01*
X49499500Y49375500D01*
X49499500Y-49375500D01*
X49479815Y-49442539D01*
X49427011Y-49488294D01*
X49375500Y-49499500D01*
X-49375500Y-49499500D01*
X-49442539Y-49479815D01*
X-49488294Y-49427011D01*
X-49499500Y-49375500D01*
X-49499500Y-42956898D01*
X-33550500Y-42956898D01*
X-33550500Y-45043102D01*
X-33539877Y-45131564D01*
X-33484361Y-45272342D01*
X-33392922Y-45392922D01*
X-33272342Y-45484361D01*
X-33131564Y-45539877D01*
X-33043102Y-45550500D01*
X-33043097Y-45550500D01*
X-30956903Y-45550500D01*
X-30956898Y-45550500D01*
X-30868436Y-45539877D01*
X-30727658Y-45484361D01*
X-30727657Y-45484360D01*
X-30727656Y-45484360D01*
X-30607077Y-45392922D01*
X-30515639Y-45272343D01*
X-30460122Y-45131561D01*
X-30455126Y-45089954D01*
X-30449500Y-45043102D01*
X-30449500Y-42956898D01*
X-30456366Y-42899718D01*
X-30460122Y-42868438D01*
X-30515639Y-42727656D01*
X-30607077Y-42607077D01*
X-30727656Y-42515639D01*
X-30868438Y-42460122D01*
X-30917853Y-42454188D01*
X-30956898Y-42449500D01*
X-33043102Y-42449500D01*
X-33085926Y-42454642D01*
X-33131561Y-42460122D01*
X-33272343Y-42515639D01*
X-33392922Y-42607077D01*
X-33484360Y-42727656D01*
X-33484360Y-42727657D01*
X-33484361Y-42727658D01*
X-33539877Y-42868436D01*
X-33550500Y-42956898D01*
X-49499500Y-42956898D01*
X-49499500Y-38334108D01*
X13899500Y-38334108D01*
X13899500Y-38465891D01*
X13933608Y-38593187D01*
X13966554Y-38650250D01*
X13999500Y-38707314D01*
X14092686Y-38800500D01*
X14206814Y-38866392D01*
X14334108Y-38900500D01*
X14334110Y-38900500D01*
X14465890Y-38900500D01*
X14465892Y-38900500D01*
X14593186Y-38866392D01*
X14707314Y-38800500D01*
X14770995Y-38736819D01*
X14832318Y-38703334D01*
X14858676Y-38700500D01*
X15141324Y-38700500D01*
X15208363Y-38720185D01*
X15229005Y-38736819D01*
X15292686Y-38800500D01*
X15406814Y-38866392D01*
X15534108Y-38900500D01*
X15534110Y-38900500D01*
X15665890Y-38900500D01*
X15665892Y-38900500D01*
X15793186Y-38866392D01*
X15907314Y-38800500D01*
X16000500Y-38707314D01*
X16066392Y-38593186D01*
X16100500Y-38465892D01*
X16100500Y-38334108D01*
X16066392Y-38206814D01*
X16000500Y-38092686D01*
X15907314Y-37999500D01*
X15850250Y-37966554D01*
X15793187Y-37933608D01*
X15729539Y-37916554D01*
X15665892Y-37899500D01*
X15534108Y-37899500D01*
X15406812Y-37933608D01*
X15292686Y-37999500D01*
X15292683Y-37999502D01*
X15229005Y-38063181D01*
X15167682Y-38096666D01*
X15141324Y-38099500D01*
X14858676Y-38099500D01*
X14791637Y-38079815D01*
X14770995Y-38063181D01*
X14707316Y-37999502D01*
X14707314Y-37999500D01*
X14650250Y-37966554D01*
X14593187Y-37933608D01*
X14529539Y-37916554D01*
X14465892Y-37899500D01*
X14334108Y-37899500D01*
X14206812Y-37933608D01*
X14092686Y-37999500D01*
X14092683Y-37999502D01*
X13999502Y-38092683D01*
X13999500Y-38092686D01*
X13933608Y-38206812D01*
X13899500Y-38334108D01*
X-49499500Y-38334108D01*
X-49499500Y-5870943D01*
X-32200500Y-5870943D01*
X-32200500Y-6029057D01*
X-32159577Y-6181784D01*
X-32080520Y-6318716D01*
X-31968716Y-6430520D01*
X-31831784Y-6509577D01*
X-31679057Y-6550500D01*
X-31679055Y-6550500D01*
X-31520945Y-6550500D01*
X-31520943Y-6550500D01*
X-31368216Y-6509577D01*
X-31368209Y-6509573D01*
X-31231290Y-6430524D01*
X-31231287Y-6430521D01*
X-31231284Y-6430520D01*
X-31231281Y-6430517D01*
X-31225557Y-6426125D01*
X-31160388Y-6400930D01*
X-31150069Y-6400500D01*
X-24687965Y-6400500D01*
X-24620926Y-6420185D01*
X-24600284Y-6436819D01*
X5823386Y-36860489D01*
X5837636Y-36868716D01*
X5837635Y-36868716D01*
X5837638Y-36868717D01*
X5926108Y-36919796D01*
X5926109Y-36919797D01*
X5926111Y-36919797D01*
X5926114Y-36919799D01*
X6040691Y-36950500D01*
X7500069Y-36950500D01*
X7567108Y-36970185D01*
X7575557Y-36976125D01*
X7581281Y-36980517D01*
X7581284Y-36980520D01*
X7581287Y-36980521D01*
X7581290Y-36980524D01*
X7718209Y-37059573D01*
X7718216Y-37059577D01*
X7870943Y-37100500D01*
X7870945Y-37100500D01*
X8029055Y-37100500D01*
X8029057Y-37100500D01*
X8181784Y-37059577D01*
X8318716Y-36980520D01*
X8318721Y-36980514D01*
X8324443Y-36976125D01*
X8389612Y-36950930D01*
X8399931Y-36950500D01*
X13300069Y-36950500D01*
X13367108Y-36970185D01*
X13375557Y-36976125D01*
X13381281Y-36980517D01*
X13381284Y-36980520D01*
X13381287Y-36980521D01*
X13381290Y-36980524D01*
X13518209Y-37059573D01*
X13518216Y-37059577D01*
X13670943Y-37100500D01*
X13670945Y-37100500D01*
X13829055Y-37100500D01*
X13829057Y-37100500D01*
X13981784Y-37059577D01*
X14118716Y-36980520D01*
X14118721Y-36980514D01*
X14124443Y-36976125D01*
X14189612Y-36950930D01*
X14199931Y-36950500D01*
X19450069Y-36950500D01*
X19517108Y-36970185D01*
X19525557Y-36976125D01*
X19531281Y-36980517D01*
X19531284Y-36980520D01*
X19531287Y-36980521D01*
X19531290Y-36980524D01*
X19668209Y-37059573D01*
X19668216Y-37059577D01*
X19820943Y-37100500D01*
X19820945Y-37100500D01*
X19979055Y-37100500D01*
X19979057Y-37100500D01*
X20131784Y-37059577D01*
X20268716Y-36980520D01*
X20268721Y-36980514D01*
X20274443Y-36976125D01*
X20339612Y-36950930D01*
X20349931Y-36950500D01*
X21862035Y-36950500D01*
X21929074Y-36970185D01*
X21949716Y-36986819D01*
X24763181Y-39800284D01*
X24796666Y-39861607D01*
X24799500Y-39887965D01*
X24799500Y-42812034D01*
X24790854Y-42841478D01*
X24784330Y-42871465D01*
X24780577Y-42876477D01*
X24779815Y-42879073D01*
X24763178Y-42899718D01*
X24749593Y-42913302D01*
X24688269Y-42946785D01*
X24678107Y-42948556D01*
X24670948Y-42949498D01*
X24518216Y-42990423D01*
X24518209Y-42990426D01*
X24381290Y-43069475D01*
X24381282Y-43069481D01*
X24269481Y-43181282D01*
X24269475Y-43181290D01*
X24190426Y-43318209D01*
X24190423Y-43318216D01*
X24149500Y-43470943D01*
X24149500Y-43629056D01*
X24190423Y-43781783D01*
X24190426Y-43781790D01*
X24269475Y-43918709D01*
X24269479Y-43918714D01*
X24269480Y-43918716D01*
X24381284Y-44030520D01*
X24381286Y-44030521D01*
X24381290Y-44030524D01*
X24518209Y-44109573D01*
X24518216Y-44109577D01*
X24670943Y-44150500D01*
X24670945Y-44150500D01*
X24829055Y-44150500D01*
X24829057Y-44150500D01*
X24981784Y-44109577D01*
X25118716Y-44030520D01*
X25230520Y-43918716D01*
X25309577Y-43781784D01*
X25350500Y-43629057D01*
X25350500Y-43629044D01*
X25351441Y-43621901D01*
X25379707Y-43558003D01*
X25386675Y-43550427D01*
X25610490Y-43326614D01*
X25669799Y-43223887D01*
X25681213Y-43181290D01*
X25687539Y-43157678D01*
X25700500Y-43109309D01*
X25700500Y-39590691D01*
X25669799Y-39476114D01*
X25669799Y-39476113D01*
X25669799Y-39476112D01*
X25610492Y-39373389D01*
X25610488Y-39373384D01*
X22376616Y-36139513D01*
X22376614Y-36139511D01*
X22325250Y-36109856D01*
X22273888Y-36080201D01*
X22261780Y-36076957D01*
X22249673Y-36073713D01*
X22249670Y-36073712D01*
X22211478Y-36063478D01*
X22159309Y-36049500D01*
X22159308Y-36049500D01*
X20349931Y-36049500D01*
X20282892Y-36029815D01*
X20274443Y-36023875D01*
X20268709Y-36019475D01*
X20131790Y-35940426D01*
X20131786Y-35940424D01*
X20131784Y-35940423D01*
X19979057Y-35899500D01*
X19820943Y-35899500D01*
X19668216Y-35940423D01*
X19668209Y-35940426D01*
X19531290Y-36019475D01*
X19525557Y-36023875D01*
X19460388Y-36049070D01*
X19450069Y-36049500D01*
X14199931Y-36049500D01*
X14132892Y-36029815D01*
X14124443Y-36023875D01*
X14118709Y-36019475D01*
X13981790Y-35940426D01*
X13981786Y-35940424D01*
X13981784Y-35940423D01*
X13829057Y-35899500D01*
X13670943Y-35899500D01*
X13518216Y-35940423D01*
X13518209Y-35940426D01*
X13381290Y-36019475D01*
X13375557Y-36023875D01*
X13310388Y-36049070D01*
X13300069Y-36049500D01*
X8399931Y-36049500D01*
X8332892Y-36029815D01*
X8324443Y-36023875D01*
X8318709Y-36019475D01*
X8181790Y-35940426D01*
X8181786Y-35940424D01*
X8181784Y-35940423D01*
X8029057Y-35899500D01*
X7870943Y-35899500D01*
X7718216Y-35940423D01*
X7718209Y-35940426D01*
X7581290Y-36019475D01*
X7575557Y-36023875D01*
X7510388Y-36049070D01*
X7500069Y-36049500D01*
X6337965Y-36049500D01*
X6270926Y-36029815D01*
X6250284Y-36013181D01*
X-1884773Y-27878124D01*
X-1966367Y-27796530D01*
X28989500Y-27796530D01*
X28989500Y-28003469D01*
X29029868Y-28206412D01*
X29029870Y-28206420D01*
X29109058Y-28397596D01*
X29224024Y-28569657D01*
X29370342Y-28715975D01*
X29370345Y-28715977D01*
X29542402Y-28830941D01*
X29733580Y-28910130D01*
X29878052Y-28938867D01*
X29936530Y-28950499D01*
X29936534Y-28950500D01*
X29936535Y-28950500D01*
X30143466Y-28950500D01*
X30143467Y-28950499D01*
X30346420Y-28910130D01*
X30537598Y-28830941D01*
X30709655Y-28715977D01*
X30855977Y-28569655D01*
X30970941Y-28397598D01*
X31050130Y-28206420D01*
X31090500Y-28003465D01*
X31090500Y-27796535D01*
X31090499Y-27796530D01*
X31529500Y-27796530D01*
X31529500Y-28003469D01*
X31569868Y-28206412D01*
X31569870Y-28206420D01*
X31649058Y-28397596D01*
X31764024Y-28569657D01*
X31910342Y-28715975D01*
X31910345Y-28715977D01*
X32082402Y-28830941D01*
X32273580Y-28910130D01*
X32418052Y-28938867D01*
X32476530Y-28950499D01*
X32476534Y-28950500D01*
X32476535Y-28950500D01*
X32683466Y-28950500D01*
X32683467Y-28950499D01*
X32886420Y-28910130D01*
X33077598Y-28830941D01*
X33249655Y-28715977D01*
X33395977Y-28569655D01*
X33510941Y-28397598D01*
X33590130Y-28206420D01*
X33630500Y-28003465D01*
X33630500Y-27796535D01*
X33630499Y-27796530D01*
X34069500Y-27796530D01*
X34069500Y-28003469D01*
X34109868Y-28206412D01*
X34109870Y-28206420D01*
X34189058Y-28397596D01*
X34304024Y-28569657D01*
X34450342Y-28715975D01*
X34450345Y-28715977D01*
X34622402Y-28830941D01*
X34813580Y-28910130D01*
X34958052Y-28938867D01*
X35016530Y-28950499D01*
X35016534Y-28950500D01*
X35016535Y-28950500D01*
X35223466Y-28950500D01*
X35223467Y-28950499D01*
X35426420Y-28910130D01*
X35617598Y-28830941D01*
X35789655Y-28715977D01*
X35935977Y-28569655D01*
X36050941Y-28397598D01*
X36130130Y-28206420D01*
X36170500Y-28003465D01*
X36170500Y-27796535D01*
X36170499Y-27796530D01*
X36609500Y-27796530D01*
X36609500Y-28003469D01*
X36649868Y-28206412D01*
X36649870Y-28206420D01*
X36729058Y-28397596D01*
X36844024Y-28569657D01*
X36990342Y-28715975D01*
X36990345Y-28715977D01*
X37162402Y-28830941D01*
X37353580Y-28910130D01*
X37498052Y-28938867D01*
X37556530Y-28950499D01*
X37556534Y-28950500D01*
X37556535Y-28950500D01*
X37763466Y-28950500D01*
X37763467Y-28950499D01*
X37966420Y-28910130D01*
X38157598Y-28830941D01*
X38329655Y-28715977D01*
X38475977Y-28569655D01*
X38590941Y-28397598D01*
X38670130Y-28206420D01*
X38710500Y-28003465D01*
X38710500Y-27796535D01*
X38670130Y-27593580D01*
X38590941Y-27402402D01*
X38475977Y-27230345D01*
X38475975Y-27230342D01*
X38329657Y-27084024D01*
X38249173Y-27030247D01*
X39149500Y-27030247D01*
X39149500Y-28769752D01*
X39161131Y-28828229D01*
X39161132Y-28828230D01*
X39205447Y-28894552D01*
X39271769Y-28938867D01*
X39271770Y-28938868D01*
X39330247Y-28950499D01*
X39330250Y-28950500D01*
X39330252Y-28950500D01*
X41069750Y-28950500D01*
X41069751Y-28950499D01*
X41084568Y-28947552D01*
X41128229Y-28938868D01*
X41128229Y-28938867D01*
X41128231Y-28938867D01*
X41194552Y-28894552D01*
X41238867Y-28828231D01*
X41238867Y-28828229D01*
X41238868Y-28828229D01*
X41250499Y-28769752D01*
X41250500Y-28769750D01*
X41250500Y-27030249D01*
X41250499Y-27030247D01*
X41238868Y-26971770D01*
X41238867Y-26971769D01*
X41194552Y-26905447D01*
X41128230Y-26861132D01*
X41128229Y-26861131D01*
X41069752Y-26849500D01*
X41069748Y-26849500D01*
X39330252Y-26849500D01*
X39330247Y-26849500D01*
X39271770Y-26861131D01*
X39271769Y-26861132D01*
X39205447Y-26905447D01*
X39161132Y-26971769D01*
X39161131Y-26971770D01*
X39149500Y-27030247D01*
X38249173Y-27030247D01*
X38161655Y-26971770D01*
X38157598Y-26969059D01*
X37966420Y-26889870D01*
X37966412Y-26889868D01*
X37763469Y-26849500D01*
X37763465Y-26849500D01*
X37556535Y-26849500D01*
X37556530Y-26849500D01*
X37353587Y-26889868D01*
X37353579Y-26889870D01*
X37162403Y-26969058D01*
X36990342Y-27084024D01*
X36844024Y-27230342D01*
X36729058Y-27402403D01*
X36649870Y-27593579D01*
X36649868Y-27593587D01*
X36609500Y-27796530D01*
X36170499Y-27796530D01*
X36130130Y-27593580D01*
X36050941Y-27402402D01*
X35935977Y-27230345D01*
X35935975Y-27230342D01*
X35789657Y-27084024D01*
X35621655Y-26971770D01*
X35617598Y-26969059D01*
X35426420Y-26889870D01*
X35426412Y-26889868D01*
X35223469Y-26849500D01*
X35223465Y-26849500D01*
X35016535Y-26849500D01*
X35016530Y-26849500D01*
X34813587Y-26889868D01*
X34813579Y-26889870D01*
X34622403Y-26969058D01*
X34450342Y-27084024D01*
X34304024Y-27230342D01*
X34189058Y-27402403D01*
X34109870Y-27593579D01*
X34109868Y-27593587D01*
X34069500Y-27796530D01*
X33630499Y-27796530D01*
X33590130Y-27593580D01*
X33510941Y-27402402D01*
X33395977Y-27230345D01*
X33395975Y-27230342D01*
X33249657Y-27084024D01*
X33081655Y-26971770D01*
X33077598Y-26969059D01*
X32886420Y-26889870D01*
X32886412Y-26889868D01*
X32683469Y-26849500D01*
X32683465Y-26849500D01*
X32476535Y-26849500D01*
X32476530Y-26849500D01*
X32273587Y-26889868D01*
X32273579Y-26889870D01*
X32082403Y-26969058D01*
X31910342Y-27084024D01*
X31764024Y-27230342D01*
X31649058Y-27402403D01*
X31569870Y-27593579D01*
X31569868Y-27593587D01*
X31529500Y-27796530D01*
X31090499Y-27796530D01*
X31050130Y-27593580D01*
X30970941Y-27402402D01*
X30855977Y-27230345D01*
X30855975Y-27230342D01*
X30709657Y-27084024D01*
X30541655Y-26971770D01*
X30537598Y-26969059D01*
X30346420Y-26889870D01*
X30346412Y-26889868D01*
X30143469Y-26849500D01*
X30143465Y-26849500D01*
X29936535Y-26849500D01*
X29936530Y-26849500D01*
X29733587Y-26889868D01*
X29733579Y-26889870D01*
X29542403Y-26969058D01*
X29370342Y-27084024D01*
X29224024Y-27230342D01*
X29109058Y-27402403D01*
X29029870Y-27593579D01*
X29029868Y-27593587D01*
X28989500Y-27796530D01*
X-1966367Y-27796530D01*
X-24173383Y-5589513D01*
X-24173386Y-5589511D01*
X-24276113Y-5530200D01*
X-24276116Y-5530199D01*
X-24300324Y-5523712D01*
X-24300325Y-5523713D01*
X-24390691Y-5499500D01*
X-31150069Y-5499500D01*
X-31217108Y-5479815D01*
X-31225557Y-5473875D01*
X-31231290Y-5469475D01*
X-31368209Y-5390426D01*
X-31368216Y-5390423D01*
X-31520943Y-5349500D01*
X-31679057Y-5349500D01*
X-31831784Y-5390423D01*
X-31831786Y-5390424D01*
X-31831790Y-5390426D01*
X-31968709Y-5469475D01*
X-31968717Y-5469481D01*
X-32080518Y-5581282D01*
X-32080524Y-5581290D01*
X-32085270Y-5589511D01*
X-32159577Y-5718216D01*
X-32200500Y-5870943D01*
X-49499500Y-5870943D01*
X-49499500Y5254676D01*
X-8260500Y5254676D01*
X-8260500Y3505323D01*
X-8260499Y3505321D01*
X-8249308Y3449058D01*
X-8245966Y3432260D01*
X-8190601Y3349399D01*
X-8135235Y3312405D01*
X-8107739Y3294033D01*
X-8107735Y3294032D01*
X-8034678Y3279500D01*
X-8034674Y3279500D01*
X-6285321Y3279500D01*
X-6212264Y3294032D01*
X-6212260Y3294033D01*
X-6129399Y3349399D01*
X-6074033Y3432260D01*
X-6074032Y3432264D01*
X-6059500Y3505321D01*
X-6059500Y4483465D01*
X-5670500Y4483465D01*
X-5670500Y4276535D01*
X-5630130Y4073580D01*
X-5550941Y3882402D01*
X-5518338Y3833608D01*
X-5435975Y3710342D01*
X-5289657Y3564024D01*
X-5203626Y3506541D01*
X-5117598Y3449059D01*
X-5117596Y3449058D01*
X-4926420Y3369870D01*
X-4926412Y3369868D01*
X-4723469Y3329500D01*
X-4723465Y3329500D01*
X-4516530Y3329500D01*
X-4313587Y3369868D01*
X-4313579Y3369870D01*
X-4122403Y3449058D01*
X-3950342Y3564024D01*
X-3804024Y3710342D01*
X-3689058Y3882403D01*
X-3609870Y4073579D01*
X-3609868Y4073587D01*
X-3569500Y4276530D01*
X-3569500Y4483465D01*
X-3130500Y4483465D01*
X-3130500Y4276535D01*
X-3090130Y4073580D01*
X-3010941Y3882402D01*
X-2978338Y3833608D01*
X-2895975Y3710342D01*
X-2749657Y3564024D01*
X-2663626Y3506541D01*
X-2577598Y3449059D01*
X-2577596Y3449058D01*
X-2386420Y3369870D01*
X-2386412Y3369868D01*
X-2183469Y3329500D01*
X-2183465Y3329500D01*
X-1976530Y3329500D01*
X-1773587Y3369868D01*
X-1773579Y3369870D01*
X-1582403Y3449058D01*
X-1410342Y3564024D01*
X-1264024Y3710342D01*
X-1149058Y3882403D01*
X-1069870Y4073579D01*
X-1069868Y4073587D01*
X-1029500Y4276530D01*
X-1029500Y4483469D01*
X-1069868Y4686412D01*
X-1069870Y4686420D01*
X-1149058Y4877596D01*
X-1264024Y5049657D01*
X-1410342Y5195975D01*
X-1415621Y5199502D01*
X-1582402Y5310941D01*
X-1773580Y5390130D01*
X-1976530Y5430499D01*
X-1976534Y5430500D01*
X-1976535Y5430500D01*
X-2183465Y5430500D01*
X-2183466Y5430500D01*
X-2183467Y5430499D01*
X-2386420Y5390130D01*
X-2577598Y5310941D01*
X-2749655Y5195977D01*
X-2895977Y5049655D01*
X-3010941Y4877598D01*
X-3090130Y4686420D01*
X-3130500Y4483465D01*
X-3569500Y4483465D01*
X-3569500Y4483469D01*
X-3609868Y4686412D01*
X-3609870Y4686420D01*
X-3689058Y4877596D01*
X-3804024Y5049657D01*
X-3950342Y5195975D01*
X-3955621Y5199502D01*
X-4122402Y5310941D01*
X-4313580Y5390130D01*
X-4516530Y5430499D01*
X-4516534Y5430500D01*
X-4516535Y5430500D01*
X-4723465Y5430500D01*
X-4723466Y5430500D01*
X-4723467Y5430499D01*
X-4926420Y5390130D01*
X-5117598Y5310941D01*
X-5289655Y5195977D01*
X-5435977Y5049655D01*
X-5550941Y4877598D01*
X-5630130Y4686420D01*
X-5670500Y4483465D01*
X-6059500Y4483465D01*
X-6059500Y5254678D01*
X-6074032Y5327735D01*
X-6074034Y5327740D01*
X-6081916Y5339536D01*
X-6129399Y5410601D01*
X-6212260Y5465966D01*
X-6212264Y5465967D01*
X-6285323Y5480500D01*
X-6285326Y5480500D01*
X-8034674Y5480500D01*
X-8034677Y5480500D01*
X-8107735Y5465967D01*
X-8107740Y5465966D01*
X-8190601Y5410601D01*
X-8245966Y5327740D01*
X-8245967Y5327735D01*
X-8260499Y5254678D01*
X-8260500Y5254676D01*
X-49499500Y5254676D01*
X-49499500Y13528844D01*
X-47233000Y13528844D01*
X-47233000Y13371155D01*
X-47232999Y13371153D01*
X-47202237Y13216503D01*
X-47202235Y13216498D01*
X-47141897Y13070827D01*
X-47141890Y13070814D01*
X-47054289Y12939711D01*
X-47054286Y12939707D01*
X-46942792Y12828213D01*
X-46942788Y12828210D01*
X-46811685Y12740609D01*
X-46811672Y12740602D01*
X-46666001Y12680264D01*
X-46665989Y12680261D01*
X-46511346Y12649500D01*
X-46511342Y12649500D01*
X-46353653Y12649500D01*
X-46199010Y12680261D01*
X-46198998Y12680264D01*
X-46053327Y12740602D01*
X-46053314Y12740609D01*
X-45922211Y12828210D01*
X-45922207Y12828213D01*
X-45810713Y12939707D01*
X-45810710Y12939711D01*
X-45723109Y13070814D01*
X-45723102Y13070827D01*
X-45662764Y13216498D01*
X-45662761Y13216510D01*
X-45632000Y13371153D01*
X-45632000Y13528846D01*
X-45662761Y13683489D01*
X-45662764Y13683501D01*
X-45723102Y13829172D01*
X-45723109Y13829185D01*
X-45810710Y13960288D01*
X-45810713Y13960292D01*
X-45922207Y14071786D01*
X-45922211Y14071789D01*
X-46053314Y14159390D01*
X-46053327Y14159397D01*
X-46198998Y14219735D01*
X-46199003Y14219737D01*
X-46260358Y14231941D01*
X-46353655Y14250500D01*
X-46353658Y14250500D01*
X-46511342Y14250500D01*
X-46511345Y14250500D01*
X-46589020Y14235048D01*
X-46665997Y14219737D01*
X-46811679Y14159394D01*
X-46942789Y14071789D01*
X-47054289Y13960289D01*
X-47141894Y13829179D01*
X-47202237Y13683497D01*
X-47232999Y13528846D01*
X-47233000Y13528844D01*
X-49499500Y13528844D01*
X-49499500Y16068844D01*
X-47233000Y16068844D01*
X-47233000Y15911155D01*
X-47232999Y15911153D01*
X-47202237Y15756503D01*
X-47202235Y15756498D01*
X-47141897Y15610827D01*
X-47141890Y15610814D01*
X-47054289Y15479711D01*
X-47054286Y15479707D01*
X-46942792Y15368213D01*
X-46942788Y15368210D01*
X-46811685Y15280609D01*
X-46811672Y15280602D01*
X-46666001Y15220264D01*
X-46665989Y15220261D01*
X-46511346Y15189500D01*
X-46511342Y15189500D01*
X-46353653Y15189500D01*
X-46199010Y15220261D01*
X-46198998Y15220264D01*
X-46053327Y15280602D01*
X-46053314Y15280609D01*
X-45922211Y15368210D01*
X-45922207Y15368213D01*
X-45810713Y15479707D01*
X-45810710Y15479711D01*
X-45723109Y15610814D01*
X-45723102Y15610827D01*
X-45662764Y15756498D01*
X-45662761Y15756510D01*
X-45632000Y15911153D01*
X-45632000Y16068846D01*
X-45662761Y16223489D01*
X-45662764Y16223501D01*
X-45723102Y16369172D01*
X-45723109Y16369185D01*
X-45810710Y16500288D01*
X-45810713Y16500292D01*
X-45922207Y16611786D01*
X-45922211Y16611789D01*
X-46053314Y16699390D01*
X-46053327Y16699397D01*
X-46198998Y16759735D01*
X-46199003Y16759737D01*
X-46278491Y16775548D01*
X-46278493Y16775549D01*
X-46353656Y16790500D01*
X-46353658Y16790500D01*
X-46511342Y16790500D01*
X-46511345Y16790500D01*
X-46586505Y16775549D01*
X-46665997Y16759737D01*
X-46718038Y16738181D01*
X-46802420Y16703229D01*
X-46811679Y16699394D01*
X-46942789Y16611789D01*
X-47054289Y16500289D01*
X-47141894Y16369179D01*
X-47141896Y16369172D01*
X-47141897Y16369172D01*
X-47145504Y16360464D01*
X-47202237Y16223497D01*
X-47232999Y16068846D01*
X-47233000Y16068844D01*
X-49499500Y16068844D01*
X-49499500Y16894267D01*
X-45193000Y16894267D01*
X-45192999Y15085734D01*
X-45190146Y15055300D01*
X-45190144Y15055294D01*
X-45145293Y14927117D01*
X-45064650Y14817849D01*
X-44990623Y14763215D01*
X-44955383Y14737207D01*
X-44955381Y14737206D01*
X-44827201Y14692353D01*
X-44796771Y14689500D01*
X-44796767Y14689500D01*
X-44780651Y14689500D01*
X-44713612Y14669815D01*
X-44667857Y14617011D01*
X-44657913Y14547853D01*
X-44686938Y14484297D01*
X-44707766Y14465182D01*
X-44739713Y14441971D01*
X-44739715Y14441968D01*
X-44739719Y14441966D01*
X-44884466Y14297219D01*
X-44884468Y14297215D01*
X-44884471Y14297213D01*
X-44912734Y14258311D01*
X-45004787Y14131610D01*
X-45097720Y13949219D01*
X-45160977Y13754534D01*
X-45193000Y13552351D01*
X-45193000Y13347648D01*
X-45160977Y13145465D01*
X-45136725Y13070827D01*
X-45122043Y13025638D01*
X-45097718Y12950776D01*
X-45092080Y12939711D01*
X-45004787Y12768390D01*
X-45004784Y12768386D01*
X-44884471Y12602786D01*
X-44739713Y12458028D01*
X-44578260Y12340728D01*
X-44574110Y12337713D01*
X-44549799Y12325326D01*
X-44391723Y12244781D01*
X-44197034Y12181522D01*
X-44022495Y12153878D01*
X-43994852Y12149500D01*
X-43994851Y12149500D01*
X-43790149Y12149500D01*
X-43790148Y12149500D01*
X-43765829Y12153351D01*
X-43587965Y12181522D01*
X-43393276Y12244781D01*
X-43210886Y12337715D01*
X-43045286Y12458028D01*
X-42900528Y12602786D01*
X-42780215Y12768386D01*
X-42687281Y12950776D01*
X-42624022Y13145465D01*
X-42592000Y13347648D01*
X-42592000Y13552351D01*
X-42624022Y13754534D01*
X-42687281Y13949223D01*
X-42764568Y14100905D01*
X-42780213Y14131610D01*
X-42780215Y14131613D01*
X-42900528Y14297213D01*
X-43045282Y14441967D01*
X-43045284Y14441968D01*
X-43077234Y14465181D01*
X-43119900Y14520510D01*
X-43125881Y14590123D01*
X-43093276Y14651919D01*
X-43032438Y14686277D01*
X-43004357Y14689500D01*
X-42988241Y14689500D01*
X-42977437Y14690513D01*
X-42957800Y14692354D01*
X-42957797Y14692354D01*
X-42957796Y14692355D01*
X-42957794Y14692355D01*
X-42829617Y14737206D01*
X-42720349Y14817849D01*
X-42639706Y14927118D01*
X-42594853Y15055297D01*
X-42594853Y15055299D01*
X-42592000Y15085729D01*
X-42592000Y15175500D01*
X-42572315Y15242539D01*
X-42519511Y15288294D01*
X-42468000Y15299500D01*
X-38299500Y15299500D01*
X-38232461Y15279815D01*
X-38186706Y15227011D01*
X-38175500Y15175500D01*
X-38175500Y15155249D01*
X-38175499Y15155247D01*
X-38163868Y15096770D01*
X-38163867Y15096769D01*
X-38119551Y15030446D01*
X-38055608Y14987720D01*
X-38010804Y14934108D01*
X-38000500Y14884619D01*
X-38000500Y14360480D01*
X-38020185Y14293441D01*
X-38056628Y14259968D01*
X-38055405Y14258311D01*
X-38062881Y14252793D01*
X-38062882Y14252793D01*
X-38172150Y14172150D01*
X-38252793Y14062882D01*
X-38269206Y14015977D01*
X-38297646Y13934701D01*
X-38297646Y13934699D01*
X-38300500Y13904269D01*
X-38300500Y12895730D01*
X-38297646Y12865300D01*
X-38297646Y12865298D01*
X-38268445Y12781849D01*
X-38252793Y12737118D01*
X-38172150Y12627850D01*
X-38062882Y12547207D01*
X-38062880Y12547206D01*
X-37934700Y12502353D01*
X-37904270Y12499500D01*
X-37111189Y12499500D01*
X-37044150Y12479815D01*
X-37023508Y12463181D01*
X-31399863Y6839536D01*
X-31399855Y6839530D01*
X-31325644Y6796685D01*
X-31325640Y6796683D01*
X-31325638Y6796682D01*
X-31242853Y6774500D01*
X9413811Y6774500D01*
X9480850Y6754815D01*
X9501492Y6738181D01*
X12200135Y4039537D01*
X12200138Y4039535D01*
X12274359Y3996682D01*
X12357147Y3974500D01*
X12442853Y3974500D01*
X27166324Y3974500D01*
X27233363Y3954815D01*
X27254005Y3938181D01*
X27292683Y3899502D01*
X27292686Y3899500D01*
X27406812Y3833608D01*
X27534108Y3799500D01*
X27665891Y3799500D01*
X27665892Y3799500D01*
X27729539Y3816554D01*
X27793187Y3833608D01*
X27877701Y3882403D01*
X27907314Y3899500D01*
X28000500Y3992686D01*
X28066392Y4106814D01*
X28100500Y4234108D01*
X28100500Y4365892D01*
X28066392Y4493186D01*
X28000500Y4607314D01*
X27907314Y4700500D01*
X27793186Y4766392D01*
X27665892Y4800500D01*
X27534108Y4800500D01*
X27406814Y4766392D01*
X27292686Y4700500D01*
X27292683Y4700497D01*
X27254005Y4661819D01*
X27192682Y4628334D01*
X27166324Y4625500D01*
X12586189Y4625500D01*
X12519150Y4645185D01*
X12498508Y4661819D01*
X11159827Y6000500D01*
X9799862Y7360465D01*
X9725639Y7403318D01*
X9642853Y7425500D01*
X9642851Y7425500D01*
X-31013811Y7425500D01*
X-31080850Y7445185D01*
X-31101492Y7461819D01*
X-36663181Y13023508D01*
X-36696666Y13084831D01*
X-36699500Y13111189D01*
X-36699500Y13904269D01*
X-36702353Y13934699D01*
X-36702353Y13934701D01*
X-36747206Y14062880D01*
X-36747207Y14062882D01*
X-36775270Y14100906D01*
X-36799241Y14166533D01*
X-36799500Y14174539D01*
X-36799500Y14884619D01*
X-36779815Y14951658D01*
X-36744392Y14987720D01*
X-36680448Y15030446D01*
X-36636132Y15096769D01*
X-36636131Y15096770D01*
X-36624500Y15155247D01*
X-36624500Y16644752D01*
X-36636131Y16703229D01*
X-36636132Y16703230D01*
X-36680447Y16769552D01*
X-36746769Y16813867D01*
X-36746770Y16813868D01*
X-36805247Y16825499D01*
X-36805249Y16825500D01*
X-36805252Y16825500D01*
X-37994748Y16825500D01*
X-37994751Y16825500D01*
X-37994751Y16825499D01*
X-38009568Y16822552D01*
X-38053229Y16813868D01*
X-38053229Y16813867D01*
X-38053231Y16813867D01*
X-38119552Y16769552D01*
X-38163867Y16703231D01*
X-38163867Y16703230D01*
X-38163868Y16703229D01*
X-38175499Y16644752D01*
X-38175500Y16644750D01*
X-38175500Y16624500D01*
X-38195185Y16557461D01*
X-38247989Y16511706D01*
X-38299500Y16500500D01*
X-42468001Y16500500D01*
X-42535040Y16520185D01*
X-42580795Y16572989D01*
X-42592001Y16624500D01*
X-42592001Y16894260D01*
X-42592001Y16894266D01*
X-42594854Y16924700D01*
X-42594855Y16924703D01*
X-42594855Y16924705D01*
X-42639706Y17052882D01*
X-42720349Y17162150D01*
X-42774983Y17202471D01*
X-42829617Y17242793D01*
X-42872344Y17257744D01*
X-42957798Y17287646D01*
X-42964823Y17288304D01*
X-42988233Y17290500D01*
X-44796766Y17290499D01*
X-44827200Y17287646D01*
X-44955383Y17242793D01*
X-45064650Y17162150D01*
X-45145293Y17052883D01*
X-45167719Y16988791D01*
X-45190146Y16924702D01*
X-45190146Y16924700D01*
X-45193000Y16894267D01*
X-49499500Y16894267D01*
X-49499500Y21118844D01*
X-47233000Y21118844D01*
X-47233000Y20961155D01*
X-47232999Y20961153D01*
X-47202237Y20806503D01*
X-47202235Y20806498D01*
X-47141897Y20660827D01*
X-47141890Y20660814D01*
X-47054289Y20529711D01*
X-47054286Y20529707D01*
X-46942792Y20418213D01*
X-46942788Y20418210D01*
X-46811685Y20330609D01*
X-46811672Y20330602D01*
X-46666001Y20270264D01*
X-46665989Y20270261D01*
X-46511346Y20239500D01*
X-46511342Y20239500D01*
X-46353653Y20239500D01*
X-46199010Y20270261D01*
X-46198998Y20270264D01*
X-46053327Y20330602D01*
X-46053314Y20330609D01*
X-45922211Y20418210D01*
X-45922207Y20418213D01*
X-45810713Y20529707D01*
X-45810710Y20529711D01*
X-45723109Y20660814D01*
X-45723102Y20660827D01*
X-45662764Y20806498D01*
X-45662761Y20806510D01*
X-45632000Y20961153D01*
X-45632000Y21118846D01*
X-45662761Y21273489D01*
X-45662764Y21273501D01*
X-45723102Y21419172D01*
X-45723109Y21419185D01*
X-45810710Y21550288D01*
X-45810713Y21550292D01*
X-45922207Y21661786D01*
X-45922211Y21661789D01*
X-46053314Y21749390D01*
X-46053327Y21749397D01*
X-46198998Y21809735D01*
X-46199003Y21809737D01*
X-46260358Y21821941D01*
X-46353655Y21840500D01*
X-46353658Y21840500D01*
X-46511342Y21840500D01*
X-46511345Y21840500D01*
X-46589020Y21825048D01*
X-46665997Y21809737D01*
X-46811679Y21749394D01*
X-46942789Y21661789D01*
X-47054289Y21550289D01*
X-47141894Y21419179D01*
X-47202237Y21273497D01*
X-47232999Y21118846D01*
X-47233000Y21118844D01*
X-49499500Y21118844D01*
X-49499500Y23658844D01*
X-47233000Y23658844D01*
X-47233000Y23501155D01*
X-47232999Y23501153D01*
X-47202237Y23346503D01*
X-47202235Y23346498D01*
X-47141897Y23200827D01*
X-47141890Y23200814D01*
X-47054289Y23069711D01*
X-47054286Y23069707D01*
X-46942792Y22958213D01*
X-46942788Y22958210D01*
X-46811685Y22870609D01*
X-46811672Y22870602D01*
X-46666001Y22810264D01*
X-46665989Y22810261D01*
X-46511346Y22779500D01*
X-46511342Y22779500D01*
X-46353653Y22779500D01*
X-46199010Y22810261D01*
X-46198998Y22810264D01*
X-46053327Y22870602D01*
X-46053314Y22870609D01*
X-45922211Y22958210D01*
X-45922207Y22958213D01*
X-45810713Y23069707D01*
X-45810710Y23069711D01*
X-45723109Y23200814D01*
X-45723102Y23200827D01*
X-45662764Y23346498D01*
X-45662761Y23346510D01*
X-45632000Y23501153D01*
X-45632000Y23658846D01*
X-45662761Y23813489D01*
X-45662764Y23813501D01*
X-45723102Y23959172D01*
X-45723109Y23959185D01*
X-45810710Y24090288D01*
X-45810713Y24090292D01*
X-45922207Y24201786D01*
X-45922211Y24201789D01*
X-46053314Y24289390D01*
X-46053327Y24289397D01*
X-46198998Y24349735D01*
X-46199003Y24349737D01*
X-46278491Y24365548D01*
X-46278493Y24365549D01*
X-46353656Y24380500D01*
X-46353658Y24380500D01*
X-46511342Y24380500D01*
X-46511345Y24380500D01*
X-46574998Y24367838D01*
X-46665997Y24349737D01*
X-46726925Y24324500D01*
X-46785740Y24300138D01*
X-46811679Y24289394D01*
X-46942789Y24201789D01*
X-47054289Y24090289D01*
X-47141894Y23959179D01*
X-47202237Y23813497D01*
X-47219713Y23725639D01*
X-47232999Y23658846D01*
X-47233000Y23658844D01*
X-49499500Y23658844D01*
X-49499500Y24484267D01*
X-45193000Y24484267D01*
X-45192999Y22675734D01*
X-45190146Y22645300D01*
X-45190144Y22645294D01*
X-45145293Y22517117D01*
X-45064650Y22407849D01*
X-44992790Y22354815D01*
X-44955383Y22327207D01*
X-44955381Y22327206D01*
X-44827201Y22282353D01*
X-44796771Y22279500D01*
X-44796767Y22279500D01*
X-44780651Y22279500D01*
X-44713612Y22259815D01*
X-44667857Y22207011D01*
X-44657913Y22137853D01*
X-44686938Y22074297D01*
X-44707766Y22055182D01*
X-44739713Y22031971D01*
X-44739715Y22031968D01*
X-44739719Y22031966D01*
X-44884466Y21887219D01*
X-44884468Y21887215D01*
X-44884471Y21887213D01*
X-44895415Y21872149D01*
X-45004787Y21721610D01*
X-45097720Y21539219D01*
X-45160977Y21344534D01*
X-45193000Y21142351D01*
X-45193000Y20937648D01*
X-45160977Y20735465D01*
X-45139400Y20669059D01*
X-45105687Y20565300D01*
X-45097718Y20540776D01*
X-45077010Y20500135D01*
X-45004787Y20358390D01*
X-45004784Y20358386D01*
X-44884471Y20192786D01*
X-44739713Y20048028D01*
X-44574113Y19927715D01*
X-44574110Y19927713D01*
X-44517153Y19898691D01*
X-44391723Y19834781D01*
X-44197034Y19771522D01*
X-44022495Y19743878D01*
X-43994852Y19739500D01*
X-43994851Y19739500D01*
X-43790149Y19739500D01*
X-43790148Y19739500D01*
X-43765829Y19743351D01*
X-43587965Y19771522D01*
X-43393276Y19834781D01*
X-43210886Y19927715D01*
X-43045286Y20048028D01*
X-42900528Y20192786D01*
X-42780215Y20358386D01*
X-42687281Y20540776D01*
X-42624022Y20735465D01*
X-42592000Y20937648D01*
X-42592000Y21142351D01*
X-42624022Y21344534D01*
X-42687281Y21539223D01*
X-42780215Y21721613D01*
X-42900528Y21887213D01*
X-43045282Y22031967D01*
X-43045284Y22031968D01*
X-43077234Y22055181D01*
X-43119900Y22110510D01*
X-43125881Y22180123D01*
X-43093276Y22241919D01*
X-43032438Y22276277D01*
X-43004357Y22279500D01*
X-42988241Y22279500D01*
X-42977437Y22280513D01*
X-42957800Y22282354D01*
X-42957797Y22282354D01*
X-42957796Y22282355D01*
X-42957794Y22282355D01*
X-42829617Y22327206D01*
X-42720349Y22407849D01*
X-42639706Y22517118D01*
X-42594853Y22645297D01*
X-42594853Y22645299D01*
X-42592000Y22675729D01*
X-42592000Y22875500D01*
X-42572315Y22942539D01*
X-42519511Y22988294D01*
X-42468000Y22999500D01*
X-38699500Y22999500D01*
X-38632461Y22979815D01*
X-38586706Y22927011D01*
X-38575500Y22875500D01*
X-38575500Y22855249D01*
X-38575499Y22855247D01*
X-38563868Y22796770D01*
X-38563867Y22796769D01*
X-38519551Y22730446D01*
X-38455608Y22687720D01*
X-38410804Y22634108D01*
X-38400500Y22584619D01*
X-38400500Y21987628D01*
X-38420185Y21920589D01*
X-38450866Y21887857D01*
X-38472150Y21872150D01*
X-38552793Y21762882D01*
X-38573582Y21703469D01*
X-38597646Y21634701D01*
X-38597646Y21634699D01*
X-38600500Y21604269D01*
X-38600500Y20595730D01*
X-38597646Y20565300D01*
X-38597646Y20565298D01*
X-38564006Y20469163D01*
X-38552793Y20437118D01*
X-38472150Y20327850D01*
X-38394123Y20270264D01*
X-38362882Y20247207D01*
X-38362880Y20247206D01*
X-38234700Y20202353D01*
X-38204270Y20199500D01*
X-37411189Y20199500D01*
X-37344150Y20179815D01*
X-37323508Y20163181D01*
X-25267535Y8107209D01*
X-25267533Y8107206D01*
X-25199863Y8039536D01*
X-25199858Y8039532D01*
X-25125641Y7996683D01*
X-25125640Y7996682D01*
X-25084245Y7985590D01*
X-25042853Y7974499D01*
X-25042851Y7974499D01*
X-24949551Y7974499D01*
X-24949535Y7974500D01*
X9813811Y7974500D01*
X9880850Y7954815D01*
X9901492Y7938181D01*
X12500136Y5339536D01*
X12500139Y5339534D01*
X12520568Y5327740D01*
X12520569Y5327739D01*
X12574358Y5296683D01*
X12574359Y5296682D01*
X12624033Y5283372D01*
X12657147Y5274499D01*
X12657149Y5274499D01*
X12750449Y5274499D01*
X12750465Y5274500D01*
X27166324Y5274500D01*
X27233363Y5254815D01*
X27254005Y5238181D01*
X27292683Y5199502D01*
X27292686Y5199500D01*
X27406812Y5133608D01*
X27534108Y5099500D01*
X27665891Y5099500D01*
X27665892Y5099500D01*
X27729539Y5116554D01*
X27793187Y5133608D01*
X27850250Y5166554D01*
X27907314Y5199500D01*
X28000500Y5292686D01*
X28066392Y5406814D01*
X28100500Y5534108D01*
X28100500Y5665892D01*
X28066392Y5793186D01*
X28000500Y5907314D01*
X27907314Y6000500D01*
X27793186Y6066392D01*
X27665892Y6100500D01*
X27534108Y6100500D01*
X27406814Y6066392D01*
X27292686Y6000500D01*
X27292683Y6000497D01*
X27254005Y5961819D01*
X27192682Y5928334D01*
X27166324Y5925500D01*
X12886188Y5925500D01*
X12819149Y5945185D01*
X12798507Y5961819D01*
X11860187Y6900139D01*
X10199862Y8560465D01*
X10125639Y8603318D01*
X10042853Y8625500D01*
X10042851Y8625500D01*
X-24813812Y8625500D01*
X-24880851Y8645185D01*
X-24901493Y8661819D01*
X-30314350Y14074676D01*
X-8300500Y14074676D01*
X-8300500Y12325323D01*
X-8300499Y12325321D01*
X-8286950Y12257204D01*
X-8285966Y12252260D01*
X-8230601Y12169399D01*
X-8179678Y12135374D01*
X-8147739Y12114033D01*
X-8147735Y12114032D01*
X-8074678Y12099500D01*
X-8074674Y12099500D01*
X-6325321Y12099500D01*
X-6252264Y12114032D01*
X-6252260Y12114033D01*
X-6169399Y12169399D01*
X-6114033Y12252260D01*
X-6114032Y12252264D01*
X-6099500Y12325321D01*
X-6099500Y13303465D01*
X-5710500Y13303465D01*
X-5710500Y13096535D01*
X-5670130Y12893580D01*
X-5590941Y12702402D01*
X-5510820Y12582492D01*
X-5475975Y12530342D01*
X-5329657Y12384024D01*
X-5313041Y12372922D01*
X-5157598Y12269059D01*
X-5157596Y12269058D01*
X-4966420Y12189870D01*
X-4966412Y12189868D01*
X-4763469Y12149500D01*
X-4763465Y12149500D01*
X-4556530Y12149500D01*
X-4353587Y12189868D01*
X-4353579Y12189870D01*
X-4162403Y12269058D01*
X-3990342Y12384024D01*
X-3844024Y12530342D01*
X-3729058Y12702403D01*
X-3649870Y12893579D01*
X-3649868Y12893587D01*
X-3609500Y13096530D01*
X-3609500Y13303465D01*
X-3170500Y13303465D01*
X-3170500Y13096535D01*
X-3130130Y12893580D01*
X-3050941Y12702402D01*
X-2970820Y12582492D01*
X-2935975Y12530342D01*
X-2789657Y12384024D01*
X-2773041Y12372922D01*
X-2617598Y12269059D01*
X-2617596Y12269058D01*
X-2426420Y12189870D01*
X-2426412Y12189868D01*
X-2223469Y12149500D01*
X-2223465Y12149500D01*
X-2016530Y12149500D01*
X-1813587Y12189868D01*
X-1813579Y12189870D01*
X-1622403Y12269058D01*
X-1450342Y12384024D01*
X-1304024Y12530342D01*
X-1189058Y12702403D01*
X-1109870Y12893579D01*
X-1109868Y12893587D01*
X-1069500Y13096530D01*
X-1069500Y13303469D01*
X-1109868Y13506412D01*
X-1109870Y13506420D01*
X-1189058Y13697596D01*
X-1304024Y13869657D01*
X-1450342Y14015975D01*
X-1533870Y14071786D01*
X-1622402Y14130941D01*
X-1813580Y14210130D01*
X-2016530Y14250499D01*
X-2016534Y14250500D01*
X-2016535Y14250500D01*
X-2223465Y14250500D01*
X-2223466Y14250500D01*
X-2223467Y14250499D01*
X-2426420Y14210130D01*
X-2617598Y14130941D01*
X-2789655Y14015977D01*
X-2935977Y13869655D01*
X-3050941Y13697598D01*
X-3130130Y13506420D01*
X-3170500Y13303465D01*
X-3609500Y13303465D01*
X-3609500Y13303469D01*
X-3649868Y13506412D01*
X-3649870Y13506420D01*
X-3729058Y13697596D01*
X-3844024Y13869657D01*
X-3990342Y14015975D01*
X-4073870Y14071786D01*
X-4162402Y14130941D01*
X-4353580Y14210130D01*
X-4556530Y14250499D01*
X-4556534Y14250500D01*
X-4556535Y14250500D01*
X-4763465Y14250500D01*
X-4763466Y14250500D01*
X-4763467Y14250499D01*
X-4966420Y14210130D01*
X-5157598Y14130941D01*
X-5329655Y14015977D01*
X-5475977Y13869655D01*
X-5590941Y13697598D01*
X-5670130Y13506420D01*
X-5710500Y13303465D01*
X-6099500Y13303465D01*
X-6099500Y14074678D01*
X-6114032Y14147735D01*
X-6114033Y14147739D01*
X-6132405Y14175235D01*
X-6169399Y14230601D01*
X-6252260Y14285966D01*
X-6252264Y14285967D01*
X-6325323Y14300500D01*
X-6325326Y14300500D01*
X-8074674Y14300500D01*
X-8074677Y14300500D01*
X-8147735Y14285967D01*
X-8147740Y14285966D01*
X-8230601Y14230601D01*
X-8285966Y14147740D01*
X-8289174Y14131610D01*
X-8300499Y14074678D01*
X-8300500Y14074676D01*
X-30314350Y14074676D01*
X-36963181Y20723507D01*
X-36996666Y20784830D01*
X-36999500Y20811188D01*
X-36999500Y21604269D01*
X-37002353Y21634699D01*
X-37002353Y21634701D01*
X-37047206Y21762880D01*
X-37047207Y21762881D01*
X-37047207Y21762882D01*
X-37127850Y21872150D01*
X-37149132Y21887857D01*
X-37191384Y21943503D01*
X-37199500Y21987628D01*
X-37199500Y22584619D01*
X-37179815Y22651658D01*
X-37144392Y22687720D01*
X-37080448Y22730446D01*
X-37036132Y22796769D01*
X-37036131Y22796770D01*
X-37024500Y22855247D01*
X-37024500Y24344752D01*
X-37036131Y24403229D01*
X-37036132Y24403230D01*
X-37080447Y24469552D01*
X-37146769Y24513867D01*
X-37146770Y24513868D01*
X-37205247Y24525499D01*
X-37205249Y24525500D01*
X-37205252Y24525500D01*
X-38394748Y24525500D01*
X-38394751Y24525500D01*
X-38394751Y24525499D01*
X-38409568Y24522552D01*
X-38453229Y24513868D01*
X-38453229Y24513867D01*
X-38453231Y24513867D01*
X-38519552Y24469552D01*
X-38563867Y24403231D01*
X-38563867Y24403230D01*
X-38563868Y24403229D01*
X-38571363Y24365548D01*
X-38574507Y24349737D01*
X-38575499Y24344752D01*
X-38575500Y24344750D01*
X-38575500Y24324500D01*
X-38595185Y24257461D01*
X-38647989Y24211706D01*
X-38699500Y24200500D01*
X-42468001Y24200500D01*
X-42535040Y24220185D01*
X-42580795Y24272989D01*
X-42592001Y24324500D01*
X-42592001Y24484260D01*
X-42592001Y24484266D01*
X-42594854Y24514700D01*
X-42594855Y24514703D01*
X-42594855Y24514705D01*
X-42639706Y24642882D01*
X-42720349Y24752150D01*
X-42774983Y24792471D01*
X-42829617Y24832793D01*
X-42872344Y24847744D01*
X-42957798Y24877646D01*
X-42964823Y24878304D01*
X-42988233Y24880500D01*
X-44796766Y24880499D01*
X-44827200Y24877646D01*
X-44955383Y24832793D01*
X-45064650Y24752150D01*
X-45145293Y24642883D01*
X-45156960Y24609540D01*
X-45190146Y24514702D01*
X-45190146Y24514700D01*
X-45193000Y24484267D01*
X-49499500Y24484267D01*
X-49499500Y28708844D01*
X-47233000Y28708844D01*
X-47233000Y28551155D01*
X-47232999Y28551153D01*
X-47202237Y28396503D01*
X-47202235Y28396498D01*
X-47141897Y28250827D01*
X-47141890Y28250814D01*
X-47054289Y28119711D01*
X-47054286Y28119707D01*
X-46942792Y28008213D01*
X-46942788Y28008210D01*
X-46811685Y27920609D01*
X-46811672Y27920602D01*
X-46666001Y27860264D01*
X-46665989Y27860261D01*
X-46511346Y27829500D01*
X-46511342Y27829500D01*
X-46353653Y27829500D01*
X-46199010Y27860261D01*
X-46198998Y27860264D01*
X-46053327Y27920602D01*
X-46053314Y27920609D01*
X-45922211Y28008210D01*
X-45922207Y28008213D01*
X-45810713Y28119707D01*
X-45810710Y28119711D01*
X-45723109Y28250814D01*
X-45723102Y28250827D01*
X-45662764Y28396498D01*
X-45662761Y28396510D01*
X-45632000Y28551153D01*
X-45632000Y28708846D01*
X-45662761Y28863489D01*
X-45662764Y28863501D01*
X-45723102Y29009172D01*
X-45723109Y29009185D01*
X-45810710Y29140288D01*
X-45810713Y29140292D01*
X-45922207Y29251786D01*
X-45922211Y29251789D01*
X-46053314Y29339390D01*
X-46053327Y29339397D01*
X-46198998Y29399735D01*
X-46199003Y29399737D01*
X-46260358Y29411941D01*
X-46353655Y29430500D01*
X-46353658Y29430500D01*
X-46511342Y29430500D01*
X-46511345Y29430500D01*
X-46589020Y29415048D01*
X-46665997Y29399737D01*
X-46811679Y29339394D01*
X-46942789Y29251789D01*
X-47054289Y29140289D01*
X-47141894Y29009179D01*
X-47202237Y28863497D01*
X-47232999Y28708846D01*
X-47233000Y28708844D01*
X-49499500Y28708844D01*
X-49499500Y31248844D01*
X-47233000Y31248844D01*
X-47233000Y31091155D01*
X-47232999Y31091153D01*
X-47202237Y30936503D01*
X-47202235Y30936498D01*
X-47141897Y30790827D01*
X-47141890Y30790814D01*
X-47054289Y30659711D01*
X-47054286Y30659707D01*
X-46942792Y30548213D01*
X-46942788Y30548210D01*
X-46811685Y30460609D01*
X-46811672Y30460602D01*
X-46666001Y30400264D01*
X-46665989Y30400261D01*
X-46511346Y30369500D01*
X-46511342Y30369500D01*
X-46353653Y30369500D01*
X-46199010Y30400261D01*
X-46198998Y30400264D01*
X-46053327Y30460602D01*
X-46053314Y30460609D01*
X-45922211Y30548210D01*
X-45922207Y30548213D01*
X-45810713Y30659707D01*
X-45810710Y30659711D01*
X-45723109Y30790814D01*
X-45723102Y30790827D01*
X-45662764Y30936498D01*
X-45662761Y30936510D01*
X-45632000Y31091153D01*
X-45632000Y31248846D01*
X-45662761Y31403489D01*
X-45662764Y31403501D01*
X-45723102Y31549172D01*
X-45723109Y31549185D01*
X-45810710Y31680288D01*
X-45810713Y31680292D01*
X-45922207Y31791786D01*
X-45922211Y31791789D01*
X-46053314Y31879390D01*
X-46053327Y31879397D01*
X-46198998Y31939735D01*
X-46199003Y31939737D01*
X-46278491Y31955548D01*
X-46278493Y31955549D01*
X-46353656Y31970500D01*
X-46353658Y31970500D01*
X-46511342Y31970500D01*
X-46511345Y31970500D01*
X-46586505Y31955549D01*
X-46665997Y31939737D01*
X-46811679Y31879394D01*
X-46942789Y31791789D01*
X-47054289Y31680289D01*
X-47141894Y31549179D01*
X-47202237Y31403497D01*
X-47230852Y31259642D01*
X-47232999Y31248846D01*
X-47233000Y31248844D01*
X-49499500Y31248844D01*
X-49499500Y32074267D01*
X-45193000Y32074267D01*
X-45192999Y30265734D01*
X-45190146Y30235300D01*
X-45190144Y30235294D01*
X-45145293Y30107117D01*
X-45064650Y29997849D01*
X-44990623Y29943215D01*
X-44955383Y29917207D01*
X-44955381Y29917206D01*
X-44827201Y29872353D01*
X-44796771Y29869500D01*
X-44796767Y29869500D01*
X-44780651Y29869500D01*
X-44713612Y29849815D01*
X-44667857Y29797011D01*
X-44657913Y29727853D01*
X-44686938Y29664297D01*
X-44707766Y29645182D01*
X-44739713Y29621971D01*
X-44739715Y29621968D01*
X-44739719Y29621966D01*
X-44884466Y29477219D01*
X-44884468Y29477215D01*
X-44884471Y29477213D01*
X-44918409Y29430500D01*
X-45004787Y29311610D01*
X-45097720Y29129219D01*
X-45160977Y28934534D01*
X-45178246Y28825500D01*
X-45193000Y28732351D01*
X-45193000Y28527648D01*
X-45160977Y28325465D01*
X-45151461Y28296179D01*
X-45119133Y28196682D01*
X-45097718Y28130776D01*
X-45092080Y28119711D01*
X-45004787Y27948390D01*
X-45004784Y27948386D01*
X-44884471Y27782786D01*
X-44739713Y27638028D01*
X-44574113Y27517715D01*
X-44574110Y27517713D01*
X-44517153Y27488691D01*
X-44391723Y27424781D01*
X-44197034Y27361522D01*
X-44022495Y27333878D01*
X-43994852Y27329500D01*
X-43994851Y27329500D01*
X-43790149Y27329500D01*
X-43790148Y27329500D01*
X-43765829Y27333351D01*
X-43587965Y27361522D01*
X-43393276Y27424781D01*
X-43210886Y27517715D01*
X-43045286Y27638028D01*
X-42900528Y27782786D01*
X-42780215Y27948386D01*
X-42687281Y28130776D01*
X-42624022Y28325465D01*
X-42592000Y28527648D01*
X-42592000Y28732351D01*
X-42624022Y28934534D01*
X-42687281Y29129223D01*
X-42780215Y29311613D01*
X-42900528Y29477213D01*
X-43045282Y29621967D01*
X-43045284Y29621968D01*
X-43077234Y29645181D01*
X-43119900Y29700510D01*
X-43125881Y29770123D01*
X-43093276Y29831919D01*
X-43032438Y29866277D01*
X-43004357Y29869500D01*
X-42988241Y29869500D01*
X-42977437Y29870513D01*
X-42957800Y29872354D01*
X-42957797Y29872354D01*
X-42957796Y29872355D01*
X-42957794Y29872355D01*
X-42829617Y29917206D01*
X-42720349Y29997849D01*
X-42639706Y30107118D01*
X-42594853Y30235297D01*
X-42594853Y30235299D01*
X-42592000Y30265729D01*
X-42592000Y30375500D01*
X-42572315Y30442539D01*
X-42519511Y30488294D01*
X-42468000Y30499500D01*
X-38599500Y30499500D01*
X-38532461Y30479815D01*
X-38486706Y30427011D01*
X-38482650Y30416999D01*
X-38475500Y30396866D01*
X-38475500Y30355252D01*
X-38463867Y30296769D01*
X-38419552Y30230448D01*
X-38415415Y30227683D01*
X-38407650Y30205818D01*
X-38406531Y30185730D01*
X-38400520Y30166533D01*
X-38400500Y30164319D01*
X-38400500Y29487628D01*
X-38420185Y29420589D01*
X-38450866Y29387857D01*
X-38472150Y29372150D01*
X-38552793Y29262882D01*
X-38575219Y29198790D01*
X-38597646Y29134701D01*
X-38597646Y29134699D01*
X-38600500Y29104269D01*
X-38600500Y28095730D01*
X-38597646Y28065300D01*
X-38597646Y28065298D01*
X-38568024Y27980646D01*
X-38552793Y27937118D01*
X-38472150Y27827850D01*
X-38411090Y27782786D01*
X-38362882Y27747207D01*
X-38362880Y27747206D01*
X-38234700Y27702353D01*
X-38204270Y27699500D01*
X-37411189Y27699500D01*
X-37344150Y27679815D01*
X-37323508Y27663181D01*
X-33967535Y24307209D01*
X-33967533Y24307206D01*
X-33161819Y23501492D01*
X-33128334Y23440169D01*
X-33125500Y23413811D01*
X-33125500Y20742853D01*
X-33125500Y20657147D01*
X-33103318Y20574361D01*
X-33060465Y20500138D01*
X-33060462Y20500135D01*
X-28399863Y15839536D01*
X-28399855Y15839530D01*
X-28325644Y15796685D01*
X-28325640Y15796683D01*
X-28325638Y15796682D01*
X-28242853Y15774500D01*
X-28157147Y15774500D01*
X6413811Y15774500D01*
X6480850Y15754815D01*
X6501492Y15738181D01*
X14400136Y7839536D01*
X14400144Y7839530D01*
X14474355Y7796685D01*
X14474362Y7796682D01*
X14557147Y7774500D01*
X27166324Y7774500D01*
X27233363Y7754815D01*
X27254005Y7738181D01*
X27292683Y7699502D01*
X27292686Y7699500D01*
X27406812Y7633608D01*
X27534108Y7599500D01*
X27665891Y7599500D01*
X27665892Y7599500D01*
X27729539Y7616554D01*
X27793187Y7633608D01*
X27850250Y7666554D01*
X27907314Y7699500D01*
X28000500Y7792686D01*
X28066392Y7906814D01*
X28100500Y8034108D01*
X28100500Y8165892D01*
X28066392Y8293186D01*
X28000500Y8407314D01*
X27907314Y8500500D01*
X27793186Y8566392D01*
X27665892Y8600500D01*
X27534108Y8600500D01*
X27406814Y8566392D01*
X27292686Y8500500D01*
X27292683Y8500497D01*
X27254005Y8461819D01*
X27192682Y8428334D01*
X27166324Y8425500D01*
X14786189Y8425500D01*
X14719150Y8445185D01*
X14698508Y8461819D01*
X10753009Y12407318D01*
X6799862Y16360465D01*
X6725639Y16403318D01*
X6642853Y16425500D01*
X6642851Y16425500D01*
X-28013811Y16425500D01*
X-28080850Y16445185D01*
X-28101492Y16461819D01*
X-32438181Y20798508D01*
X-32471666Y20859831D01*
X-32474500Y20886189D01*
X-32474500Y23642852D01*
X-32496682Y23725638D01*
X-32496681Y23725638D01*
X-32539533Y23799858D01*
X-32539535Y23799862D01*
X-33500138Y24760465D01*
X-33507203Y24767530D01*
X-33507209Y24767535D01*
X-36963181Y28223507D01*
X-36996666Y28284830D01*
X-36999500Y28311188D01*
X-36999500Y29104269D01*
X-37002353Y29134699D01*
X-37002353Y29134701D01*
X-37047206Y29262880D01*
X-37047207Y29262881D01*
X-37047207Y29262882D01*
X-37127850Y29372150D01*
X-37149132Y29387857D01*
X-37191384Y29443503D01*
X-37199500Y29487628D01*
X-37199500Y30053988D01*
X-37179815Y30121027D01*
X-37127011Y30166782D01*
X-37099692Y30175605D01*
X-37046770Y30186132D01*
X-37046769Y30186132D01*
X-36980447Y30230447D01*
X-36936132Y30296769D01*
X-36936131Y30296770D01*
X-36924500Y30355247D01*
X-36924500Y31844752D01*
X-36936131Y31903229D01*
X-36936132Y31903230D01*
X-36980447Y31969552D01*
X-37046769Y32013867D01*
X-37046770Y32013868D01*
X-37105247Y32025499D01*
X-37105249Y32025500D01*
X-37105252Y32025500D01*
X-38294748Y32025500D01*
X-38294751Y32025500D01*
X-38294751Y32025499D01*
X-38309568Y32022552D01*
X-38353229Y32013868D01*
X-38353229Y32013867D01*
X-38353231Y32013867D01*
X-38419552Y31969552D01*
X-38463867Y31903231D01*
X-38463867Y31903230D01*
X-38463868Y31903229D01*
X-38475499Y31844752D01*
X-38475500Y31844750D01*
X-38475500Y31824500D01*
X-38495185Y31757461D01*
X-38547989Y31711706D01*
X-38599500Y31700500D01*
X-42468001Y31700500D01*
X-42535040Y31720185D01*
X-42580795Y31772989D01*
X-42592001Y31824500D01*
X-42592001Y32074260D01*
X-42592001Y32074266D01*
X-42594854Y32104700D01*
X-42594855Y32104703D01*
X-42594855Y32104705D01*
X-42639706Y32232882D01*
X-42720349Y32342150D01*
X-42774983Y32382471D01*
X-42829617Y32422793D01*
X-42872344Y32437744D01*
X-42957798Y32467646D01*
X-42964823Y32468304D01*
X-42988233Y32470500D01*
X-44796766Y32470499D01*
X-44827200Y32467646D01*
X-44955383Y32422793D01*
X-45064650Y32342150D01*
X-45145293Y32232883D01*
X-45167719Y32168791D01*
X-45190146Y32104702D01*
X-45190146Y32104700D01*
X-45193000Y32074267D01*
X-49499500Y32074267D01*
X-49499500Y36298844D01*
X-47233000Y36298844D01*
X-47233000Y36141155D01*
X-47232999Y36141153D01*
X-47202237Y35986503D01*
X-47202235Y35986498D01*
X-47141897Y35840827D01*
X-47141890Y35840814D01*
X-47054289Y35709711D01*
X-47054286Y35709707D01*
X-46942792Y35598213D01*
X-46942788Y35598210D01*
X-46811685Y35510609D01*
X-46811672Y35510602D01*
X-46666001Y35450264D01*
X-46665989Y35450261D01*
X-46511346Y35419500D01*
X-46511342Y35419500D01*
X-46353653Y35419500D01*
X-46199010Y35450261D01*
X-46198998Y35450264D01*
X-46053327Y35510602D01*
X-46053314Y35510609D01*
X-45922211Y35598210D01*
X-45922207Y35598213D01*
X-45810713Y35709707D01*
X-45810710Y35709711D01*
X-45723109Y35840814D01*
X-45723102Y35840827D01*
X-45662764Y35986498D01*
X-45662761Y35986510D01*
X-45632000Y36141153D01*
X-45632000Y36298846D01*
X-45662761Y36453489D01*
X-45662764Y36453501D01*
X-45723102Y36599172D01*
X-45723109Y36599185D01*
X-45810710Y36730288D01*
X-45810713Y36730292D01*
X-45922207Y36841786D01*
X-45922211Y36841789D01*
X-46053314Y36929390D01*
X-46053327Y36929397D01*
X-46198998Y36989735D01*
X-46199003Y36989737D01*
X-46260358Y37001941D01*
X-46353655Y37020500D01*
X-46353658Y37020500D01*
X-46511342Y37020500D01*
X-46511345Y37020500D01*
X-46589020Y37005048D01*
X-46665997Y36989737D01*
X-46811679Y36929394D01*
X-46942789Y36841789D01*
X-47054289Y36730289D01*
X-47141894Y36599179D01*
X-47202237Y36453497D01*
X-47229609Y36315890D01*
X-47232999Y36298846D01*
X-47233000Y36298844D01*
X-49499500Y36298844D01*
X-49499500Y38838844D01*
X-47233000Y38838844D01*
X-47233000Y38681155D01*
X-47232999Y38681153D01*
X-47202237Y38526503D01*
X-47202235Y38526498D01*
X-47141897Y38380827D01*
X-47141890Y38380814D01*
X-47054289Y38249711D01*
X-47054286Y38249707D01*
X-46942792Y38138213D01*
X-46942788Y38138210D01*
X-46811685Y38050609D01*
X-46811672Y38050602D01*
X-46666001Y37990264D01*
X-46665989Y37990261D01*
X-46511346Y37959500D01*
X-46511342Y37959500D01*
X-46353653Y37959500D01*
X-46199010Y37990261D01*
X-46198998Y37990264D01*
X-46053327Y38050602D01*
X-46053314Y38050609D01*
X-45922211Y38138210D01*
X-45922207Y38138213D01*
X-45810713Y38249707D01*
X-45810710Y38249711D01*
X-45723109Y38380814D01*
X-45723102Y38380827D01*
X-45662764Y38526498D01*
X-45662761Y38526510D01*
X-45632000Y38681153D01*
X-45632000Y38838846D01*
X-45662761Y38993489D01*
X-45662764Y38993501D01*
X-45723102Y39139172D01*
X-45723109Y39139185D01*
X-45810710Y39270288D01*
X-45810713Y39270292D01*
X-45922207Y39381786D01*
X-45922211Y39381789D01*
X-46053314Y39469390D01*
X-46053327Y39469397D01*
X-46198998Y39529735D01*
X-46199003Y39529737D01*
X-46278491Y39545548D01*
X-46278493Y39545549D01*
X-46353656Y39560500D01*
X-46353658Y39560500D01*
X-46511342Y39560500D01*
X-46511345Y39560500D01*
X-46586505Y39545549D01*
X-46665997Y39529737D01*
X-46811679Y39469394D01*
X-46942789Y39381789D01*
X-47054289Y39270289D01*
X-47141894Y39139179D01*
X-47202237Y38993497D01*
X-47232999Y38838846D01*
X-47233000Y38838844D01*
X-49499500Y38838844D01*
X-49499500Y39664267D01*
X-45193000Y39664267D01*
X-45192999Y37855734D01*
X-45190146Y37825300D01*
X-45190144Y37825294D01*
X-45145293Y37697117D01*
X-45064650Y37587849D01*
X-44992636Y37534701D01*
X-44955383Y37507207D01*
X-44955381Y37507206D01*
X-44827201Y37462353D01*
X-44796771Y37459500D01*
X-44796767Y37459500D01*
X-44780651Y37459500D01*
X-44713612Y37439815D01*
X-44667857Y37387011D01*
X-44657913Y37317853D01*
X-44686938Y37254297D01*
X-44707766Y37235182D01*
X-44739713Y37211971D01*
X-44739715Y37211968D01*
X-44739719Y37211966D01*
X-44884466Y37067219D01*
X-44884468Y37067215D01*
X-44884471Y37067213D01*
X-44918409Y37020500D01*
X-45004787Y36901610D01*
X-45097720Y36719219D01*
X-45160977Y36524534D01*
X-45175397Y36433488D01*
X-45193000Y36322351D01*
X-45193000Y36117648D01*
X-45160977Y35915465D01*
X-45152112Y35888181D01*
X-45100896Y35730555D01*
X-45097718Y35720776D01*
X-45072194Y35670683D01*
X-45004787Y35538390D01*
X-45004784Y35538386D01*
X-44884471Y35372786D01*
X-44739713Y35228028D01*
X-44617910Y35139535D01*
X-44574110Y35107713D01*
X-44552466Y35096685D01*
X-44391723Y35014781D01*
X-44197034Y34951522D01*
X-44022495Y34923878D01*
X-43994852Y34919500D01*
X-43994851Y34919500D01*
X-43790149Y34919500D01*
X-43790148Y34919500D01*
X-43765829Y34923351D01*
X-43587965Y34951522D01*
X-43393276Y35014781D01*
X-43210886Y35107715D01*
X-43045286Y35228028D01*
X-42900528Y35372786D01*
X-42780215Y35538386D01*
X-42687281Y35720776D01*
X-42624022Y35915465D01*
X-42592000Y36117648D01*
X-42592000Y36322351D01*
X-42624022Y36524534D01*
X-42687281Y36719223D01*
X-42780215Y36901613D01*
X-42900528Y37067213D01*
X-43045282Y37211967D01*
X-43045284Y37211968D01*
X-43077234Y37235181D01*
X-43119900Y37290510D01*
X-43125881Y37360123D01*
X-43093276Y37421919D01*
X-43032438Y37456277D01*
X-43004357Y37459500D01*
X-42988241Y37459500D01*
X-42977437Y37460513D01*
X-42957800Y37462354D01*
X-42957797Y37462354D01*
X-42957796Y37462355D01*
X-42957794Y37462355D01*
X-42829617Y37507206D01*
X-42720349Y37587849D01*
X-42639706Y37697118D01*
X-42594853Y37825297D01*
X-42594853Y37825299D01*
X-42592000Y37855729D01*
X-42592000Y38175500D01*
X-42572315Y38242539D01*
X-42519511Y38288294D01*
X-42468000Y38299500D01*
X-38749500Y38299500D01*
X-38682461Y38279815D01*
X-38636706Y38227011D01*
X-38625500Y38175500D01*
X-38625500Y38155249D01*
X-38625499Y38155247D01*
X-38613868Y38096770D01*
X-38613867Y38096769D01*
X-38569551Y38030446D01*
X-38505608Y37987720D01*
X-38460804Y37934108D01*
X-38450500Y37884619D01*
X-38450500Y37280099D01*
X-38470185Y37213060D01*
X-38522989Y37167305D01*
X-38533525Y37163065D01*
X-38562882Y37152793D01*
X-38672150Y37072150D01*
X-38752793Y36962882D01*
X-38764510Y36929397D01*
X-38797646Y36834701D01*
X-38797646Y36834699D01*
X-38800500Y36804269D01*
X-38800500Y35795730D01*
X-38797646Y35765300D01*
X-38797646Y35765298D01*
X-38771496Y35690567D01*
X-38752793Y35637118D01*
X-38672150Y35527850D01*
X-38576353Y35457149D01*
X-38562882Y35447207D01*
X-38562880Y35447206D01*
X-38434700Y35402353D01*
X-38404270Y35399500D01*
X-37611189Y35399500D01*
X-37544150Y35379815D01*
X-37523508Y35363181D01*
X-18999863Y16839536D01*
X-18999855Y16839530D01*
X-18925644Y16796685D01*
X-18925640Y16796683D01*
X-18925638Y16796682D01*
X-18842853Y16774500D01*
X-18757147Y16774500D01*
X30013811Y16774500D01*
X30080850Y16754815D01*
X30101492Y16738181D01*
X34038181Y12801492D01*
X34071666Y12740169D01*
X34074500Y12713811D01*
X34074500Y12433676D01*
X34054815Y12366637D01*
X34038181Y12345995D01*
X33999500Y12307314D01*
X33970569Y12257204D01*
X33933608Y12193187D01*
X33920834Y12145513D01*
X33909775Y12104237D01*
X33899500Y12065891D01*
X33899500Y11934108D01*
X33933608Y11806812D01*
X33999500Y11692686D01*
X33999502Y11692683D01*
X34092683Y11599502D01*
X34092686Y11599500D01*
X34206812Y11533608D01*
X34334108Y11499500D01*
X34465891Y11499500D01*
X34465892Y11499500D01*
X34529539Y11516554D01*
X34593187Y11533608D01*
X34650250Y11566554D01*
X34707314Y11599500D01*
X34800500Y11692686D01*
X34866392Y11806814D01*
X34890225Y11895762D01*
X34926590Y11955423D01*
X34989437Y11985952D01*
X35058812Y11977657D01*
X35112690Y11933172D01*
X35129774Y11895763D01*
X35131651Y11888761D01*
X35153608Y11806812D01*
X35219500Y11692686D01*
X35219502Y11692683D01*
X35312683Y11599502D01*
X35312686Y11599500D01*
X35426812Y11533608D01*
X35554108Y11499500D01*
X35685891Y11499500D01*
X35685892Y11499500D01*
X35749539Y11516554D01*
X35813187Y11533608D01*
X35870250Y11566554D01*
X35927314Y11599500D01*
X36020500Y11692686D01*
X36086392Y11806814D01*
X36120500Y11934108D01*
X36120500Y12065892D01*
X36086392Y12193186D01*
X36020500Y12307314D01*
X35981819Y12345995D01*
X35967115Y12372922D01*
X35950523Y12398741D01*
X35949631Y12404941D01*
X35948334Y12407318D01*
X35945500Y12433676D01*
X35945500Y12494811D01*
X35965185Y12561850D01*
X36017989Y12607605D01*
X36087147Y12617549D01*
X36150703Y12588524D01*
X36157181Y12582492D01*
X36401304Y12338368D01*
X36434789Y12277045D01*
X36429805Y12207353D01*
X36426678Y12200717D01*
X36426720Y12200700D01*
X36423609Y12193188D01*
X36423608Y12193186D01*
X36390842Y12070901D01*
X36389500Y12065891D01*
X36389500Y11934108D01*
X36423608Y11806812D01*
X36489500Y11692686D01*
X36489502Y11692683D01*
X36582683Y11599502D01*
X36582686Y11599500D01*
X36696812Y11533608D01*
X36824108Y11499500D01*
X36955891Y11499500D01*
X36955892Y11499500D01*
X37019539Y11516554D01*
X37083187Y11533608D01*
X37140250Y11566554D01*
X37197314Y11599500D01*
X37290500Y11692686D01*
X37356392Y11806814D01*
X37390500Y11934108D01*
X37390500Y12065892D01*
X37369983Y12142462D01*
X37370055Y12145513D01*
X37368592Y12148194D01*
X37370881Y12180214D01*
X37371646Y12212308D01*
X37373357Y12214837D01*
X37373576Y12217886D01*
X37392817Y12243588D01*
X37410808Y12270170D01*
X37413616Y12271372D01*
X37415448Y12273819D01*
X37445525Y12285037D01*
X37475036Y12297675D01*
X37478049Y12297168D01*
X37480912Y12298236D01*
X37512278Y12291412D01*
X37543938Y12286089D01*
X37547099Y12283837D01*
X37549185Y12283384D01*
X37577439Y12262233D01*
X37664902Y12174770D01*
X37698387Y12113447D01*
X37700160Y12070901D01*
X37699501Y12065895D01*
X37699500Y12065892D01*
X37699500Y12065891D01*
X37699500Y12065888D01*
X37699500Y11934108D01*
X37733608Y11806812D01*
X37799500Y11692686D01*
X37799502Y11692683D01*
X37892683Y11599502D01*
X37892686Y11599500D01*
X38006812Y11533608D01*
X38134108Y11499500D01*
X38265891Y11499500D01*
X38265892Y11499500D01*
X38329539Y11516554D01*
X38393187Y11533608D01*
X38450250Y11566554D01*
X38507314Y11599500D01*
X38600500Y11692686D01*
X38666392Y11806814D01*
X38700500Y11934108D01*
X38700500Y12039811D01*
X38706738Y12061056D01*
X38708318Y12083145D01*
X38716390Y12093928D01*
X38720185Y12106850D01*
X38736918Y12121349D01*
X38750190Y12139078D01*
X38762810Y12143785D01*
X38772989Y12152605D01*
X38794906Y12155756D01*
X38815654Y12163495D01*
X38828814Y12160632D01*
X38842147Y12162549D01*
X38862290Y12153349D01*
X38883927Y12148643D01*
X38901652Y12135374D01*
X38905703Y12133524D01*
X38912181Y12127492D01*
X38963181Y12076492D01*
X38996666Y12015169D01*
X38999500Y11988811D01*
X38999500Y11934108D01*
X39033608Y11806812D01*
X39099500Y11692686D01*
X39099502Y11692683D01*
X39192683Y11599502D01*
X39192686Y11599500D01*
X39306812Y11533608D01*
X39434108Y11499500D01*
X39565891Y11499500D01*
X39565892Y11499500D01*
X39629539Y11516554D01*
X39693187Y11533608D01*
X39750250Y11566554D01*
X39807314Y11599500D01*
X39900500Y11692686D01*
X39966392Y11806814D01*
X39980225Y11858441D01*
X40016590Y11918102D01*
X40079437Y11948631D01*
X40148812Y11940336D01*
X40202690Y11895851D01*
X40219775Y11858441D01*
X40233608Y11806812D01*
X40299500Y11692686D01*
X40299502Y11692683D01*
X40392683Y11599502D01*
X40392686Y11599500D01*
X40506812Y11533608D01*
X40634108Y11499500D01*
X40765891Y11499500D01*
X40765892Y11499500D01*
X40829539Y11516554D01*
X40893187Y11533608D01*
X40950250Y11566554D01*
X41007314Y11599500D01*
X41100500Y11692686D01*
X41166392Y11806814D01*
X41200500Y11934108D01*
X41200500Y11934110D01*
X41202603Y11941958D01*
X41205446Y11941195D01*
X41206436Y11955026D01*
X41219267Y11972166D01*
X41227923Y11991747D01*
X41239788Y11999578D01*
X41248308Y12010959D01*
X41268365Y12018440D01*
X41286236Y12030235D01*
X41300452Y12030408D01*
X41313772Y12035376D01*
X41334691Y12030825D01*
X41356101Y12031086D01*
X41369480Y12023257D01*
X41382045Y12020524D01*
X41410299Y11999373D01*
X41443785Y11965887D01*
X41475879Y11910300D01*
X41486165Y11871911D01*
X41496545Y11833172D01*
X41503609Y11806812D01*
X41569500Y11692686D01*
X41569502Y11692683D01*
X41662683Y11599502D01*
X41662686Y11599500D01*
X41776812Y11533608D01*
X41904108Y11499500D01*
X42035891Y11499500D01*
X42035892Y11499500D01*
X42099539Y11516554D01*
X42163187Y11533608D01*
X42220250Y11566554D01*
X42277314Y11599500D01*
X42370500Y11692686D01*
X42436392Y11806814D01*
X42443454Y11833173D01*
X42446613Y11838356D01*
X42447047Y11844414D01*
X42464587Y11867844D01*
X42479818Y11892833D01*
X42485280Y11895486D01*
X42488919Y11900347D01*
X42516335Y11910573D01*
X42542664Y11923363D01*
X42548694Y11922642D01*
X42554383Y11924764D01*
X42582978Y11918543D01*
X42612040Y11915069D01*
X42618240Y11910872D01*
X42622656Y11909912D01*
X42650910Y11888761D01*
X42723086Y11816585D01*
X42742791Y11790905D01*
X42799495Y11692692D01*
X42799502Y11692683D01*
X42892683Y11599502D01*
X42892686Y11599500D01*
X43006812Y11533608D01*
X43134108Y11499500D01*
X43265891Y11499500D01*
X43265892Y11499500D01*
X43329539Y11516554D01*
X43393187Y11533608D01*
X43450250Y11566554D01*
X43507314Y11599500D01*
X43600500Y11692686D01*
X43666392Y11806814D01*
X43700500Y11934108D01*
X43700500Y12065892D01*
X43666392Y12193186D01*
X43666390Y12193189D01*
X43665343Y12197097D01*
X43667006Y12266947D01*
X43706168Y12324810D01*
X43770397Y12352314D01*
X43839299Y12340728D01*
X43872799Y12316872D01*
X44135706Y12053965D01*
X44169191Y11992642D01*
X44167800Y11934192D01*
X44149500Y11865893D01*
X44149500Y11734108D01*
X44183608Y11606812D01*
X44249500Y11492686D01*
X44249502Y11492683D01*
X44342683Y11399502D01*
X44342686Y11399500D01*
X44456812Y11333608D01*
X44584108Y11299500D01*
X44715891Y11299500D01*
X44715892Y11299500D01*
X44779539Y11316554D01*
X44843187Y11333608D01*
X44900250Y11366554D01*
X44957314Y11399500D01*
X45050500Y11492686D01*
X45116392Y11606814D01*
X45150500Y11734108D01*
X45150500Y11865892D01*
X45116392Y11993186D01*
X45050500Y12107314D01*
X44957314Y12200500D01*
X44859092Y12257207D01*
X44833418Y12276907D01*
X32873502Y24236824D01*
X32840018Y24298146D01*
X32845002Y24367838D01*
X32886874Y24423771D01*
X32952338Y24448188D01*
X33020611Y24433336D01*
X33023184Y24431891D01*
X33106810Y24383609D01*
X33106814Y24383608D01*
X33234108Y24349500D01*
X33365891Y24349500D01*
X33365892Y24349500D01*
X33481587Y24380500D01*
X33493187Y24383608D01*
X33550250Y24416554D01*
X33607314Y24449500D01*
X33700500Y24542686D01*
X33701020Y24543206D01*
X33734244Y24565406D01*
X33733951Y24565915D01*
X33809507Y24609537D01*
X33809512Y24609541D01*
X34230800Y25030829D01*
X34292123Y25064314D01*
X34318481Y25067148D01*
X34396773Y25067148D01*
X34396774Y25067148D01*
X34460421Y25084202D01*
X34524069Y25101256D01*
X34621161Y25157313D01*
X34638196Y25167148D01*
X34731382Y25260334D01*
X34797274Y25374462D01*
X34831382Y25501756D01*
X34831382Y25633540D01*
X34797274Y25760834D01*
X34731382Y25874962D01*
X34638196Y25968148D01*
X34524068Y26034040D01*
X34396774Y26068148D01*
X34264990Y26068148D01*
X34137696Y26034040D01*
X34023568Y25968148D01*
X33930382Y25874962D01*
X33897436Y25817898D01*
X33864490Y25760835D01*
X33830382Y25633539D01*
X33830382Y25531715D01*
X33821737Y25502274D01*
X33815214Y25472288D01*
X33811459Y25467272D01*
X33810697Y25464676D01*
X33794063Y25444034D01*
X33670292Y25320263D01*
X33608969Y25286778D01*
X33539277Y25291762D01*
X33520618Y25300553D01*
X33493186Y25316392D01*
X33365892Y25350500D01*
X33234108Y25350500D01*
X33106814Y25316392D01*
X32992686Y25250500D01*
X32899500Y25157314D01*
X32867135Y25101256D01*
X32833608Y25043187D01*
X32799500Y24915891D01*
X32799500Y24784108D01*
X32833609Y24656811D01*
X32833609Y24656810D01*
X32881891Y24573184D01*
X32898364Y24505284D01*
X32875511Y24439257D01*
X32820590Y24396066D01*
X32751037Y24389425D01*
X32688934Y24421441D01*
X32686857Y24423468D01*
X29849862Y27260465D01*
X29775639Y27303318D01*
X29692853Y27325500D01*
X29692851Y27325500D01*
X25283676Y27325500D01*
X25216637Y27345185D01*
X25195995Y27361819D01*
X25157314Y27400500D01*
X25043186Y27466392D01*
X24915892Y27500500D01*
X24784108Y27500500D01*
X24656814Y27466392D01*
X24542686Y27400500D01*
X24449500Y27307314D01*
X24422452Y27260465D01*
X24383608Y27193187D01*
X24349500Y27065891D01*
X24349500Y26934108D01*
X24383608Y26806812D01*
X24449500Y26692686D01*
X24449502Y26692683D01*
X24542683Y26599502D01*
X24542686Y26599500D01*
X24656812Y26533608D01*
X24784108Y26499500D01*
X24915891Y26499500D01*
X24915892Y26499500D01*
X24979539Y26516554D01*
X25043187Y26533608D01*
X25100250Y26566554D01*
X25157314Y26599500D01*
X25195995Y26638181D01*
X25257318Y26671666D01*
X25283676Y26674500D01*
X29463811Y26674500D01*
X29530850Y26654815D01*
X29551492Y26638181D01*
X43516872Y12672799D01*
X43550357Y12611476D01*
X43545373Y12541784D01*
X43503501Y12485851D01*
X43438037Y12461434D01*
X43397097Y12465343D01*
X43393189Y12466390D01*
X43393186Y12466392D01*
X43265892Y12500500D01*
X43134108Y12500500D01*
X43065803Y12482198D01*
X42995958Y12483861D01*
X42946035Y12514290D01*
X30299862Y25160465D01*
X30225639Y25203318D01*
X30142853Y25225500D01*
X30142851Y25225500D01*
X12186189Y25225500D01*
X12119150Y25245185D01*
X12098508Y25261819D01*
X9394589Y27965738D01*
X1230756Y36129569D01*
X1217017Y36154730D01*
X1200709Y36178316D01*
X1200663Y36179678D01*
X30155749Y36179678D01*
X30180747Y36054011D01*
X30180749Y36054005D01*
X30229783Y35935625D01*
X30229791Y35935611D01*
X30284852Y35853207D01*
X30305730Y35786530D01*
X30305750Y35784317D01*
X30305750Y31127858D01*
X30339858Y31000562D01*
X30405750Y30886436D01*
X30405752Y30886433D01*
X33206760Y28085425D01*
X33206763Y28085423D01*
X33320889Y28019531D01*
X33448185Y27985423D01*
X33490567Y27985423D01*
X33557606Y27965738D01*
X33559458Y27964525D01*
X33641865Y27909461D01*
X33641874Y27909456D01*
X33760254Y27860422D01*
X33760260Y27860420D01*
X33885928Y27835423D01*
X33885930Y27835423D01*
X34014070Y27835423D01*
X34139737Y27860420D01*
X34139743Y27860422D01*
X34258123Y27909456D01*
X34258132Y27909461D01*
X34364667Y27980646D01*
X34364671Y27980649D01*
X34455272Y28071250D01*
X34455275Y28071254D01*
X34526460Y28177789D01*
X34526465Y28177798D01*
X34556712Y28250821D01*
X34575500Y28296179D01*
X34594838Y28393394D01*
X34627223Y28455305D01*
X34628774Y28456884D01*
X36500497Y30328607D01*
X36500500Y30328610D01*
X36566392Y30442738D01*
X36600500Y30570032D01*
X36600500Y30701817D01*
X36600500Y31302975D01*
X36620185Y31370014D01*
X36636819Y31390656D01*
X39302972Y34056810D01*
X39302983Y34056820D01*
X39346301Y34100138D01*
X39400500Y34154337D01*
X39466392Y34268465D01*
X39500500Y34395759D01*
X39500500Y35690567D01*
X39520185Y35757606D01*
X39521398Y35759457D01*
X39576458Y35841861D01*
X39576466Y35841875D01*
X39595646Y35888181D01*
X39625501Y35960256D01*
X39625502Y35960261D01*
X39650500Y36085928D01*
X39650500Y36214071D01*
X39628961Y36322351D01*
X39625501Y36339744D01*
X39576465Y36458127D01*
X39505276Y36564669D01*
X39414669Y36655276D01*
X39308127Y36726465D01*
X39189744Y36775501D01*
X39148615Y36783682D01*
X39064071Y36800500D01*
X39064069Y36800500D01*
X38935931Y36800500D01*
X38935929Y36800500D01*
X38810261Y36775502D01*
X38810256Y36775501D01*
X38746340Y36749026D01*
X38691875Y36726466D01*
X38691866Y36726461D01*
X38585331Y36655276D01*
X38585327Y36655273D01*
X38494726Y36564672D01*
X38494723Y36564668D01*
X38423538Y36458133D01*
X38423533Y36458124D01*
X38374499Y36339744D01*
X38374497Y36339738D01*
X38349500Y36214071D01*
X38349500Y36085928D01*
X38349499Y36085928D01*
X38374497Y35960261D01*
X38374499Y35960255D01*
X38423533Y35841875D01*
X38423541Y35841861D01*
X38478602Y35759457D01*
X38499480Y35692780D01*
X38499500Y35690567D01*
X38499500Y34720326D01*
X38479815Y34653287D01*
X38463181Y34632645D01*
X35792686Y31962151D01*
X35699500Y31868965D01*
X35673828Y31824500D01*
X35633608Y31754838D01*
X35599500Y31627542D01*
X35599500Y30894600D01*
X35579815Y30827561D01*
X35563181Y30806919D01*
X33920960Y29164698D01*
X33907039Y29156668D01*
X33897733Y29146447D01*
X33871817Y29136351D01*
X33865278Y29132579D01*
X33861405Y29131544D01*
X33760255Y29111424D01*
X33713377Y29092006D01*
X33705477Y29089896D01*
X33678395Y29090562D01*
X33651463Y29087666D01*
X33643986Y29091408D01*
X33635628Y29091614D01*
X33613207Y29106814D01*
X33588983Y29118940D01*
X33585826Y29121986D01*
X31343067Y31364746D01*
X31309584Y31426067D01*
X31306750Y31452425D01*
X31306750Y35784317D01*
X31326435Y35851356D01*
X31327648Y35853207D01*
X31382708Y35935611D01*
X31382716Y35935625D01*
X31403793Y35986510D01*
X31431751Y36054006D01*
X31438101Y36085928D01*
X31456750Y36179678D01*
X31456750Y36307821D01*
X31438448Y36399827D01*
X31438448Y36399828D01*
X31436561Y36409308D01*
X31435252Y36415891D01*
X33124500Y36415891D01*
X33124500Y36284108D01*
X33158608Y36156812D01*
X33224500Y36042686D01*
X33224502Y36042683D01*
X33317683Y35949502D01*
X33317686Y35949500D01*
X33431812Y35883608D01*
X33559108Y35849500D01*
X33690891Y35849500D01*
X33690892Y35849500D01*
X33818186Y35883608D01*
X33860238Y35907887D01*
X33922238Y35924500D01*
X34666324Y35924500D01*
X34733363Y35904815D01*
X34754005Y35888181D01*
X34792683Y35849502D01*
X34792686Y35849500D01*
X34906812Y35783608D01*
X35034108Y35749500D01*
X35165891Y35749500D01*
X35165892Y35749500D01*
X35229539Y35766554D01*
X35293187Y35783608D01*
X35392269Y35840814D01*
X35407314Y35849500D01*
X35500500Y35942686D01*
X35566392Y36056814D01*
X35600500Y36184108D01*
X35600500Y36315892D01*
X35566392Y36443186D01*
X35500500Y36557314D01*
X35407314Y36650500D01*
X35293186Y36716392D01*
X35165892Y36750500D01*
X35034108Y36750500D01*
X34906814Y36716392D01*
X34792686Y36650500D01*
X34792683Y36650497D01*
X34754005Y36611819D01*
X34692682Y36578334D01*
X34666324Y36575500D01*
X34144327Y36575500D01*
X34077288Y36595185D01*
X34036940Y36637500D01*
X34026678Y36655273D01*
X34025500Y36657314D01*
X33932314Y36750500D01*
X33818186Y36816392D01*
X33690892Y36850500D01*
X33559108Y36850500D01*
X33431814Y36816392D01*
X33317686Y36750500D01*
X33224500Y36657314D01*
X33204982Y36623508D01*
X33158608Y36543187D01*
X33158608Y36543186D01*
X33129217Y36433494D01*
X33124500Y36415891D01*
X31435252Y36415891D01*
X31431751Y36433494D01*
X31382715Y36551877D01*
X31311526Y36658419D01*
X31220919Y36749026D01*
X31114377Y36820215D01*
X30995994Y36869251D01*
X30954865Y36877432D01*
X30870321Y36894250D01*
X30870319Y36894250D01*
X30742181Y36894250D01*
X30742179Y36894250D01*
X30616511Y36869252D01*
X30616506Y36869251D01*
X30550207Y36841789D01*
X30498125Y36820216D01*
X30498116Y36820211D01*
X30391581Y36749026D01*
X30391577Y36749023D01*
X30300976Y36658422D01*
X30300973Y36658418D01*
X30229788Y36551883D01*
X30229783Y36551874D01*
X30180749Y36433494D01*
X30180747Y36433488D01*
X30155750Y36307821D01*
X30155750Y36179678D01*
X30155749Y36179678D01*
X1200663Y36179678D01*
X1200482Y36185011D01*
X1197273Y36190890D01*
X1199318Y36219487D01*
X1198350Y36248146D01*
X1201901Y36255616D01*
X1202257Y36260582D01*
X1211919Y36280727D01*
X1215040Y36285964D01*
X1252793Y36337118D01*
X1297646Y36465301D01*
X1300500Y36495734D01*
X1300500Y37504266D01*
X1300224Y37507206D01*
X1297646Y37534699D01*
X1297646Y37534701D01*
X1275219Y37598790D01*
X1252793Y37662882D01*
X1172150Y37772150D01*
X1062882Y37852793D01*
X971928Y37884619D01*
X934700Y37897646D01*
X904270Y37900500D01*
X904266Y37900500D01*
X95734Y37900500D01*
X95730Y37900500D01*
X65300Y37897646D01*
X65298Y37897646D01*
X-8549Y37871805D01*
X-62882Y37852793D01*
X-172150Y37772150D01*
X-252793Y37662882D01*
X-275219Y37598790D01*
X-297646Y37534701D01*
X-297646Y37534699D01*
X-300500Y37504269D01*
X-300500Y36495730D01*
X-297646Y36465300D01*
X-297646Y36465298D01*
X-264006Y36369163D01*
X-252793Y36337118D01*
X-172150Y36227850D01*
X-105753Y36178847D01*
X-62882Y36147207D01*
X-62880Y36147206D01*
X65299Y36102353D01*
X95730Y36099500D01*
X95734Y36099500D01*
X288811Y36099500D01*
X355850Y36079815D01*
X376492Y36063181D01*
X11800135Y24639537D01*
X11800138Y24639535D01*
X11874359Y24596682D01*
X11957147Y24574500D01*
X29913811Y24574500D01*
X29980850Y24554815D01*
X30001492Y24538181D01*
X30202492Y24337181D01*
X30235977Y24275858D01*
X30230993Y24206166D01*
X30189121Y24150233D01*
X30123657Y24125816D01*
X30114811Y24125500D01*
X11486189Y24125500D01*
X11419150Y24145185D01*
X11398508Y24161819D01*
X-674135Y36234462D01*
X-674138Y36234465D01*
X-675829Y36235441D01*
X-676969Y36236637D01*
X-680587Y36239413D01*
X-680154Y36239976D01*
X-724047Y36286004D01*
X-737274Y36354610D01*
X-730877Y36383785D01*
X-702353Y36465301D01*
X-699500Y36495730D01*
X-699500Y37504269D01*
X-702353Y37534699D01*
X-702353Y37534701D01*
X-747206Y37662880D01*
X-747207Y37662882D01*
X-827850Y37772150D01*
X-937118Y37852793D01*
X-991451Y37871805D01*
X-1065298Y37897646D01*
X-1072670Y37899256D01*
X-1072206Y37901379D01*
X-1126982Y37923198D01*
X-1167609Y37980041D01*
X-1174500Y38020802D01*
X-1174500Y39170765D01*
X30534500Y39170765D01*
X30534500Y39019234D01*
X30573719Y38872863D01*
X30649485Y38741635D01*
X30649487Y38741632D01*
X30756632Y38634487D01*
X30756635Y38634485D01*
X30887863Y38558719D01*
X31034234Y38519500D01*
X31185765Y38519500D01*
X31185766Y38519500D01*
X31271750Y38542539D01*
X31332136Y38558719D01*
X31407713Y38602354D01*
X31463365Y38634485D01*
X31570515Y38741635D01*
X31646281Y38872865D01*
X31685500Y39019234D01*
X31685500Y39170765D01*
X36314500Y39170765D01*
X36314500Y39019234D01*
X36353719Y38872863D01*
X36429485Y38741635D01*
X36429487Y38741632D01*
X36536632Y38634487D01*
X36536635Y38634485D01*
X36667863Y38558719D01*
X36814234Y38519500D01*
X36965765Y38519500D01*
X36965766Y38519500D01*
X37051750Y38542539D01*
X37112136Y38558719D01*
X37187713Y38602354D01*
X37243365Y38634485D01*
X37350515Y38741635D01*
X37426281Y38872865D01*
X37465500Y39019234D01*
X37465500Y39170766D01*
X37426281Y39317135D01*
X37350515Y39448365D01*
X37243365Y39555515D01*
X37112135Y39631281D01*
X36965766Y39670500D01*
X36814234Y39670500D01*
X36667865Y39631281D01*
X36536635Y39555515D01*
X36429485Y39448365D01*
X36391602Y39382750D01*
X36353719Y39317136D01*
X36314500Y39170765D01*
X31685500Y39170765D01*
X31685500Y39170766D01*
X31646281Y39317135D01*
X31570515Y39448365D01*
X31463365Y39555515D01*
X31332135Y39631281D01*
X31185766Y39670500D01*
X31034234Y39670500D01*
X30887865Y39631281D01*
X30756635Y39555515D01*
X30649485Y39448365D01*
X30611602Y39382750D01*
X30573719Y39317136D01*
X30534500Y39170765D01*
X-1174500Y39170765D01*
X-1174500Y39693810D01*
X-1165855Y39723250D01*
X-1159332Y39753237D01*
X-1155577Y39758252D01*
X-1154815Y39760849D01*
X-1138181Y39781491D01*
X-1057104Y39862568D01*
X-995781Y39896053D01*
X-926089Y39891069D01*
X-921971Y39889448D01*
X-826424Y39849871D01*
X-826412Y39849868D01*
X-623469Y39809500D01*
X-623465Y39809500D01*
X-416530Y39809500D01*
X-213587Y39849868D01*
X-213579Y39849870D01*
X-22403Y39929058D01*
X149657Y40044024D01*
X295975Y40190342D01*
X302762Y40200500D01*
X410941Y40362402D01*
X490130Y40553580D01*
X530500Y40756535D01*
X530500Y40963465D01*
X490130Y41166420D01*
X410941Y41357598D01*
X295977Y41529655D01*
X149655Y41675977D01*
X-22402Y41790941D01*
X-213580Y41870130D01*
X-416530Y41910499D01*
X-416534Y41910500D01*
X-416535Y41910500D01*
X-623465Y41910500D01*
X-623466Y41910500D01*
X-623467Y41910499D01*
X-826420Y41870130D01*
X-1017598Y41790941D01*
X-1189655Y41675977D01*
X-1335977Y41529655D01*
X-1450941Y41357598D01*
X-1530130Y41166420D01*
X-1570500Y40963465D01*
X-1570500Y40756535D01*
X-1530130Y40553580D01*
X-1490551Y40458029D01*
X-1483082Y40388560D01*
X-1514357Y40326080D01*
X-1517398Y40322927D01*
X-1760465Y40079862D01*
X-1803318Y40005639D01*
X-1814773Y39962883D01*
X-1814774Y39962883D01*
X-1817040Y39954423D01*
X-1825500Y39922853D01*
X-1825500Y39922852D01*
X-1825500Y38020802D01*
X-1845185Y37953763D01*
X-1897989Y37908008D01*
X-1927519Y37900122D01*
X-1927330Y37899256D01*
X-1934701Y37897646D01*
X-1998790Y37875219D01*
X-2062882Y37852793D01*
X-2172150Y37772150D01*
X-2252793Y37662882D01*
X-2275219Y37598790D01*
X-2297646Y37534701D01*
X-2297646Y37534699D01*
X-2300500Y37504269D01*
X-2300500Y37449500D01*
X-2320185Y37382461D01*
X-2372989Y37336706D01*
X-2424500Y37325500D01*
X-3175500Y37325500D01*
X-3242539Y37345185D01*
X-3288294Y37397989D01*
X-3299500Y37449500D01*
X-3299500Y37504269D01*
X-3302353Y37534699D01*
X-3302353Y37534701D01*
X-3347206Y37662880D01*
X-3347207Y37662882D01*
X-3427850Y37772150D01*
X-3537118Y37852793D01*
X-3591451Y37871805D01*
X-3665299Y37897646D01*
X-3695730Y37900500D01*
X-3695734Y37900500D01*
X-4504266Y37900500D01*
X-4504270Y37900500D01*
X-4534699Y37897646D01*
X-4534701Y37897646D01*
X-4598790Y37875219D01*
X-4662882Y37852793D01*
X-4772150Y37772150D01*
X-4852793Y37662882D01*
X-4875219Y37598790D01*
X-4897646Y37534701D01*
X-4897646Y37534699D01*
X-4900500Y37504269D01*
X-4900500Y36495730D01*
X-4897646Y36465300D01*
X-4897646Y36465298D01*
X-4864006Y36369163D01*
X-4852793Y36337118D01*
X-4772150Y36227850D01*
X-4705753Y36178847D01*
X-4662882Y36147207D01*
X-4662880Y36147206D01*
X-4534700Y36102353D01*
X-4504270Y36099500D01*
X-4504266Y36099500D01*
X-3695730Y36099500D01*
X-3665300Y36102353D01*
X-3665298Y36102353D01*
X-3537119Y36147206D01*
X-3537117Y36147207D01*
X-3427850Y36227850D01*
X-3347207Y36337117D01*
X-3347206Y36337119D01*
X-3302353Y36465298D01*
X-3302353Y36465300D01*
X-3299500Y36495730D01*
X-3299500Y36550500D01*
X-3279815Y36617539D01*
X-3227011Y36663294D01*
X-3175500Y36674500D01*
X-2875500Y36674500D01*
X-2808461Y36654815D01*
X-2762706Y36602011D01*
X-2751500Y36550500D01*
X-2751500Y36347339D01*
X-2751500Y36261633D01*
X-2729318Y36178847D01*
X-2729317Y36178845D01*
X-2723575Y36168900D01*
X-2686465Y36104624D01*
X-2355980Y35774139D01*
X-2355979Y35774138D01*
X-2295376Y35713535D01*
X-2258264Y35692108D01*
X-2258263Y35692107D01*
X-2221155Y35670683D01*
X-2221153Y35670682D01*
X-2138367Y35648500D01*
X-1060189Y35648500D01*
X-993150Y35628815D01*
X-972508Y35612181D01*
X11100135Y23539537D01*
X11100138Y23539535D01*
X11174359Y23496682D01*
X11257147Y23474500D01*
X11342853Y23474500D01*
X29883811Y23474500D01*
X29950850Y23454815D01*
X29971492Y23438181D01*
X30181874Y23227798D01*
X30215359Y23166475D01*
X30210375Y23096783D01*
X30168503Y23040850D01*
X30103039Y23016433D01*
X30062100Y23020342D01*
X30042853Y23025500D01*
X30042851Y23025500D01*
X10886188Y23025500D01*
X10819149Y23045185D01*
X10798507Y23061819D01*
X6794434Y27065892D01*
X2599862Y31260465D01*
X2525639Y31303318D01*
X2442853Y31325500D01*
X2442851Y31325500D01*
X-2513811Y31325500D01*
X-2580850Y31345185D01*
X-2601492Y31361819D01*
X-7863181Y36623508D01*
X-7896666Y36684831D01*
X-7899500Y36711189D01*
X-7899500Y37504269D01*
X-6900500Y37504269D01*
X-6900500Y36495730D01*
X-6897646Y36465300D01*
X-6897646Y36465298D01*
X-6864006Y36369163D01*
X-6852793Y36337118D01*
X-6772150Y36227850D01*
X-6705753Y36178847D01*
X-6662882Y36147207D01*
X-6662880Y36147206D01*
X-6534700Y36102353D01*
X-6504270Y36099500D01*
X-6504266Y36099500D01*
X-5695730Y36099500D01*
X-5665300Y36102353D01*
X-5665298Y36102353D01*
X-5537119Y36147206D01*
X-5537117Y36147207D01*
X-5427850Y36227850D01*
X-5347207Y36337117D01*
X-5347206Y36337119D01*
X-5302353Y36465298D01*
X-5302353Y36465300D01*
X-5299500Y36495730D01*
X-5299500Y37504269D01*
X-5302353Y37534699D01*
X-5302353Y37534701D01*
X-5347206Y37662880D01*
X-5347207Y37662882D01*
X-5427850Y37772150D01*
X-5537118Y37852793D01*
X-5591451Y37871805D01*
X-5665298Y37897646D01*
X-5672670Y37899256D01*
X-5672206Y37901379D01*
X-5726982Y37923198D01*
X-5767609Y37980041D01*
X-5774500Y38020802D01*
X-5774500Y39683810D01*
X-5765855Y39713250D01*
X-5759332Y39743237D01*
X-5755577Y39748252D01*
X-5754815Y39750849D01*
X-5738181Y39771491D01*
X-5647104Y39862568D01*
X-5585781Y39896053D01*
X-5516089Y39891069D01*
X-5511971Y39889448D01*
X-5416424Y39849871D01*
X-5416412Y39849868D01*
X-5213469Y39809500D01*
X-5213465Y39809500D01*
X-5006530Y39809500D01*
X-4803587Y39849868D01*
X-4803579Y39849870D01*
X-4612403Y39929058D01*
X-4440342Y40044024D01*
X-4294024Y40190342D01*
X-4179058Y40362403D01*
X-4099870Y40553579D01*
X-4099868Y40553587D01*
X-4059500Y40756530D01*
X-4059500Y40963469D01*
X-4099868Y41166412D01*
X-4099870Y41166420D01*
X-4179058Y41357596D01*
X-4294024Y41529657D01*
X-4440342Y41675975D01*
X-4441498Y41676747D01*
X-4612402Y41790941D01*
X-4803580Y41870130D01*
X-5006530Y41910499D01*
X-5006534Y41910500D01*
X-5006535Y41910500D01*
X-5213465Y41910500D01*
X-5213466Y41910500D01*
X-5213467Y41910499D01*
X-5416420Y41870130D01*
X-5607598Y41790941D01*
X-5779655Y41675977D01*
X-5925977Y41529655D01*
X-6040941Y41357598D01*
X-6120130Y41166420D01*
X-6160500Y40963465D01*
X-6160500Y40756535D01*
X-6120130Y40553580D01*
X-6080551Y40458029D01*
X-6073082Y40388560D01*
X-6104357Y40326080D01*
X-6107425Y40322900D01*
X-6360465Y40069862D01*
X-6403318Y39995639D01*
X-6403318Y39995638D01*
X-6425500Y39912853D01*
X-6425500Y39912851D01*
X-6425500Y38020802D01*
X-6445185Y37953763D01*
X-6497989Y37908008D01*
X-6527519Y37900122D01*
X-6527330Y37899256D01*
X-6534701Y37897646D01*
X-6598790Y37875219D01*
X-6662882Y37852793D01*
X-6772150Y37772150D01*
X-6852793Y37662882D01*
X-6875219Y37598790D01*
X-6897646Y37534701D01*
X-6897646Y37534699D01*
X-6900500Y37504269D01*
X-7899500Y37504269D01*
X-7902353Y37534699D01*
X-7902353Y37534701D01*
X-7947206Y37662880D01*
X-7947207Y37662882D01*
X-8027850Y37772150D01*
X-8137118Y37852793D01*
X-8191451Y37871805D01*
X-8265299Y37897646D01*
X-8295730Y37900500D01*
X-8295734Y37900500D01*
X-9104266Y37900500D01*
X-9104270Y37900500D01*
X-9134699Y37897646D01*
X-9134701Y37897646D01*
X-9198790Y37875219D01*
X-9262882Y37852793D01*
X-9372150Y37772150D01*
X-9452793Y37662882D01*
X-9475219Y37598790D01*
X-9497646Y37534701D01*
X-9497646Y37534699D01*
X-9500500Y37504269D01*
X-9500500Y36495730D01*
X-9497646Y36465300D01*
X-9497646Y36465298D01*
X-9464006Y36369163D01*
X-9452793Y36337118D01*
X-9372150Y36227850D01*
X-9305753Y36178847D01*
X-9262882Y36147207D01*
X-9262880Y36147206D01*
X-9134700Y36102353D01*
X-9104270Y36099500D01*
X-8311189Y36099500D01*
X-8244150Y36079815D01*
X-8223508Y36063181D01*
X-2899863Y30739536D01*
X-2899855Y30739530D01*
X-2825644Y30696685D01*
X-2825640Y30696683D01*
X-2825638Y30696682D01*
X-2742853Y30674500D01*
X-2657147Y30674500D01*
X2213811Y30674500D01*
X2280850Y30654815D01*
X2301492Y30638181D01*
X10500136Y22439536D01*
X10500144Y22439530D01*
X10574355Y22396685D01*
X10574360Y22396682D01*
X10615755Y22385590D01*
X10657148Y22374499D01*
X10657150Y22374499D01*
X10750449Y22374499D01*
X10750465Y22374500D01*
X29813811Y22374500D01*
X29880850Y22354815D01*
X29901492Y22338181D01*
X30122855Y22116817D01*
X30156340Y22055494D01*
X30151356Y21985802D01*
X30109484Y21929869D01*
X30044020Y21905452D01*
X30003088Y21909360D01*
X29942853Y21925500D01*
X29942850Y21925500D01*
X10286189Y21925500D01*
X10219150Y21945185D01*
X10198508Y21961819D01*
X6215142Y25945185D01*
X2199862Y29960465D01*
X2125639Y30003318D01*
X2042853Y30025500D01*
X2042851Y30025500D01*
X-18113811Y30025500D01*
X-18180850Y30045185D01*
X-18201492Y30061819D01*
X-22538181Y34398508D01*
X-22571666Y34459831D01*
X-22574500Y34486189D01*
X-22574500Y37504269D01*
X-11500500Y37504269D01*
X-11500500Y36495730D01*
X-11497646Y36465300D01*
X-11497646Y36465298D01*
X-11464006Y36369163D01*
X-11452793Y36337118D01*
X-11372150Y36227850D01*
X-11305753Y36178847D01*
X-11262882Y36147207D01*
X-11262880Y36147206D01*
X-11134700Y36102353D01*
X-11104270Y36099500D01*
X-11104266Y36099500D01*
X-10295730Y36099500D01*
X-10265300Y36102353D01*
X-10265298Y36102353D01*
X-10137119Y36147206D01*
X-10137117Y36147207D01*
X-10027850Y36227850D01*
X-9947207Y36337117D01*
X-9947206Y36337119D01*
X-9902353Y36465298D01*
X-9902353Y36465300D01*
X-9899500Y36495730D01*
X-9899500Y37504269D01*
X-9902353Y37534699D01*
X-9902353Y37534701D01*
X-9947206Y37662880D01*
X-9947207Y37662882D01*
X-10027850Y37772150D01*
X-10137118Y37852793D01*
X-10191451Y37871805D01*
X-10265299Y37897646D01*
X-10295730Y37900500D01*
X-10295734Y37900500D01*
X-10350500Y37900500D01*
X-10417539Y37920185D01*
X-10463294Y37972989D01*
X-10474500Y38024500D01*
X-10474500Y39573810D01*
X-10454815Y39640849D01*
X-10438181Y39661491D01*
X-10237103Y39862568D01*
X-10175780Y39896053D01*
X-10106088Y39891069D01*
X-10101981Y39889452D01*
X-10006422Y39849871D01*
X-10006420Y39849870D01*
X-10006412Y39849868D01*
X-9803469Y39809500D01*
X-9803465Y39809500D01*
X-9596530Y39809500D01*
X-9393587Y39849868D01*
X-9393579Y39849870D01*
X-9202403Y39929058D01*
X-9030342Y40044024D01*
X-8884024Y40190342D01*
X-8769058Y40362403D01*
X-8689870Y40553579D01*
X-8689868Y40553587D01*
X-8649500Y40756530D01*
X-8649500Y40963469D01*
X-8689868Y41166412D01*
X-8689870Y41166420D01*
X-8769058Y41357596D01*
X-8884024Y41529657D01*
X-9030342Y41675975D01*
X-9031498Y41676747D01*
X-9202402Y41790941D01*
X-9393580Y41870130D01*
X-9596530Y41910499D01*
X-9596534Y41910500D01*
X-9596535Y41910500D01*
X-9803465Y41910500D01*
X-9803466Y41910500D01*
X-9803467Y41910499D01*
X-10006420Y41870130D01*
X-10197598Y41790941D01*
X-10369655Y41675977D01*
X-10515977Y41529655D01*
X-10630941Y41357598D01*
X-10710130Y41166420D01*
X-10750500Y40963465D01*
X-10750500Y40756535D01*
X-10710130Y40553580D01*
X-10670551Y40458029D01*
X-10663082Y40388560D01*
X-10694357Y40326080D01*
X-10697427Y40322898D01*
X-11060465Y39959862D01*
X-11103318Y39885639D01*
X-11119432Y39825500D01*
X-11125500Y39802853D01*
X-11125500Y39802849D01*
X-11125500Y37988847D01*
X-11145185Y37921808D01*
X-11197989Y37876053D01*
X-11208528Y37871812D01*
X-11262882Y37852793D01*
X-11372150Y37772150D01*
X-11452793Y37662882D01*
X-11475219Y37598790D01*
X-11497646Y37534701D01*
X-11497646Y37534699D01*
X-11500500Y37504269D01*
X-22574500Y37504269D01*
X-22574500Y38475500D01*
X-22554815Y38542539D01*
X-22502011Y38588294D01*
X-22450500Y38599500D01*
X-22395730Y38599500D01*
X-22365300Y38602353D01*
X-22365298Y38602353D01*
X-22237119Y38647206D01*
X-22237117Y38647207D01*
X-22127850Y38727850D01*
X-22047207Y38837117D01*
X-22047206Y38837119D01*
X-22002353Y38965298D01*
X-22002353Y38965300D01*
X-21999500Y38995730D01*
X-21999500Y39804269D01*
X-22002353Y39834699D01*
X-22002353Y39834701D01*
X-22035372Y39929059D01*
X-22047207Y39962882D01*
X-22127850Y40072150D01*
X-22237118Y40152793D01*
X-22279845Y40167744D01*
X-22365299Y40197646D01*
X-22395730Y40200500D01*
X-22395734Y40200500D01*
X-23404266Y40200500D01*
X-23404270Y40200500D01*
X-23434699Y40197646D01*
X-23434701Y40197646D01*
X-23498790Y40175219D01*
X-23562882Y40152793D01*
X-23672150Y40072150D01*
X-23752793Y39962882D01*
X-23774392Y39901153D01*
X-23797646Y39834701D01*
X-23797646Y39834699D01*
X-23800500Y39804269D01*
X-23800500Y38995730D01*
X-23797646Y38965300D01*
X-23797646Y38965298D01*
X-23765301Y38872865D01*
X-23752793Y38837118D01*
X-23672150Y38727850D01*
X-23608884Y38681158D01*
X-23562882Y38647207D01*
X-23562880Y38647206D01*
X-23434700Y38602353D01*
X-23404270Y38599500D01*
X-23404266Y38599500D01*
X-23349500Y38599500D01*
X-23282461Y38579815D01*
X-23236706Y38527011D01*
X-23225500Y38475500D01*
X-23225500Y34342853D01*
X-23225500Y34257147D01*
X-23203318Y34174361D01*
X-23160465Y34100138D01*
X-23160462Y34100135D01*
X-18499863Y29439536D01*
X-18499855Y29439530D01*
X-18425644Y29396685D01*
X-18425640Y29396683D01*
X-18425638Y29396682D01*
X-18342853Y29374500D01*
X1813811Y29374500D01*
X1880850Y29354815D01*
X1901492Y29338181D01*
X9900135Y21339537D01*
X9900138Y21339535D01*
X9974359Y21296682D01*
X10057147Y21274500D01*
X10142853Y21274500D01*
X29713811Y21274500D01*
X29780850Y21254815D01*
X29801492Y21238181D01*
X30122855Y20916817D01*
X30156340Y20855494D01*
X30151356Y20785802D01*
X30109484Y20729869D01*
X30044020Y20705452D01*
X30003088Y20709360D01*
X29942853Y20725500D01*
X29942850Y20725500D01*
X9786189Y20725500D01*
X9719150Y20745185D01*
X9698508Y20761819D01*
X5699861Y24760466D01*
X1699862Y28760465D01*
X1625639Y28803318D01*
X1542853Y28825500D01*
X1542851Y28825500D01*
X-19013811Y28825500D01*
X-19080850Y28845185D01*
X-19101492Y28861819D01*
X-25038181Y34798508D01*
X-25071666Y34859831D01*
X-25074500Y34886189D01*
X-25074500Y38475500D01*
X-25054815Y38542539D01*
X-25002011Y38588294D01*
X-24950500Y38599500D01*
X-24895730Y38599500D01*
X-24865300Y38602353D01*
X-24865298Y38602353D01*
X-24737119Y38647206D01*
X-24737117Y38647207D01*
X-24627850Y38727850D01*
X-24547207Y38837117D01*
X-24547206Y38837119D01*
X-24502353Y38965298D01*
X-24502353Y38965300D01*
X-24499500Y38995730D01*
X-24499500Y39804269D01*
X-24502353Y39834699D01*
X-24502353Y39834701D01*
X-24535372Y39929059D01*
X-24547207Y39962882D01*
X-24627850Y40072150D01*
X-24737118Y40152793D01*
X-24779845Y40167744D01*
X-24865299Y40197646D01*
X-24895730Y40200500D01*
X-24895734Y40200500D01*
X-25904266Y40200500D01*
X-25904270Y40200500D01*
X-25934699Y40197646D01*
X-25934701Y40197646D01*
X-25998790Y40175219D01*
X-26062882Y40152793D01*
X-26172150Y40072150D01*
X-26252793Y39962882D01*
X-26274392Y39901153D01*
X-26297646Y39834701D01*
X-26297646Y39834699D01*
X-26300500Y39804269D01*
X-26300500Y38995730D01*
X-26297646Y38965300D01*
X-26297646Y38965298D01*
X-26265301Y38872865D01*
X-26252793Y38837118D01*
X-26172150Y38727850D01*
X-26108884Y38681158D01*
X-26062882Y38647207D01*
X-26062880Y38647206D01*
X-25934700Y38602353D01*
X-25904270Y38599500D01*
X-25904266Y38599500D01*
X-25849500Y38599500D01*
X-25782461Y38579815D01*
X-25736706Y38527011D01*
X-25725500Y38475500D01*
X-25725500Y34742853D01*
X-25725500Y34657147D01*
X-25703318Y34574361D01*
X-25660465Y34500138D01*
X-19399862Y28239535D01*
X-19372101Y28223507D01*
X-19325640Y28196682D01*
X-19284246Y28185591D01*
X-19242853Y28174500D01*
X-19157147Y28174500D01*
X1313811Y28174500D01*
X1380850Y28154815D01*
X1401492Y28138181D01*
X9400135Y20139537D01*
X9400138Y20139535D01*
X9474359Y20096682D01*
X9557147Y20074500D01*
X9642853Y20074500D01*
X29713811Y20074500D01*
X29780850Y20054815D01*
X29801492Y20038181D01*
X30002492Y19837181D01*
X30035977Y19775858D01*
X30030993Y19706166D01*
X29989121Y19650233D01*
X29923657Y19625816D01*
X29914811Y19625500D01*
X9086188Y19625500D01*
X9019149Y19645185D01*
X8998507Y19661819D01*
X5185826Y23474500D01*
X1299862Y27360465D01*
X1225639Y27403318D01*
X1142853Y27425500D01*
X1142851Y27425500D01*
X-19413811Y27425500D01*
X-19480850Y27445185D01*
X-19501492Y27461819D01*
X-27638181Y35598508D01*
X-27671666Y35659831D01*
X-27674500Y35686189D01*
X-27674500Y38475500D01*
X-27654815Y38542539D01*
X-27602011Y38588294D01*
X-27550500Y38599500D01*
X-27495730Y38599500D01*
X-27465300Y38602353D01*
X-27465298Y38602353D01*
X-27337119Y38647206D01*
X-27337117Y38647207D01*
X-27227850Y38727850D01*
X-27147207Y38837117D01*
X-27147206Y38837119D01*
X-27102353Y38965298D01*
X-27102353Y38965300D01*
X-27099500Y38995730D01*
X-27099500Y39804269D01*
X-27102353Y39834699D01*
X-27102353Y39834701D01*
X-27135372Y39929059D01*
X-27147207Y39962882D01*
X-27227850Y40072150D01*
X-27337118Y40152793D01*
X-27379845Y40167744D01*
X-27465299Y40197646D01*
X-27495730Y40200500D01*
X-27495734Y40200500D01*
X-28504266Y40200500D01*
X-28504270Y40200500D01*
X-28534699Y40197646D01*
X-28534701Y40197646D01*
X-28598790Y40175219D01*
X-28662882Y40152793D01*
X-28772150Y40072150D01*
X-28852793Y39962882D01*
X-28874392Y39901153D01*
X-28897646Y39834701D01*
X-28897646Y39834699D01*
X-28900500Y39804269D01*
X-28900500Y38995730D01*
X-28897646Y38965300D01*
X-28897646Y38965298D01*
X-28865301Y38872865D01*
X-28852793Y38837118D01*
X-28772150Y38727850D01*
X-28708884Y38681158D01*
X-28662882Y38647207D01*
X-28662880Y38647206D01*
X-28534700Y38602353D01*
X-28504270Y38599500D01*
X-28504266Y38599500D01*
X-28449500Y38599500D01*
X-28382461Y38579815D01*
X-28336706Y38527011D01*
X-28325500Y38475500D01*
X-28325500Y35542853D01*
X-28325500Y35457147D01*
X-28303318Y35374361D01*
X-28260465Y35300138D01*
X-19799862Y26839535D01*
X-19762750Y26818108D01*
X-19725640Y26796682D01*
X-19684246Y26785591D01*
X-19642853Y26774500D01*
X-19557147Y26774500D01*
X913811Y26774500D01*
X980850Y26754815D01*
X1001492Y26738181D01*
X8700135Y19039537D01*
X8700138Y19039535D01*
X8737250Y19018108D01*
X8737250Y19018107D01*
X8774358Y18996683D01*
X8774361Y18996682D01*
X8857147Y18974500D01*
X29713811Y18974500D01*
X29780850Y18954815D01*
X29801492Y18938181D01*
X30102492Y18637181D01*
X30135977Y18575858D01*
X30130993Y18506166D01*
X30089121Y18450233D01*
X30023657Y18425816D01*
X30014811Y18425500D01*
X8686188Y18425500D01*
X8619149Y18445185D01*
X8598507Y18461819D01*
X4922473Y22137853D01*
X1199862Y25860465D01*
X1125639Y25903318D01*
X1042853Y25925500D01*
X1042851Y25925500D01*
X-19813811Y25925500D01*
X-19880850Y25945185D01*
X-19901492Y25961819D01*
X-29600135Y35660462D01*
X-29600138Y35660465D01*
X-29674361Y35703318D01*
X-29757147Y35725500D01*
X-29757149Y35725500D01*
X-30050500Y35725500D01*
X-30117539Y35745185D01*
X-30163294Y35797989D01*
X-30174500Y35849500D01*
X-30174500Y38475500D01*
X-30154815Y38542539D01*
X-30102011Y38588294D01*
X-30050500Y38599500D01*
X-29995730Y38599500D01*
X-29965300Y38602353D01*
X-29965298Y38602353D01*
X-29837119Y38647206D01*
X-29837117Y38647207D01*
X-29727850Y38727850D01*
X-29647207Y38837117D01*
X-29647206Y38837119D01*
X-29602353Y38965298D01*
X-29602353Y38965300D01*
X-29599500Y38995730D01*
X-29599500Y39804269D01*
X-29602353Y39834699D01*
X-29602353Y39834701D01*
X-29635372Y39929059D01*
X-29647207Y39962882D01*
X-29727850Y40072150D01*
X-29837118Y40152793D01*
X-29879845Y40167744D01*
X-29965299Y40197646D01*
X-29995730Y40200500D01*
X-29995734Y40200500D01*
X-31004266Y40200500D01*
X-31004270Y40200500D01*
X-31034699Y40197646D01*
X-31034701Y40197646D01*
X-31098790Y40175219D01*
X-31162882Y40152793D01*
X-31272150Y40072150D01*
X-31352793Y39962882D01*
X-31374392Y39901153D01*
X-31397646Y39834701D01*
X-31397646Y39834699D01*
X-31400500Y39804269D01*
X-31400500Y38995730D01*
X-31397646Y38965300D01*
X-31397646Y38965298D01*
X-31365301Y38872865D01*
X-31352793Y38837118D01*
X-31272150Y38727850D01*
X-31208884Y38681158D01*
X-31162882Y38647207D01*
X-31162880Y38647206D01*
X-31034700Y38602353D01*
X-31004270Y38599500D01*
X-31004266Y38599500D01*
X-30949500Y38599500D01*
X-30882461Y38579815D01*
X-30836706Y38527011D01*
X-30825500Y38475500D01*
X-30825500Y35542853D01*
X-30825500Y35457147D01*
X-30803318Y35374361D01*
X-30760465Y35300138D01*
X-30760462Y35300135D01*
X-30599863Y35139536D01*
X-30599855Y35139530D01*
X-30525644Y35096685D01*
X-30525640Y35096683D01*
X-30525638Y35096682D01*
X-30442853Y35074500D01*
X-29986189Y35074500D01*
X-29919150Y35054815D01*
X-29898508Y35038181D01*
X-20199862Y25339535D01*
X-20166482Y25320263D01*
X-20125640Y25296682D01*
X-20088676Y25286778D01*
X-20042853Y25274500D01*
X-19957147Y25274500D01*
X813811Y25274500D01*
X880850Y25254815D01*
X901492Y25238181D01*
X8300135Y17839537D01*
X8300138Y17839535D01*
X8337250Y17818108D01*
X8355805Y17807395D01*
X8374360Y17796682D01*
X8401956Y17789287D01*
X8457147Y17774499D01*
X8457149Y17774499D01*
X8550449Y17774499D01*
X8550465Y17774500D01*
X29913811Y17774500D01*
X29943251Y17765855D01*
X29973238Y17759332D01*
X29978253Y17755577D01*
X29980850Y17754815D01*
X30001492Y17738181D01*
X30102492Y17637181D01*
X30135977Y17575858D01*
X30130993Y17506166D01*
X30089121Y17450233D01*
X30023657Y17425816D01*
X30014811Y17425500D01*
X-18613811Y17425500D01*
X-18680850Y17445185D01*
X-18701492Y17461819D01*
X-23714349Y22474676D01*
X-8400500Y22474676D01*
X-8400500Y20725323D01*
X-8400499Y20725321D01*
X-8389308Y20669058D01*
X-8385966Y20652260D01*
X-8330601Y20569399D01*
X-8287770Y20540781D01*
X-8247739Y20514033D01*
X-8247735Y20514032D01*
X-8174678Y20499500D01*
X-8174674Y20499500D01*
X-6425321Y20499500D01*
X-6352264Y20514032D01*
X-6352260Y20514033D01*
X-6269399Y20569399D01*
X-6214033Y20652260D01*
X-6214032Y20652264D01*
X-6199500Y20725321D01*
X-6199500Y21703465D01*
X-5810500Y21703465D01*
X-5810500Y21496535D01*
X-5770130Y21293580D01*
X-5690941Y21102402D01*
X-5596565Y20961158D01*
X-5575975Y20930342D01*
X-5429657Y20784024D01*
X-5368039Y20742853D01*
X-5257598Y20669059D01*
X-5257596Y20669058D01*
X-5066420Y20589870D01*
X-5066412Y20589868D01*
X-4863469Y20549500D01*
X-4863465Y20549500D01*
X-4656530Y20549500D01*
X-4453587Y20589868D01*
X-4453579Y20589870D01*
X-4262403Y20669058D01*
X-4090342Y20784024D01*
X-3944024Y20930342D01*
X-3829058Y21102403D01*
X-3749870Y21293579D01*
X-3749868Y21293587D01*
X-3709500Y21496530D01*
X-3709500Y21703465D01*
X-3270500Y21703465D01*
X-3270500Y21496535D01*
X-3230130Y21293580D01*
X-3150941Y21102402D01*
X-3056565Y20961158D01*
X-3035975Y20930342D01*
X-2889657Y20784024D01*
X-2828039Y20742853D01*
X-2717598Y20669059D01*
X-2717596Y20669058D01*
X-2526420Y20589870D01*
X-2526412Y20589868D01*
X-2323469Y20549500D01*
X-2323465Y20549500D01*
X-2116530Y20549500D01*
X-1913587Y20589868D01*
X-1913579Y20589870D01*
X-1722403Y20669058D01*
X-1550342Y20784024D01*
X-1404024Y20930342D01*
X-1289058Y21102403D01*
X-1209870Y21293579D01*
X-1209868Y21293587D01*
X-1169500Y21496530D01*
X-1169500Y21703469D01*
X-1209868Y21906412D01*
X-1209870Y21906420D01*
X-1289058Y22097596D01*
X-1297687Y22110510D01*
X-1362166Y22207011D01*
X-1404024Y22269657D01*
X-1550342Y22415975D01*
X-1676305Y22500140D01*
X-1722402Y22530941D01*
X-1913580Y22610130D01*
X-2116530Y22650499D01*
X-2116534Y22650500D01*
X-2116535Y22650500D01*
X-2323465Y22650500D01*
X-2323466Y22650500D01*
X-2323467Y22650499D01*
X-2526420Y22610130D01*
X-2717598Y22530941D01*
X-2889655Y22415977D01*
X-3035977Y22269655D01*
X-3150941Y22097598D01*
X-3230130Y21906420D01*
X-3270500Y21703465D01*
X-3709500Y21703465D01*
X-3709500Y21703469D01*
X-3749868Y21906412D01*
X-3749870Y21906420D01*
X-3829058Y22097596D01*
X-3837687Y22110510D01*
X-3902166Y22207011D01*
X-3944024Y22269657D01*
X-4090342Y22415975D01*
X-4216305Y22500140D01*
X-4262402Y22530941D01*
X-4453580Y22610130D01*
X-4656530Y22650499D01*
X-4656534Y22650500D01*
X-4656535Y22650500D01*
X-4863465Y22650500D01*
X-4863466Y22650500D01*
X-4863467Y22650499D01*
X-5066420Y22610130D01*
X-5257598Y22530941D01*
X-5429655Y22415977D01*
X-5575977Y22269655D01*
X-5690941Y22097598D01*
X-5770130Y21906420D01*
X-5810500Y21703465D01*
X-6199500Y21703465D01*
X-6199500Y22474678D01*
X-6214032Y22547735D01*
X-6214033Y22547739D01*
X-6238675Y22584619D01*
X-6269399Y22630601D01*
X-6352260Y22685966D01*
X-6352264Y22685967D01*
X-6425323Y22700500D01*
X-6425326Y22700500D01*
X-8174674Y22700500D01*
X-8174677Y22700500D01*
X-8247735Y22685967D01*
X-8247740Y22685966D01*
X-8330601Y22630601D01*
X-8385966Y22547740D01*
X-8385966Y22547739D01*
X-8385967Y22547735D01*
X-8400499Y22474678D01*
X-8400500Y22474676D01*
X-23714349Y22474676D01*
X-37163181Y35923508D01*
X-37196666Y35984831D01*
X-37199500Y36011189D01*
X-37199500Y36804269D01*
X-37202353Y36834699D01*
X-37202354Y36834701D01*
X-37242541Y36949548D01*
X-37249500Y36990503D01*
X-37249500Y37884619D01*
X-37229815Y37951658D01*
X-37194392Y37987720D01*
X-37130448Y38030446D01*
X-37086132Y38096769D01*
X-37086131Y38096770D01*
X-37074500Y38155247D01*
X-37074500Y39644752D01*
X-37086131Y39703229D01*
X-37086132Y39703230D01*
X-37130447Y39769552D01*
X-37196769Y39813867D01*
X-37196770Y39813868D01*
X-37255247Y39825499D01*
X-37255249Y39825500D01*
X-37255252Y39825500D01*
X-38444748Y39825500D01*
X-38444751Y39825500D01*
X-38444751Y39825499D01*
X-38459568Y39822552D01*
X-38503229Y39813868D01*
X-38503229Y39813867D01*
X-38503231Y39813867D01*
X-38569552Y39769552D01*
X-38613867Y39703231D01*
X-38613867Y39703230D01*
X-38613868Y39703229D01*
X-38625499Y39644752D01*
X-38625500Y39644750D01*
X-38625500Y39624500D01*
X-38645185Y39557461D01*
X-38697989Y39511706D01*
X-38749500Y39500500D01*
X-42468001Y39500500D01*
X-42535040Y39520185D01*
X-42580795Y39572989D01*
X-42592001Y39624500D01*
X-42592001Y39664260D01*
X-42592001Y39664266D01*
X-42594854Y39694700D01*
X-42594855Y39694703D01*
X-42594855Y39694705D01*
X-42639706Y39822882D01*
X-42720349Y39932150D01*
X-42806373Y39995638D01*
X-42829617Y40012793D01*
X-42872344Y40027744D01*
X-42957798Y40057646D01*
X-42964823Y40058304D01*
X-42988233Y40060500D01*
X-44796766Y40060499D01*
X-44827200Y40057646D01*
X-44955383Y40012793D01*
X-45064650Y39932150D01*
X-45145293Y39822883D01*
X-45163276Y39771491D01*
X-45190146Y39694702D01*
X-45190146Y39694700D01*
X-45193000Y39664267D01*
X-49499500Y39664267D01*
X-49499500Y45503465D01*
X-31550500Y45503465D01*
X-31550500Y45296535D01*
X-31510130Y45093580D01*
X-31430941Y44902402D01*
X-31316747Y44731498D01*
X-31315975Y44730342D01*
X-31169658Y44584025D01*
X-31169652Y44584020D01*
X-31155608Y44574636D01*
X-31110803Y44521023D01*
X-31100500Y44471535D01*
X-31100500Y42260480D01*
X-31120185Y42193441D01*
X-31156628Y42159968D01*
X-31155405Y42158311D01*
X-31162881Y42152793D01*
X-31162882Y42152793D01*
X-31272150Y42072150D01*
X-31352793Y41962882D01*
X-31375219Y41898790D01*
X-31397646Y41834701D01*
X-31397646Y41834699D01*
X-31400500Y41804269D01*
X-31400500Y40995730D01*
X-31397646Y40965300D01*
X-31397646Y40965298D01*
X-31364006Y40869163D01*
X-31352793Y40837118D01*
X-31272150Y40727850D01*
X-31162882Y40647207D01*
X-31162880Y40647206D01*
X-31034700Y40602353D01*
X-31004270Y40599500D01*
X-31004266Y40599500D01*
X-29995730Y40599500D01*
X-29965300Y40602353D01*
X-29965298Y40602353D01*
X-29837119Y40647206D01*
X-29837117Y40647207D01*
X-29727850Y40727850D01*
X-29647207Y40837117D01*
X-29647206Y40837119D01*
X-29602353Y40965298D01*
X-29602353Y40965300D01*
X-29599500Y40995730D01*
X-29599500Y41804269D01*
X-29602353Y41834699D01*
X-29602353Y41834701D01*
X-29647206Y41962880D01*
X-29647207Y41962882D01*
X-29727850Y42072150D01*
X-29837118Y42152793D01*
X-29844595Y42158311D01*
X-29843137Y42160285D01*
X-29883515Y42199580D01*
X-29899500Y42260480D01*
X-29899500Y44471535D01*
X-29879815Y44538574D01*
X-29844392Y44574636D01*
X-29830347Y44584020D01*
X-29830341Y44584025D01*
X-29684024Y44730342D01*
X-29569058Y44902403D01*
X-29489870Y45093579D01*
X-29489868Y45093587D01*
X-29449500Y45296530D01*
X-29449500Y45503465D01*
X-29010500Y45503465D01*
X-29010500Y45296535D01*
X-28970130Y45093580D01*
X-28890941Y44902402D01*
X-28776747Y44731498D01*
X-28775975Y44730342D01*
X-28636819Y44591186D01*
X-28603334Y44529863D01*
X-28600500Y44503505D01*
X-28600500Y42260480D01*
X-28620185Y42193441D01*
X-28656628Y42159968D01*
X-28655405Y42158311D01*
X-28662881Y42152793D01*
X-28662882Y42152793D01*
X-28772150Y42072150D01*
X-28852793Y41962882D01*
X-28875219Y41898790D01*
X-28897646Y41834701D01*
X-28897646Y41834699D01*
X-28900500Y41804269D01*
X-28900500Y40995730D01*
X-28897646Y40965300D01*
X-28897646Y40965298D01*
X-28864006Y40869163D01*
X-28852793Y40837118D01*
X-28772150Y40727850D01*
X-28662882Y40647207D01*
X-28662880Y40647206D01*
X-28534700Y40602353D01*
X-28504270Y40599500D01*
X-28504266Y40599500D01*
X-27495730Y40599500D01*
X-27465300Y40602353D01*
X-27465298Y40602353D01*
X-27337119Y40647206D01*
X-27337117Y40647207D01*
X-27227850Y40727850D01*
X-27147207Y40837117D01*
X-27147206Y40837119D01*
X-27102353Y40965298D01*
X-27102353Y40965300D01*
X-27099500Y40995730D01*
X-27099500Y41804269D01*
X-27102353Y41834699D01*
X-27102353Y41834701D01*
X-27147206Y41962880D01*
X-27147207Y41962882D01*
X-27227850Y42072150D01*
X-27337118Y42152793D01*
X-27344595Y42158311D01*
X-27343137Y42160285D01*
X-27383515Y42199580D01*
X-27399500Y42260480D01*
X-27399500Y44444808D01*
X-27379815Y44511847D01*
X-27344391Y44547910D01*
X-27290345Y44584022D01*
X-27290341Y44584025D01*
X-27144024Y44730342D01*
X-27029058Y44902403D01*
X-26949870Y45093579D01*
X-26949868Y45093587D01*
X-26909500Y45296530D01*
X-26909500Y45503465D01*
X-26470500Y45503465D01*
X-26470500Y45296535D01*
X-26430130Y45093580D01*
X-26350941Y44902402D01*
X-26236747Y44731498D01*
X-26235975Y44730342D01*
X-26089658Y44584025D01*
X-26089652Y44584020D01*
X-26055608Y44561272D01*
X-26010803Y44507659D01*
X-26000500Y44458171D01*
X-26000500Y42260480D01*
X-26020185Y42193441D01*
X-26056628Y42159968D01*
X-26055405Y42158311D01*
X-26062881Y42152793D01*
X-26062882Y42152793D01*
X-26172150Y42072150D01*
X-26252793Y41962882D01*
X-26275219Y41898790D01*
X-26297646Y41834701D01*
X-26297646Y41834699D01*
X-26300500Y41804269D01*
X-26300500Y40995730D01*
X-26297646Y40965300D01*
X-26297646Y40965298D01*
X-26264006Y40869163D01*
X-26252793Y40837118D01*
X-26172150Y40727850D01*
X-26062882Y40647207D01*
X-26062880Y40647206D01*
X-25934700Y40602353D01*
X-25904270Y40599500D01*
X-25904266Y40599500D01*
X-24895730Y40599500D01*
X-24865300Y40602353D01*
X-24865298Y40602353D01*
X-24737119Y40647206D01*
X-24737117Y40647207D01*
X-24627850Y40727850D01*
X-24547207Y40837117D01*
X-24547206Y40837119D01*
X-24502353Y40965298D01*
X-24502353Y40965300D01*
X-24499500Y40995730D01*
X-24499500Y41804269D01*
X-24502353Y41834699D01*
X-24502353Y41834701D01*
X-24547206Y41962880D01*
X-24547207Y41962882D01*
X-24627850Y42072150D01*
X-24737118Y42152793D01*
X-24744595Y42158311D01*
X-24743137Y42160285D01*
X-24783515Y42199580D01*
X-24799500Y42260480D01*
X-24799500Y44485034D01*
X-24779815Y44552073D01*
X-24754168Y44580885D01*
X-24750341Y44584025D01*
X-24604024Y44730342D01*
X-24489058Y44902403D01*
X-24409870Y45093579D01*
X-24409868Y45093587D01*
X-24369500Y45296530D01*
X-24369500Y45503469D01*
X-24409868Y45706412D01*
X-24409870Y45706420D01*
X-24489058Y45897596D01*
X-24604024Y46069657D01*
X-24750342Y46215975D01*
X-24830823Y46269750D01*
X-23930500Y46269750D01*
X-23930500Y44530249D01*
X-23930499Y44530247D01*
X-23918868Y44471770D01*
X-23918867Y44471769D01*
X-23874552Y44405447D01*
X-23808230Y44361132D01*
X-23808229Y44361131D01*
X-23749752Y44349500D01*
X-23749748Y44349500D01*
X-23624500Y44349500D01*
X-23557461Y44329815D01*
X-23511706Y44277011D01*
X-23500500Y44225500D01*
X-23500500Y42260480D01*
X-23520185Y42193441D01*
X-23556628Y42159968D01*
X-23555405Y42158311D01*
X-23562881Y42152793D01*
X-23562882Y42152793D01*
X-23672150Y42072150D01*
X-23752793Y41962882D01*
X-23775219Y41898790D01*
X-23797646Y41834701D01*
X-23797646Y41834699D01*
X-23800500Y41804269D01*
X-23800500Y40995730D01*
X-23797646Y40965300D01*
X-23797646Y40965298D01*
X-23764006Y40869163D01*
X-23752793Y40837118D01*
X-23672150Y40727850D01*
X-23562882Y40647207D01*
X-23562880Y40647206D01*
X-23434700Y40602353D01*
X-23404270Y40599500D01*
X-23404266Y40599500D01*
X-22395730Y40599500D01*
X-22365300Y40602353D01*
X-22365298Y40602353D01*
X-22237119Y40647206D01*
X-22237117Y40647207D01*
X-22127850Y40727850D01*
X-22047207Y40837117D01*
X-22047206Y40837119D01*
X-22002353Y40965298D01*
X-22002353Y40965300D01*
X-21999500Y40995730D01*
X-21999500Y41804269D01*
X-22002353Y41834699D01*
X-22002353Y41834701D01*
X-22047206Y41962880D01*
X-22047207Y41962882D01*
X-22127850Y42072150D01*
X-22237118Y42152793D01*
X-22244595Y42158311D01*
X-22243137Y42160285D01*
X-22283515Y42199580D01*
X-22299500Y42260480D01*
X-22299500Y43503465D01*
X-10750500Y43503465D01*
X-10750500Y43296535D01*
X-10710130Y43093580D01*
X-10630941Y42902402D01*
X-10516747Y42731498D01*
X-10515975Y42730342D01*
X-10369657Y42584024D01*
X-10283626Y42526541D01*
X-10197598Y42469059D01*
X-10197596Y42469058D01*
X-10006420Y42389870D01*
X-10006412Y42389868D01*
X-9803469Y42349500D01*
X-9803465Y42349500D01*
X-9596530Y42349500D01*
X-9393587Y42389868D01*
X-9393579Y42389870D01*
X-9202403Y42469058D01*
X-9030342Y42584024D01*
X-8884024Y42730342D01*
X-8769058Y42902403D01*
X-8689870Y43093579D01*
X-8689868Y43093587D01*
X-8649500Y43296530D01*
X-8649500Y43503465D01*
X-6160500Y43503465D01*
X-6160500Y43296535D01*
X-6120130Y43093580D01*
X-6040941Y42902402D01*
X-5926747Y42731498D01*
X-5925975Y42730342D01*
X-5779657Y42584024D01*
X-5693626Y42526541D01*
X-5607598Y42469059D01*
X-5607596Y42469058D01*
X-5416420Y42389870D01*
X-5416412Y42389868D01*
X-5213469Y42349500D01*
X-5213465Y42349500D01*
X-5006530Y42349500D01*
X-4803587Y42389868D01*
X-4803579Y42389870D01*
X-4612403Y42469058D01*
X-4440342Y42584024D01*
X-4294024Y42730342D01*
X-4179058Y42902403D01*
X-4099870Y43093579D01*
X-4099868Y43093587D01*
X-4059500Y43296530D01*
X-4059500Y43503465D01*
X-1570500Y43503465D01*
X-1570500Y43296535D01*
X-1530130Y43093580D01*
X-1450941Y42902402D01*
X-1336747Y42731498D01*
X-1335975Y42730342D01*
X-1189657Y42584024D01*
X-1103626Y42526541D01*
X-1017598Y42469059D01*
X-1017596Y42469058D01*
X-826420Y42389870D01*
X-826412Y42389868D01*
X-623469Y42349500D01*
X-623465Y42349500D01*
X-416530Y42349500D01*
X-213587Y42389868D01*
X-213579Y42389870D01*
X-22403Y42469058D01*
X149657Y42584024D01*
X295975Y42730342D01*
X296747Y42731498D01*
X410941Y42902402D01*
X490130Y43093580D01*
X530500Y43296535D01*
X530500Y43503465D01*
X490130Y43706420D01*
X410941Y43897598D01*
X295977Y44069655D01*
X149655Y44215977D01*
X-22402Y44330941D01*
X-213580Y44410130D01*
X-416530Y44450499D01*
X-416534Y44450500D01*
X-416535Y44450500D01*
X-623465Y44450500D01*
X-623466Y44450500D01*
X-623467Y44450499D01*
X-826420Y44410130D01*
X-1017598Y44330941D01*
X-1189655Y44215977D01*
X-1335977Y44069655D01*
X-1450941Y43897598D01*
X-1530130Y43706420D01*
X-1570500Y43503465D01*
X-4059500Y43503465D01*
X-4059500Y43503469D01*
X-4099868Y43706412D01*
X-4099870Y43706420D01*
X-4179058Y43897596D01*
X-4294024Y44069657D01*
X-4440342Y44215975D01*
X-4454597Y44225500D01*
X-4612402Y44330941D01*
X-4803580Y44410130D01*
X-5006530Y44450499D01*
X-5006534Y44450500D01*
X-5006535Y44450500D01*
X-5213465Y44450500D01*
X-5213466Y44450500D01*
X-5213467Y44450499D01*
X-5416420Y44410130D01*
X-5607598Y44330941D01*
X-5779655Y44215977D01*
X-5925977Y44069655D01*
X-6040941Y43897598D01*
X-6120130Y43706420D01*
X-6160500Y43503465D01*
X-8649500Y43503465D01*
X-8649500Y43503469D01*
X-8689868Y43706412D01*
X-8689870Y43706420D01*
X-8769058Y43897596D01*
X-8884024Y44069657D01*
X-9030342Y44215975D01*
X-9044597Y44225500D01*
X-9202402Y44330941D01*
X-9393580Y44410130D01*
X-9596530Y44450499D01*
X-9596534Y44450500D01*
X-9596535Y44450500D01*
X-9803465Y44450500D01*
X-9803466Y44450500D01*
X-9803467Y44450499D01*
X-10006420Y44410130D01*
X-10197598Y44330941D01*
X-10369655Y44215977D01*
X-10515977Y44069655D01*
X-10630941Y43897598D01*
X-10710130Y43706420D01*
X-10750500Y43503465D01*
X-22299500Y43503465D01*
X-22299500Y44225500D01*
X-22279815Y44292539D01*
X-22227011Y44338294D01*
X-22175500Y44349500D01*
X-22010247Y44349500D01*
X-21951770Y44361131D01*
X-21951769Y44361132D01*
X-21885447Y44405447D01*
X-21841132Y44471769D01*
X-21841131Y44471770D01*
X-21829500Y44530247D01*
X-21829500Y46269752D01*
X-21841131Y46328229D01*
X-21841132Y46328230D01*
X-21885447Y46394552D01*
X-21951769Y46438867D01*
X-21951770Y46438868D01*
X-22010247Y46450499D01*
X-22010249Y46450500D01*
X-22010252Y46450500D01*
X-23749748Y46450500D01*
X-23749751Y46450500D01*
X-23749751Y46450499D01*
X-23764568Y46447552D01*
X-23808229Y46438868D01*
X-23808229Y46438867D01*
X-23808231Y46438867D01*
X-23874552Y46394552D01*
X-23918867Y46328231D01*
X-23918867Y46328230D01*
X-23918868Y46328229D01*
X-23930499Y46269752D01*
X-23930500Y46269750D01*
X-24830823Y46269750D01*
X-24830826Y46269752D01*
X-24922402Y46330941D01*
X-25113580Y46410130D01*
X-25316530Y46450499D01*
X-25316534Y46450500D01*
X-25316535Y46450500D01*
X-25523465Y46450500D01*
X-25523466Y46450500D01*
X-25523467Y46450499D01*
X-25726420Y46410130D01*
X-25917598Y46330941D01*
X-26089655Y46215977D01*
X-26235977Y46069655D01*
X-26350941Y45897598D01*
X-26430130Y45706420D01*
X-26470500Y45503465D01*
X-26909500Y45503465D01*
X-26909500Y45503469D01*
X-26949868Y45706412D01*
X-26949870Y45706420D01*
X-27029058Y45897596D01*
X-27144024Y46069657D01*
X-27290342Y46215975D01*
X-27370826Y46269752D01*
X-27462402Y46330941D01*
X-27653580Y46410130D01*
X-27856530Y46450499D01*
X-27856534Y46450500D01*
X-27856535Y46450500D01*
X-28063465Y46450500D01*
X-28063466Y46450500D01*
X-28063467Y46450499D01*
X-28266420Y46410130D01*
X-28457598Y46330941D01*
X-28629655Y46215977D01*
X-28775977Y46069655D01*
X-28890941Y45897598D01*
X-28970130Y45706420D01*
X-29010500Y45503465D01*
X-29449500Y45503465D01*
X-29449500Y45503469D01*
X-29489868Y45706412D01*
X-29489870Y45706420D01*
X-29569058Y45897596D01*
X-29684024Y46069657D01*
X-29830342Y46215975D01*
X-29910826Y46269752D01*
X-30002402Y46330941D01*
X-30193580Y46410130D01*
X-30396530Y46450499D01*
X-30396534Y46450500D01*
X-30396535Y46450500D01*
X-30603465Y46450500D01*
X-30603466Y46450500D01*
X-30603467Y46450499D01*
X-30806420Y46410130D01*
X-30997598Y46330941D01*
X-31169655Y46215977D01*
X-31315977Y46069655D01*
X-31430941Y45897598D01*
X-31510130Y45706420D01*
X-31550500Y45503465D01*
X-49499500Y45503465D01*
X-49499500Y49375500D01*
X-49479815Y49442539D01*
X-49427011Y49488294D01*
X-49375500Y49499500D01*
X49375500Y49499500D01*
X49442539Y49479815D01*
G37*
%TD.AperFunction*%
M02*
