%TF.GenerationSoftware,KiCad,Pcbnew,9.0.7*%
%TF.CreationDate,2026-04-14T15:06:33-03:00*%
%TF.ProjectId,p3-2,70332d32-2e6b-4696-9361-645f70636258,rev?*%
%TF.SameCoordinates,Original*%
%TF.FileFunction,Soldermask,Top*%
%TF.FilePolarity,Negative*%
%FSLAX46Y46*%
G04 Gerber Fmt 4.6, Leading zero omitted, Abs format (unit mm)*
G04 Created by KiCad (PCBNEW 9.0.7) date 2026-04-14 15:06:33*
%MOMM*%
%LPD*%
G01*
G04 APERTURE LIST*
G04 Aperture macros list*
%AMRoundRect*
0 Rectangle with rounded corners*
0 $1 Rounding radius*
0 $2 $3 $4 $5 $6 $7 $8 $9 X,Y pos of 4 corners*
0 Add a 4 corners polygon primitive as box body*
4,1,4,$2,$3,$4,$5,$6,$7,$8,$9,$2,$3,0*
0 Add four circle primitives for the rounded corners*
1,1,$1+$1,$2,$3*
1,1,$1+$1,$4,$5*
1,1,$1+$1,$6,$7*
1,1,$1+$1,$8,$9*
0 Add four rect primitives between the rounded corners*
20,1,$1+$1,$2,$3,$4,$5,0*
20,1,$1+$1,$4,$5,$6,$7,0*
20,1,$1+$1,$6,$7,$8,$9,0*
20,1,$1+$1,$8,$9,$2,$3,0*%
G04 Aperture macros list end*
%ADD10C,0.010000*%
%ADD11RoundRect,0.250000X-0.300000X-0.300000X0.300000X-0.300000X0.300000X0.300000X-0.300000X0.300000X0*%
%ADD12C,0.650000*%
%ADD13RoundRect,0.150000X0.150000X0.425000X-0.150000X0.425000X-0.150000X-0.425000X0.150000X-0.425000X0*%
%ADD14RoundRect,0.075000X0.075000X0.500000X-0.075000X0.500000X-0.075000X-0.500000X0.075000X-0.500000X0*%
%ADD15O,1.000000X2.100000*%
%ADD16O,1.000000X1.800000*%
%ADD17RoundRect,0.102000X0.575000X0.725000X-0.575000X0.725000X-0.575000X-0.725000X0.575000X-0.725000X0*%
%ADD18C,2.200000*%
%ADD19RoundRect,0.249999X-0.850001X0.850001X-0.850001X-0.850001X0.850001X-0.850001X0.850001X0.850001X0*%
%ADD20C,1.100000*%
%ADD21C,0.600000*%
%ADD22R,3.900000X3.900000*%
%ADD23R,0.900000X1.500000*%
%ADD24R,1.500000X0.900000*%
%ADD25RoundRect,0.250000X0.450000X-0.350000X0.450000X0.350000X-0.450000X0.350000X-0.450000X-0.350000X0*%
%ADD26C,5.700000*%
%ADD27RoundRect,0.250000X-0.350000X-0.450000X0.350000X-0.450000X0.350000X0.450000X-0.350000X0.450000X0*%
%ADD28RoundRect,0.250000X0.350000X0.450000X-0.350000X0.450000X-0.350000X-0.450000X0.350000X-0.450000X0*%
%ADD29R,1.700000X1.700000*%
%ADD30C,1.700000*%
%ADD31RoundRect,0.102000X-1.050000X-0.700000X1.050000X-0.700000X1.050000X0.700000X-1.050000X0.700000X0*%
%ADD32RoundRect,0.250000X-0.450000X0.350000X-0.450000X-0.350000X0.450000X-0.350000X0.450000X0.350000X0*%
%ADD33RoundRect,0.250000X0.475000X-0.337500X0.475000X0.337500X-0.475000X0.337500X-0.475000X-0.337500X0*%
%ADD34RoundRect,0.032160X0.369840X-0.744840X0.369840X0.744840X-0.369840X0.744840X-0.369840X-0.744840X0*%
%ADD35RoundRect,0.102000X0.625000X0.750000X-0.625000X0.750000X-0.625000X-0.750000X0.625000X-0.750000X0*%
%ADD36RoundRect,0.102000X-0.575000X-0.725000X0.575000X-0.725000X0.575000X0.725000X-0.575000X0.725000X0*%
%ADD37R,4.000000X6.000000*%
%ADD38RoundRect,0.250000X-1.000000X1.750000X-1.000000X-1.750000X1.000000X-1.750000X1.000000X1.750000X0*%
%ADD39RoundRect,0.102000X0.700000X-0.500000X0.700000X0.500000X-0.700000X0.500000X-0.700000X-0.500000X0*%
%ADD40RoundRect,0.250000X-0.337500X-0.475000X0.337500X-0.475000X0.337500X0.475000X-0.337500X0.475000X0*%
%ADD41RoundRect,0.102000X0.750000X-0.850000X0.750000X0.850000X-0.750000X0.850000X-0.750000X-0.850000X0*%
%ADD42RoundRect,0.060500X-0.776500X-0.181500X0.776500X-0.181500X0.776500X0.181500X-0.776500X0.181500X0*%
%ADD43RoundRect,0.102000X0.600000X0.600000X-0.600000X0.600000X-0.600000X-0.600000X0.600000X-0.600000X0*%
%ADD44RoundRect,0.102000X-0.725000X0.575000X-0.725000X-0.575000X0.725000X-0.575000X0.725000X0.575000X0*%
%ADD45RoundRect,0.141750X-0.950250X-0.425250X0.950250X-0.425250X0.950250X0.425250X-0.950250X0.425250X0*%
%ADD46RoundRect,0.273000X-0.819000X-1.444000X0.819000X-1.444000X0.819000X1.444000X-0.819000X1.444000X0*%
%ADD47RoundRect,0.102000X-0.600000X-0.600000X0.600000X-0.600000X0.600000X0.600000X-0.600000X0.600000X0*%
%ADD48RoundRect,0.250000X1.000000X1.000000X-1.000000X1.000000X-1.000000X-1.000000X1.000000X-1.000000X0*%
%ADD49C,2.500000*%
%ADD50RoundRect,0.150000X-0.150000X0.512500X-0.150000X-0.512500X0.150000X-0.512500X0.150000X0.512500X0*%
%ADD51RoundRect,0.102000X-0.700000X1.050000X-0.700000X-1.050000X0.700000X-1.050000X0.700000X1.050000X0*%
%ADD52RoundRect,0.102000X0.725000X-0.575000X0.725000X0.575000X-0.725000X0.575000X-0.725000X-0.575000X0*%
%ADD53RoundRect,0.250000X-0.350000X0.350000X-0.350000X-0.350000X0.350000X-0.350000X0.350000X0.350000X0*%
G04 APERTURE END LIST*
D10*
X20987500Y-31377500D02*
X19912500Y-31377500D01*
X19912500Y-30927500D01*
X20987500Y-30927500D01*
X20987500Y-31377500D01*
G36*
X20987500Y-31377500D02*
G01*
X19912500Y-31377500D01*
X19912500Y-30927500D01*
X20987500Y-30927500D01*
X20987500Y-31377500D01*
G37*
X20987500Y-30877500D02*
X19912500Y-30877500D01*
X19912500Y-30427500D01*
X20987500Y-30427500D01*
X20987500Y-30877500D01*
G36*
X20987500Y-30877500D02*
G01*
X19912500Y-30877500D01*
X19912500Y-30427500D01*
X20987500Y-30427500D01*
X20987500Y-30877500D01*
G37*
X20987500Y-30377500D02*
X19912500Y-30377500D01*
X19912500Y-29927500D01*
X20987500Y-29927500D01*
X20987500Y-30377500D01*
G36*
X20987500Y-30377500D02*
G01*
X19912500Y-30377500D01*
X19912500Y-29927500D01*
X20987500Y-29927500D01*
X20987500Y-30377500D01*
G37*
X20987500Y-29877500D02*
X19912500Y-29877500D01*
X19912500Y-29427500D01*
X20987500Y-29427500D01*
X20987500Y-29877500D01*
G36*
X20987500Y-29877500D02*
G01*
X19912500Y-29877500D01*
X19912500Y-29427500D01*
X20987500Y-29427500D01*
X20987500Y-29877500D01*
G37*
X19812500Y-31952500D02*
X19362500Y-31952500D01*
X19362500Y-30977500D01*
X19812500Y-30977500D01*
X19812500Y-31952500D01*
G36*
X19812500Y-31952500D02*
G01*
X19362500Y-31952500D01*
X19362500Y-30977500D01*
X19812500Y-30977500D01*
X19812500Y-31952500D01*
G37*
X19812500Y-29827500D02*
X19362500Y-29827500D01*
X19362500Y-28852500D01*
X19812500Y-28852500D01*
X19812500Y-29827500D01*
G36*
X19812500Y-29827500D02*
G01*
X19362500Y-29827500D01*
X19362500Y-28852500D01*
X19812500Y-28852500D01*
X19812500Y-29827500D01*
G37*
X19312500Y-31952500D02*
X18862500Y-31952500D01*
X18862500Y-30977500D01*
X19312500Y-30977500D01*
X19312500Y-31952500D01*
G36*
X19312500Y-31952500D02*
G01*
X18862500Y-31952500D01*
X18862500Y-30977500D01*
X19312500Y-30977500D01*
X19312500Y-31952500D01*
G37*
X19312500Y-29827500D02*
X18862500Y-29827500D01*
X18862500Y-28852500D01*
X19312500Y-28852500D01*
X19312500Y-29827500D01*
G36*
X19312500Y-29827500D02*
G01*
X18862500Y-29827500D01*
X18862500Y-28852500D01*
X19312500Y-28852500D01*
X19312500Y-29827500D01*
G37*
X18812500Y-31952500D02*
X18362500Y-31952500D01*
X18362500Y-30977500D01*
X18812500Y-30977500D01*
X18812500Y-31952500D01*
G36*
X18812500Y-31952500D02*
G01*
X18362500Y-31952500D01*
X18362500Y-30977500D01*
X18812500Y-30977500D01*
X18812500Y-31952500D01*
G37*
X18812500Y-29827500D02*
X18362500Y-29827500D01*
X18362500Y-28852500D01*
X18812500Y-28852500D01*
X18812500Y-29827500D01*
G36*
X18812500Y-29827500D02*
G01*
X18362500Y-29827500D01*
X18362500Y-28852500D01*
X18812500Y-28852500D01*
X18812500Y-29827500D01*
G37*
X18262500Y-31377500D02*
X17187500Y-31377500D01*
X17187500Y-30927500D01*
X18262500Y-30927500D01*
X18262500Y-31377500D01*
G36*
X18262500Y-31377500D02*
G01*
X17187500Y-31377500D01*
X17187500Y-30927500D01*
X18262500Y-30927500D01*
X18262500Y-31377500D01*
G37*
X18262500Y-30877500D02*
X17187500Y-30877500D01*
X17187500Y-30427500D01*
X18262500Y-30427500D01*
X18262500Y-30877500D01*
G36*
X18262500Y-30877500D02*
G01*
X17187500Y-30877500D01*
X17187500Y-30427500D01*
X18262500Y-30427500D01*
X18262500Y-30877500D01*
G37*
X18262500Y-30377500D02*
X17187500Y-30377500D01*
X17187500Y-29927500D01*
X18262500Y-29927500D01*
X18262500Y-30377500D01*
G36*
X18262500Y-30377500D02*
G01*
X17187500Y-30377500D01*
X17187500Y-29927500D01*
X18262500Y-29927500D01*
X18262500Y-30377500D01*
G37*
X18262500Y-29877500D02*
X17187500Y-29877500D01*
X17187500Y-29427500D01*
X18262500Y-29427500D01*
X18262500Y-29877500D01*
G36*
X18262500Y-29877500D02*
G01*
X17187500Y-29877500D01*
X17187500Y-29427500D01*
X18262500Y-29427500D01*
X18262500Y-29877500D01*
G37*
D11*
X-42100000Y-9050000D03*
X-39300000Y-9050000D03*
D12*
X36890000Y39095000D03*
X31110000Y39095000D03*
D13*
X37200000Y38020000D03*
X36400000Y38020000D03*
D14*
X35250000Y38020000D03*
X34250000Y38020000D03*
X33750000Y38020000D03*
X32750000Y38020000D03*
D13*
X31600000Y38020000D03*
X30800000Y38020000D03*
X30800000Y38020000D03*
X31600000Y38020000D03*
D14*
X32250000Y38020000D03*
X33250000Y38020000D03*
X34750000Y38020000D03*
X35750000Y38020000D03*
D13*
X36400000Y38020000D03*
X37200000Y38020000D03*
D15*
X38320000Y38595000D03*
D16*
X38320000Y42775000D03*
D15*
X29680000Y38595000D03*
D16*
X29680000Y42775000D03*
D17*
X20450000Y36100000D03*
X18650000Y36100000D03*
X20450000Y33750000D03*
X18650000Y33750000D03*
X20450000Y31700000D03*
X18650000Y31700000D03*
D18*
X-43892500Y36220000D03*
D19*
X-43892500Y38760000D03*
D20*
X-46432500Y36220000D03*
X-46432500Y38760000D03*
D18*
X-43892500Y28630000D03*
D19*
X-43892500Y31170000D03*
D20*
X-46432500Y28630000D03*
X-46432500Y31170000D03*
D18*
X-43892500Y21040000D03*
D19*
X-43892500Y23580000D03*
D20*
X-46432500Y21040000D03*
X-46432500Y23580000D03*
D18*
X-43892500Y13450000D03*
D19*
X-43892500Y15990000D03*
D20*
X-46432500Y13450000D03*
X-46432500Y15990000D03*
D21*
X40440000Y1100000D03*
X41840000Y1100000D03*
X39740000Y1800000D03*
X41140000Y1800000D03*
X42540000Y1800000D03*
X40440000Y2500000D03*
D22*
X41140000Y2500000D03*
D21*
X41840000Y2500000D03*
X39740000Y3200000D03*
X41140000Y3200000D03*
X42540000Y3200000D03*
X40440000Y3900000D03*
X41840000Y3900000D03*
D23*
X48860000Y-7750000D03*
X47590000Y-7750000D03*
X46320000Y-7750000D03*
X45050000Y-7750000D03*
X43780000Y-7750000D03*
X42510000Y-7750000D03*
X41240000Y-7750000D03*
X39970000Y-7750000D03*
X38700000Y-7750000D03*
X37430000Y-7750000D03*
X36160000Y-7750000D03*
X34890000Y-7750000D03*
X33620000Y-7750000D03*
X32350000Y-7750000D03*
D24*
X31100000Y-5985000D03*
X31100000Y-4715000D03*
X31100000Y-3445000D03*
X31100000Y-2175000D03*
X31100000Y-905000D03*
X31100000Y365000D03*
X31100000Y1635000D03*
X31100000Y2905000D03*
X31100000Y4175000D03*
X31100000Y5445000D03*
X31100000Y6715000D03*
X31100000Y7985000D03*
D23*
X32350000Y9750000D03*
X33620000Y9750000D03*
X34890000Y9750000D03*
X36160000Y9750000D03*
X37430000Y9750000D03*
X38700000Y9750000D03*
X39970000Y9750000D03*
X41240000Y9750000D03*
X42510000Y9750000D03*
X43780000Y9750000D03*
X45050000Y9750000D03*
X46320000Y9750000D03*
X47590000Y9750000D03*
X48860000Y9750000D03*
D25*
X15250000Y-13250000D03*
X15250000Y-11250000D03*
D17*
X16050000Y-29100000D03*
X14250000Y-29100000D03*
D26*
X44000000Y-44000000D03*
D27*
X-4700000Y18600000D03*
X-2700000Y18600000D03*
D28*
X1200000Y18600000D03*
X-800000Y18600000D03*
D25*
X22550000Y27000000D03*
X22550000Y29000000D03*
D29*
X-520000Y45940000D03*
D30*
X-520000Y43400000D03*
X-520000Y40860000D03*
D31*
X18200000Y-8300000D03*
X27300000Y-8300000D03*
X18200000Y-12800000D03*
X27300000Y-12800000D03*
D17*
X16050000Y-31300000D03*
X14250000Y-31300000D03*
D27*
X-4700000Y10200000D03*
X-2700000Y10200000D03*
X6100000Y-44200000D03*
X8100000Y-44200000D03*
D32*
X31750000Y34887500D03*
X31750000Y32887500D03*
D33*
X-23500000Y-4475000D03*
X-23500000Y-2400000D03*
D25*
X29860000Y-25000000D03*
X29860000Y-23000000D03*
D28*
X1400000Y1400000D03*
X-600000Y1400000D03*
D25*
X32810000Y-25000000D03*
X32810000Y-23000000D03*
D29*
X40200000Y-27900000D03*
D30*
X37660000Y-27900000D03*
X35120000Y-27900000D03*
X32580000Y-27900000D03*
X30040000Y-27900000D03*
D27*
X18550000Y-41750000D03*
X20550000Y-41750000D03*
D29*
X-7160000Y4380000D03*
D30*
X-4620000Y4380000D03*
X-2080000Y4380000D03*
X460000Y4380000D03*
D26*
X-44000000Y44000000D03*
D34*
X22350000Y33115000D03*
X23300000Y33115000D03*
X24250000Y33115000D03*
X24250000Y35485000D03*
X22350000Y35485000D03*
D32*
X37400000Y34737500D03*
X37400000Y32737500D03*
D35*
X-29700000Y-33370000D03*
X-31700000Y-33370000D03*
D36*
X19750000Y-27700000D03*
X21550000Y-27700000D03*
D37*
X-12100000Y-27500000D03*
X-12100000Y-16040000D03*
X-42100000Y-27500000D03*
X-42100000Y-16040000D03*
D26*
X-44000000Y-44000000D03*
D25*
X35760000Y-25000000D03*
X35760000Y-23000000D03*
D38*
X-21800000Y-35170000D03*
X-21800000Y-43170000D03*
D27*
X-6100000Y-44100000D03*
X-4100000Y-44100000D03*
D29*
X-22880000Y45400000D03*
D30*
X-25420000Y45400000D03*
X-27960000Y45400000D03*
X-30500000Y45400000D03*
X-33040000Y45400000D03*
D39*
X-4900000Y-5800000D03*
X-4900000Y-3900000D03*
X-7100000Y-4850000D03*
D40*
X44400000Y13800000D03*
X46475000Y13800000D03*
D41*
X-10350000Y-1700000D03*
X-20250000Y-1700000D03*
D42*
X10700000Y-42000000D03*
X10700000Y-42500000D03*
X10700000Y-43000000D03*
X10700000Y-43500000D03*
X10700000Y-44000000D03*
X15000000Y-44000000D03*
X15000000Y-43500000D03*
X15000000Y-43000000D03*
X15000000Y-42500000D03*
X15000000Y-42000000D03*
D29*
X-9700000Y45940000D03*
D30*
X-9700000Y43400000D03*
X-9700000Y40860000D03*
D43*
X-38600000Y-33500000D03*
X-36500000Y-33500000D03*
D29*
X-7200000Y13200000D03*
D30*
X-4660000Y13200000D03*
X-2120000Y13200000D03*
X420000Y13200000D03*
D40*
X-1937500Y-40700000D03*
X137500Y-40700000D03*
D25*
X38710000Y-25000000D03*
X38710000Y-23000000D03*
D44*
X-44200000Y-4700000D03*
X-44200000Y-6500000D03*
D45*
X-41600000Y-600000D03*
X-41600000Y-2900000D03*
X-41600000Y-5200000D03*
D46*
X-35570000Y-2900000D03*
D47*
X-30100000Y400000D03*
X-32200000Y400000D03*
D29*
X-7300000Y21600000D03*
D30*
X-4760000Y21600000D03*
X-2220000Y21600000D03*
X320000Y21600000D03*
D25*
X41660000Y-25000000D03*
X41660000Y-23000000D03*
D48*
X-32000000Y-44000000D03*
D49*
X-37000000Y-44000000D03*
D29*
X-5110000Y45940000D03*
D30*
X-5110000Y43400000D03*
X-5110000Y40860000D03*
D27*
X-32000000Y-2700000D03*
X-30000000Y-2700000D03*
X-43000000Y-33370000D03*
X-41000000Y-33370000D03*
D50*
X34900000Y30687500D03*
X33950000Y30687500D03*
X33000000Y30687500D03*
X33000000Y28412500D03*
X33950000Y28412500D03*
X34900000Y28412500D03*
D28*
X20550000Y-39150000D03*
X18550000Y-39150000D03*
X-4200000Y-40800000D03*
X-6200000Y-40800000D03*
D26*
X44000000Y44000000D03*
D51*
X46350000Y28262500D03*
X46350000Y19162500D03*
X41850000Y28262500D03*
X41850000Y19162500D03*
D52*
X-44300000Y-2700000D03*
X-44300000Y-900000D03*
D53*
X29200000Y34637500D03*
X29200000Y31237500D03*
D44*
X17200000Y-43600000D03*
X17200000Y-45400000D03*
D28*
X46400000Y16000000D03*
X44400000Y16000000D03*
D40*
X-16637500Y-8600000D03*
X-14562500Y-8600000D03*
D28*
X-200000Y-4650000D03*
X-2200000Y-4650000D03*
D27*
X-4500000Y1380000D03*
X-2500000Y1380000D03*
D28*
X1200000Y10200000D03*
X-800000Y10200000D03*
D32*
X20550000Y28950000D03*
X20550000Y26950000D03*
M02*
