M48
; DRILL file {KiCad 9.0.7} date 2026-04-14T15:11:29-0300
; FORMAT={-:-/ absolute / metric / decimal}
; #@! TF.CreationDate,2026-04-14T15:11:29-03:00
; #@! TF.GenerationSoftware,Kicad,Pcbnew,9.0.7
; #@! TF.FileFunction,Plated,1,2,PTH
FMAT,2
METRIC
; #@! TA.AperFunction,Plated,PTH,ComponentDrill
T1C0.200
; #@! TA.AperFunction,Plated,PTH,ViaDrill
T2C0.300
; #@! TA.AperFunction,Plated,PTH,ViaDrill
T3C0.400
; #@! TA.AperFunction,Plated,PTH,ComponentDrill
T4C0.600
; #@! TA.AperFunction,Plated,PTH,ComponentDrill
T5C1.000
; #@! TA.AperFunction,Plated,PTH,ComponentDrill
T6C1.100
; #@! TA.AperFunction,Plated,PTH,ComponentDrill
T7C1.300
; #@! TA.AperFunction,Plated,PTH,ComponentDrill
T8C3.200
%
G90
G05
T1
X39.74Y3.2
X39.74Y1.8
X40.44Y3.9
X40.44Y2.5
X40.44Y1.1
X41.14Y3.2
X41.14Y1.8
X41.84Y3.9
X41.84Y2.5
X41.84Y1.1
X42.54Y3.2
X42.54Y1.8
T2
X-46.4Y-38.5
X-45.8Y-0.5
X-45.4Y-30.8
X-44.9Y-7.8
X-39.6Y47.5
X-16.2Y-34.0
X14.4Y-38.4
X15.6Y-38.4
X21.6Y-25.9
X24.85Y27.0
X27.6Y8.1
X27.6Y5.6
X27.6Y4.3
X30.2Y12.1
X33.3Y24.85
X33.625Y36.35
X34.331Y25.568
X34.4Y12.0
X35.1Y36.25
X35.62Y12.0
X36.89Y12.0
X38.2Y12.0
X39.5Y12.0
X40.7Y12.0
X41.97Y12.0
X43.2Y12.0
X44.65Y11.8
X45.9Y39.0
X46.8Y-39.6
X47.8Y12.4
T3
X-31.6Y-5.95
X7.95Y-36.5
X13.75Y-36.5
X19.9Y-36.5
X24.75Y-43.55
X30.806Y36.244
X33.95Y28.486
X39.0Y36.15
T5
X-33.04Y45.4
X-30.5Y45.4
X-27.96Y45.4
X-25.42Y45.4
X-22.88Y45.4
X-9.7Y45.94
X-9.7Y43.4
X-9.7Y40.86
X-7.3Y21.6
X-7.2Y13.2
X-7.16Y4.38
X-5.11Y45.94
X-5.11Y43.4
X-5.11Y40.86
X-4.76Y21.6
X-4.66Y13.2
X-4.62Y4.38
X-2.22Y21.6
X-2.12Y13.2
X-2.08Y4.38
X-0.52Y45.94
X-0.52Y43.4
X-0.52Y40.86
X0.32Y21.6
X0.42Y13.2
X0.46Y4.38
X30.04Y-27.9
X32.58Y-27.9
X35.12Y-27.9
X37.66Y-27.9
X40.2Y-27.9
T6
X-43.892Y38.76
X-43.892Y36.22
X-43.892Y31.17
X-43.892Y28.63
X-43.892Y23.58
X-43.892Y21.04
X-43.892Y15.99
X-43.892Y13.45
T7
X-37.0Y-44.0
X-32.0Y-44.0
T8
X-44.0Y44.0
X-44.0Y-44.0
X44.0Y44.0
X44.0Y-44.0
T4
G00X29.68Y42.375
M15
G01X29.68Y43.175
M16
G05
G00X29.68Y38.045
M15
G01X29.68Y39.145
M16
G05
G00X38.32Y42.375
M15
G01X38.32Y43.175
M16
G05
G00X38.32Y38.045
M15
G01X38.32Y39.145
M16
G05
M30
