%TF.GenerationSoftware,KiCad,Pcbnew,9.0.7*%
%TF.CreationDate,2026-04-14T15:06:33-03:00*%
%TF.ProjectId,p3-2,70332d32-2e6b-4696-9361-645f70636258,rev?*%
%TF.SameCoordinates,Original*%
%TF.FileFunction,Legend,Bot*%
%TF.FilePolarity,Positive*%
%FSLAX46Y46*%
G04 Gerber Fmt 4.6, Leading zero omitted, Abs format (unit mm)*
G04 Created by KiCad (PCBNEW 9.0.7) date 2026-04-14 15:06:33*
%MOMM*%
%LPD*%
G01*
G04 APERTURE LIST*
G04 Aperture macros list*
%AMRoundRect*
0 Rectangle with rounded corners*
0 $1 Rounding radius*
0 $2 $3 $4 $5 $6 $7 $8 $9 X,Y pos of 4 corners*
0 Add a 4 corners polygon primitive as box body*
4,1,4,$2,$3,$4,$5,$6,$7,$8,$9,$2,$3,0*
0 Add four circle primitives for the rounded corners*
1,1,$1+$1,$2,$3*
1,1,$1+$1,$4,$5*
1,1,$1+$1,$6,$7*
1,1,$1+$1,$8,$9*
0 Add four rect primitives between the rounded corners*
20,1,$1+$1,$2,$3,$4,$5,0*
20,1,$1+$1,$4,$5,$6,$7,0*
20,1,$1+$1,$6,$7,$8,$9,0*
20,1,$1+$1,$8,$9,$2,$3,0*%
G04 Aperture macros list end*
%ADD10C,0.150000*%
%ADD11C,0.120000*%
%ADD12C,0.200000*%
%ADD13C,0.650000*%
%ADD14O,1.000000X2.100000*%
%ADD15O,1.000000X1.800000*%
%ADD16C,2.200000*%
%ADD17RoundRect,0.249999X-0.850001X0.850001X-0.850001X-0.850001X0.850001X-0.850001X0.850001X0.850001X0*%
%ADD18C,1.100000*%
%ADD19C,5.700000*%
%ADD20R,1.700000X1.700000*%
%ADD21C,1.700000*%
%ADD22RoundRect,0.250000X1.000000X1.000000X-1.000000X1.000000X-1.000000X-1.000000X1.000000X-1.000000X0*%
%ADD23C,2.500000*%
%ADD24RoundRect,0.250000X-0.450000X0.350000X-0.450000X-0.350000X0.450000X-0.350000X0.450000X0.350000X0*%
%ADD25RoundRect,0.250000X-0.350000X-0.450000X0.350000X-0.450000X0.350000X0.450000X-0.350000X0.450000X0*%
%ADD26RoundRect,0.250000X0.350000X0.450000X-0.350000X0.450000X-0.350000X-0.450000X0.350000X-0.450000X0*%
%ADD27RoundRect,0.250000X0.450000X-0.350000X0.450000X0.350000X-0.450000X0.350000X-0.450000X-0.350000X0*%
%ADD28RoundRect,0.102000X-0.575000X-0.725000X0.575000X-0.725000X0.575000X0.725000X-0.575000X0.725000X0*%
G04 APERTURE END LIST*
D10*
X-23845180Y37642857D02*
X-24321371Y37976190D01*
X-23845180Y38214285D02*
X-24845180Y38214285D01*
X-24845180Y38214285D02*
X-24845180Y37833333D01*
X-24845180Y37833333D02*
X-24797561Y37738095D01*
X-24797561Y37738095D02*
X-24749942Y37690476D01*
X-24749942Y37690476D02*
X-24654704Y37642857D01*
X-24654704Y37642857D02*
X-24511847Y37642857D01*
X-24511847Y37642857D02*
X-24416609Y37690476D01*
X-24416609Y37690476D02*
X-24368990Y37738095D01*
X-24368990Y37738095D02*
X-24321371Y37833333D01*
X-24321371Y37833333D02*
X-24321371Y38214285D01*
X-23845180Y36690476D02*
X-23845180Y37261904D01*
X-23845180Y36976190D02*
X-24845180Y36976190D01*
X-24845180Y36976190D02*
X-24702323Y37071428D01*
X-24702323Y37071428D02*
X-24607085Y37166666D01*
X-24607085Y37166666D02*
X-24559466Y37261904D01*
X-23845180Y35738095D02*
X-23845180Y36309523D01*
X-23845180Y36023809D02*
X-24845180Y36023809D01*
X-24845180Y36023809D02*
X-24702323Y36119047D01*
X-24702323Y36119047D02*
X-24607085Y36214285D01*
X-24607085Y36214285D02*
X-24559466Y36309523D01*
X-33233333Y12945180D02*
X-32900000Y13421371D01*
X-32661905Y12945180D02*
X-32661905Y13945180D01*
X-32661905Y13945180D02*
X-33042857Y13945180D01*
X-33042857Y13945180D02*
X-33138095Y13897561D01*
X-33138095Y13897561D02*
X-33185714Y13849942D01*
X-33185714Y13849942D02*
X-33233333Y13754704D01*
X-33233333Y13754704D02*
X-33233333Y13611847D01*
X-33233333Y13611847D02*
X-33185714Y13516609D01*
X-33185714Y13516609D02*
X-33138095Y13468990D01*
X-33138095Y13468990D02*
X-33042857Y13421371D01*
X-33042857Y13421371D02*
X-32661905Y13421371D01*
X-33566667Y13945180D02*
X-34233333Y13945180D01*
X-34233333Y13945180D02*
X-33804762Y12945180D01*
X142857Y34845180D02*
X476190Y35321371D01*
X714285Y34845180D02*
X714285Y35845180D01*
X714285Y35845180D02*
X333333Y35845180D01*
X333333Y35845180D02*
X238095Y35797561D01*
X238095Y35797561D02*
X190476Y35749942D01*
X190476Y35749942D02*
X142857Y35654704D01*
X142857Y35654704D02*
X142857Y35511847D01*
X142857Y35511847D02*
X190476Y35416609D01*
X190476Y35416609D02*
X238095Y35368990D01*
X238095Y35368990D02*
X333333Y35321371D01*
X333333Y35321371D02*
X714285Y35321371D01*
X-238095Y35749942D02*
X-285714Y35797561D01*
X-285714Y35797561D02*
X-380952Y35845180D01*
X-380952Y35845180D02*
X-619047Y35845180D01*
X-619047Y35845180D02*
X-714285Y35797561D01*
X-714285Y35797561D02*
X-761904Y35749942D01*
X-761904Y35749942D02*
X-809523Y35654704D01*
X-809523Y35654704D02*
X-809523Y35559466D01*
X-809523Y35559466D02*
X-761904Y35416609D01*
X-761904Y35416609D02*
X-190476Y34845180D01*
X-190476Y34845180D02*
X-809523Y34845180D01*
X-1666666Y35845180D02*
X-1476190Y35845180D01*
X-1476190Y35845180D02*
X-1380952Y35797561D01*
X-1380952Y35797561D02*
X-1333333Y35749942D01*
X-1333333Y35749942D02*
X-1238095Y35607085D01*
X-1238095Y35607085D02*
X-1190476Y35416609D01*
X-1190476Y35416609D02*
X-1190476Y35035657D01*
X-1190476Y35035657D02*
X-1238095Y34940419D01*
X-1238095Y34940419D02*
X-1285714Y34892800D01*
X-1285714Y34892800D02*
X-1380952Y34845180D01*
X-1380952Y34845180D02*
X-1571428Y34845180D01*
X-1571428Y34845180D02*
X-1666666Y34892800D01*
X-1666666Y34892800D02*
X-1714285Y34940419D01*
X-1714285Y34940419D02*
X-1761904Y35035657D01*
X-1761904Y35035657D02*
X-1761904Y35273752D01*
X-1761904Y35273752D02*
X-1714285Y35368990D01*
X-1714285Y35368990D02*
X-1666666Y35416609D01*
X-1666666Y35416609D02*
X-1571428Y35464228D01*
X-1571428Y35464228D02*
X-1380952Y35464228D01*
X-1380952Y35464228D02*
X-1285714Y35416609D01*
X-1285714Y35416609D02*
X-1238095Y35368990D01*
X-1238095Y35368990D02*
X-1190476Y35273752D01*
X-26445180Y37642857D02*
X-26921371Y37976190D01*
X-26445180Y38214285D02*
X-27445180Y38214285D01*
X-27445180Y38214285D02*
X-27445180Y37833333D01*
X-27445180Y37833333D02*
X-27397561Y37738095D01*
X-27397561Y37738095D02*
X-27349942Y37690476D01*
X-27349942Y37690476D02*
X-27254704Y37642857D01*
X-27254704Y37642857D02*
X-27111847Y37642857D01*
X-27111847Y37642857D02*
X-27016609Y37690476D01*
X-27016609Y37690476D02*
X-26968990Y37738095D01*
X-26968990Y37738095D02*
X-26921371Y37833333D01*
X-26921371Y37833333D02*
X-26921371Y38214285D01*
X-26445180Y36690476D02*
X-26445180Y37261904D01*
X-26445180Y36976190D02*
X-27445180Y36976190D01*
X-27445180Y36976190D02*
X-27302323Y37071428D01*
X-27302323Y37071428D02*
X-27207085Y37166666D01*
X-27207085Y37166666D02*
X-27159466Y37261904D01*
X-27445180Y35833333D02*
X-27445180Y36023809D01*
X-27445180Y36023809D02*
X-27397561Y36119047D01*
X-27397561Y36119047D02*
X-27349942Y36166666D01*
X-27349942Y36166666D02*
X-27207085Y36261904D01*
X-27207085Y36261904D02*
X-27016609Y36309523D01*
X-27016609Y36309523D02*
X-26635657Y36309523D01*
X-26635657Y36309523D02*
X-26540419Y36261904D01*
X-26540419Y36261904D02*
X-26492800Y36214285D01*
X-26492800Y36214285D02*
X-26445180Y36119047D01*
X-26445180Y36119047D02*
X-26445180Y35928571D01*
X-26445180Y35928571D02*
X-26492800Y35833333D01*
X-26492800Y35833333D02*
X-26540419Y35785714D01*
X-26540419Y35785714D02*
X-26635657Y35738095D01*
X-26635657Y35738095D02*
X-26873752Y35738095D01*
X-26873752Y35738095D02*
X-26968990Y35785714D01*
X-26968990Y35785714D02*
X-27016609Y35833333D01*
X-27016609Y35833333D02*
X-27064228Y35928571D01*
X-27064228Y35928571D02*
X-27064228Y36119047D01*
X-27064228Y36119047D02*
X-27016609Y36214285D01*
X-27016609Y36214285D02*
X-26968990Y36261904D01*
X-26968990Y36261904D02*
X-26873752Y36309523D01*
X-21345180Y37642857D02*
X-21821371Y37976190D01*
X-21345180Y38214285D02*
X-22345180Y38214285D01*
X-22345180Y38214285D02*
X-22345180Y37833333D01*
X-22345180Y37833333D02*
X-22297561Y37738095D01*
X-22297561Y37738095D02*
X-22249942Y37690476D01*
X-22249942Y37690476D02*
X-22154704Y37642857D01*
X-22154704Y37642857D02*
X-22011847Y37642857D01*
X-22011847Y37642857D02*
X-21916609Y37690476D01*
X-21916609Y37690476D02*
X-21868990Y37738095D01*
X-21868990Y37738095D02*
X-21821371Y37833333D01*
X-21821371Y37833333D02*
X-21821371Y38214285D01*
X-21345180Y36690476D02*
X-21345180Y37261904D01*
X-21345180Y36976190D02*
X-22345180Y36976190D01*
X-22345180Y36976190D02*
X-22202323Y37071428D01*
X-22202323Y37071428D02*
X-22107085Y37166666D01*
X-22107085Y37166666D02*
X-22059466Y37261904D01*
X-22345180Y36071428D02*
X-22345180Y35976190D01*
X-22345180Y35976190D02*
X-22297561Y35880952D01*
X-22297561Y35880952D02*
X-22249942Y35833333D01*
X-22249942Y35833333D02*
X-22154704Y35785714D01*
X-22154704Y35785714D02*
X-21964228Y35738095D01*
X-21964228Y35738095D02*
X-21726133Y35738095D01*
X-21726133Y35738095D02*
X-21535657Y35785714D01*
X-21535657Y35785714D02*
X-21440419Y35833333D01*
X-21440419Y35833333D02*
X-21392800Y35880952D01*
X-21392800Y35880952D02*
X-21345180Y35976190D01*
X-21345180Y35976190D02*
X-21345180Y36071428D01*
X-21345180Y36071428D02*
X-21392800Y36166666D01*
X-21392800Y36166666D02*
X-21440419Y36214285D01*
X-21440419Y36214285D02*
X-21535657Y36261904D01*
X-21535657Y36261904D02*
X-21726133Y36309523D01*
X-21726133Y36309523D02*
X-21964228Y36309523D01*
X-21964228Y36309523D02*
X-22154704Y36261904D01*
X-22154704Y36261904D02*
X-22249942Y36214285D01*
X-22249942Y36214285D02*
X-22297561Y36166666D01*
X-22297561Y36166666D02*
X-22345180Y36071428D01*
X-9157142Y34845180D02*
X-8823809Y35321371D01*
X-8585714Y34845180D02*
X-8585714Y35845180D01*
X-8585714Y35845180D02*
X-8966666Y35845180D01*
X-8966666Y35845180D02*
X-9061904Y35797561D01*
X-9061904Y35797561D02*
X-9109523Y35749942D01*
X-9109523Y35749942D02*
X-9157142Y35654704D01*
X-9157142Y35654704D02*
X-9157142Y35511847D01*
X-9157142Y35511847D02*
X-9109523Y35416609D01*
X-9109523Y35416609D02*
X-9061904Y35368990D01*
X-9061904Y35368990D02*
X-8966666Y35321371D01*
X-8966666Y35321371D02*
X-8585714Y35321371D01*
X-9538095Y35749942D02*
X-9585714Y35797561D01*
X-9585714Y35797561D02*
X-9680952Y35845180D01*
X-9680952Y35845180D02*
X-9919047Y35845180D01*
X-9919047Y35845180D02*
X-10014285Y35797561D01*
X-10014285Y35797561D02*
X-10061904Y35749942D01*
X-10061904Y35749942D02*
X-10109523Y35654704D01*
X-10109523Y35654704D02*
X-10109523Y35559466D01*
X-10109523Y35559466D02*
X-10061904Y35416609D01*
X-10061904Y35416609D02*
X-9490476Y34845180D01*
X-9490476Y34845180D02*
X-10109523Y34845180D01*
X-10966666Y35511847D02*
X-10966666Y34845180D01*
X-10728571Y35892800D02*
X-10490476Y35178514D01*
X-10490476Y35178514D02*
X-11109523Y35178514D01*
X-33533333Y28045180D02*
X-33200000Y28521371D01*
X-32961905Y28045180D02*
X-32961905Y29045180D01*
X-32961905Y29045180D02*
X-33342857Y29045180D01*
X-33342857Y29045180D02*
X-33438095Y28997561D01*
X-33438095Y28997561D02*
X-33485714Y28949942D01*
X-33485714Y28949942D02*
X-33533333Y28854704D01*
X-33533333Y28854704D02*
X-33533333Y28711847D01*
X-33533333Y28711847D02*
X-33485714Y28616609D01*
X-33485714Y28616609D02*
X-33438095Y28568990D01*
X-33438095Y28568990D02*
X-33342857Y28521371D01*
X-33342857Y28521371D02*
X-32961905Y28521371D01*
X-34438095Y29045180D02*
X-33961905Y29045180D01*
X-33961905Y29045180D02*
X-33914286Y28568990D01*
X-33914286Y28568990D02*
X-33961905Y28616609D01*
X-33961905Y28616609D02*
X-34057143Y28664228D01*
X-34057143Y28664228D02*
X-34295238Y28664228D01*
X-34295238Y28664228D02*
X-34390476Y28616609D01*
X-34390476Y28616609D02*
X-34438095Y28568990D01*
X-34438095Y28568990D02*
X-34485714Y28473752D01*
X-34485714Y28473752D02*
X-34485714Y28235657D01*
X-34485714Y28235657D02*
X-34438095Y28140419D01*
X-34438095Y28140419D02*
X-34390476Y28092800D01*
X-34390476Y28092800D02*
X-34295238Y28045180D01*
X-34295238Y28045180D02*
X-34057143Y28045180D01*
X-34057143Y28045180D02*
X-33961905Y28092800D01*
X-33961905Y28092800D02*
X-33914286Y28140419D01*
X-29045180Y37742857D02*
X-29521371Y38076190D01*
X-29045180Y38314285D02*
X-30045180Y38314285D01*
X-30045180Y38314285D02*
X-30045180Y37933333D01*
X-30045180Y37933333D02*
X-29997561Y37838095D01*
X-29997561Y37838095D02*
X-29949942Y37790476D01*
X-29949942Y37790476D02*
X-29854704Y37742857D01*
X-29854704Y37742857D02*
X-29711847Y37742857D01*
X-29711847Y37742857D02*
X-29616609Y37790476D01*
X-29616609Y37790476D02*
X-29568990Y37838095D01*
X-29568990Y37838095D02*
X-29521371Y37933333D01*
X-29521371Y37933333D02*
X-29521371Y38314285D01*
X-29045180Y36790476D02*
X-29045180Y37361904D01*
X-29045180Y37076190D02*
X-30045180Y37076190D01*
X-30045180Y37076190D02*
X-29902323Y37171428D01*
X-29902323Y37171428D02*
X-29807085Y37266666D01*
X-29807085Y37266666D02*
X-29759466Y37361904D01*
X-30045180Y36457142D02*
X-30045180Y35790476D01*
X-30045180Y35790476D02*
X-29045180Y36219047D01*
X-33933333Y35745180D02*
X-33600000Y36221371D01*
X-33361905Y35745180D02*
X-33361905Y36745180D01*
X-33361905Y36745180D02*
X-33742857Y36745180D01*
X-33742857Y36745180D02*
X-33838095Y36697561D01*
X-33838095Y36697561D02*
X-33885714Y36649942D01*
X-33885714Y36649942D02*
X-33933333Y36554704D01*
X-33933333Y36554704D02*
X-33933333Y36411847D01*
X-33933333Y36411847D02*
X-33885714Y36316609D01*
X-33885714Y36316609D02*
X-33838095Y36268990D01*
X-33838095Y36268990D02*
X-33742857Y36221371D01*
X-33742857Y36221371D02*
X-33361905Y36221371D01*
X-34790476Y36411847D02*
X-34790476Y35745180D01*
X-34552381Y36792800D02*
X-34314286Y36078514D01*
X-34314286Y36078514D02*
X-34933333Y36078514D01*
X-32611904Y30690419D02*
X-32564285Y30642800D01*
X-32564285Y30642800D02*
X-32421428Y30595180D01*
X-32421428Y30595180D02*
X-32326190Y30595180D01*
X-32326190Y30595180D02*
X-32183333Y30642800D01*
X-32183333Y30642800D02*
X-32088095Y30738038D01*
X-32088095Y30738038D02*
X-32040476Y30833276D01*
X-32040476Y30833276D02*
X-31992857Y31023752D01*
X-31992857Y31023752D02*
X-31992857Y31166609D01*
X-31992857Y31166609D02*
X-32040476Y31357085D01*
X-32040476Y31357085D02*
X-32088095Y31452323D01*
X-32088095Y31452323D02*
X-32183333Y31547561D01*
X-32183333Y31547561D02*
X-32326190Y31595180D01*
X-32326190Y31595180D02*
X-32421428Y31595180D01*
X-32421428Y31595180D02*
X-32564285Y31547561D01*
X-32564285Y31547561D02*
X-32611904Y31499942D01*
X-33040476Y30595180D02*
X-33040476Y31595180D01*
X-33040476Y31595180D02*
X-33373809Y30880895D01*
X-33373809Y30880895D02*
X-33707142Y31595180D01*
X-33707142Y31595180D02*
X-33707142Y30595180D01*
X-34326190Y31166609D02*
X-34230952Y31214228D01*
X-34230952Y31214228D02*
X-34183333Y31261847D01*
X-34183333Y31261847D02*
X-34135714Y31357085D01*
X-34135714Y31357085D02*
X-34135714Y31404704D01*
X-34135714Y31404704D02*
X-34183333Y31499942D01*
X-34183333Y31499942D02*
X-34230952Y31547561D01*
X-34230952Y31547561D02*
X-34326190Y31595180D01*
X-34326190Y31595180D02*
X-34516666Y31595180D01*
X-34516666Y31595180D02*
X-34611904Y31547561D01*
X-34611904Y31547561D02*
X-34659523Y31499942D01*
X-34659523Y31499942D02*
X-34707142Y31404704D01*
X-34707142Y31404704D02*
X-34707142Y31357085D01*
X-34707142Y31357085D02*
X-34659523Y31261847D01*
X-34659523Y31261847D02*
X-34611904Y31214228D01*
X-34611904Y31214228D02*
X-34516666Y31166609D01*
X-34516666Y31166609D02*
X-34326190Y31166609D01*
X-34326190Y31166609D02*
X-34230952Y31118990D01*
X-34230952Y31118990D02*
X-34183333Y31071371D01*
X-34183333Y31071371D02*
X-34135714Y30976133D01*
X-34135714Y30976133D02*
X-34135714Y30785657D01*
X-34135714Y30785657D02*
X-34183333Y30690419D01*
X-34183333Y30690419D02*
X-34230952Y30642800D01*
X-34230952Y30642800D02*
X-34326190Y30595180D01*
X-34326190Y30595180D02*
X-34516666Y30595180D01*
X-34516666Y30595180D02*
X-34611904Y30642800D01*
X-34611904Y30642800D02*
X-34659523Y30690419D01*
X-34659523Y30690419D02*
X-34707142Y30785657D01*
X-34707142Y30785657D02*
X-34707142Y30976133D01*
X-34707142Y30976133D02*
X-34659523Y31071371D01*
X-34659523Y31071371D02*
X-34611904Y31118990D01*
X-34611904Y31118990D02*
X-34516666Y31166609D01*
X-4457142Y34845180D02*
X-4123809Y35321371D01*
X-3885714Y34845180D02*
X-3885714Y35845180D01*
X-3885714Y35845180D02*
X-4266666Y35845180D01*
X-4266666Y35845180D02*
X-4361904Y35797561D01*
X-4361904Y35797561D02*
X-4409523Y35749942D01*
X-4409523Y35749942D02*
X-4457142Y35654704D01*
X-4457142Y35654704D02*
X-4457142Y35511847D01*
X-4457142Y35511847D02*
X-4409523Y35416609D01*
X-4409523Y35416609D02*
X-4361904Y35368990D01*
X-4361904Y35368990D02*
X-4266666Y35321371D01*
X-4266666Y35321371D02*
X-3885714Y35321371D01*
X-4838095Y35749942D02*
X-4885714Y35797561D01*
X-4885714Y35797561D02*
X-4980952Y35845180D01*
X-4980952Y35845180D02*
X-5219047Y35845180D01*
X-5219047Y35845180D02*
X-5314285Y35797561D01*
X-5314285Y35797561D02*
X-5361904Y35749942D01*
X-5361904Y35749942D02*
X-5409523Y35654704D01*
X-5409523Y35654704D02*
X-5409523Y35559466D01*
X-5409523Y35559466D02*
X-5361904Y35416609D01*
X-5361904Y35416609D02*
X-4790476Y34845180D01*
X-4790476Y34845180D02*
X-5409523Y34845180D01*
X-6314285Y35845180D02*
X-5838095Y35845180D01*
X-5838095Y35845180D02*
X-5790476Y35368990D01*
X-5790476Y35368990D02*
X-5838095Y35416609D01*
X-5838095Y35416609D02*
X-5933333Y35464228D01*
X-5933333Y35464228D02*
X-6171428Y35464228D01*
X-6171428Y35464228D02*
X-6266666Y35416609D01*
X-6266666Y35416609D02*
X-6314285Y35368990D01*
X-6314285Y35368990D02*
X-6361904Y35273752D01*
X-6361904Y35273752D02*
X-6361904Y35035657D01*
X-6361904Y35035657D02*
X-6314285Y34940419D01*
X-6314285Y34940419D02*
X-6266666Y34892800D01*
X-6266666Y34892800D02*
X-6171428Y34845180D01*
X-6171428Y34845180D02*
X-5933333Y34845180D01*
X-5933333Y34845180D02*
X-5838095Y34892800D01*
X-5838095Y34892800D02*
X-5790476Y34940419D01*
X-33940475Y20745180D02*
X-33607142Y21221371D01*
X-33369047Y20745180D02*
X-33369047Y21745180D01*
X-33369047Y21745180D02*
X-33749999Y21745180D01*
X-33749999Y21745180D02*
X-33845237Y21697561D01*
X-33845237Y21697561D02*
X-33892856Y21649942D01*
X-33892856Y21649942D02*
X-33940475Y21554704D01*
X-33940475Y21554704D02*
X-33940475Y21411847D01*
X-33940475Y21411847D02*
X-33892856Y21316609D01*
X-33892856Y21316609D02*
X-33845237Y21268990D01*
X-33845237Y21268990D02*
X-33749999Y21221371D01*
X-33749999Y21221371D02*
X-33369047Y21221371D01*
X-34797618Y21745180D02*
X-34607142Y21745180D01*
X-34607142Y21745180D02*
X-34511904Y21697561D01*
X-34511904Y21697561D02*
X-34464285Y21649942D01*
X-34464285Y21649942D02*
X-34369047Y21507085D01*
X-34369047Y21507085D02*
X-34321428Y21316609D01*
X-34321428Y21316609D02*
X-34321428Y20935657D01*
X-34321428Y20935657D02*
X-34369047Y20840419D01*
X-34369047Y20840419D02*
X-34416666Y20792800D01*
X-34416666Y20792800D02*
X-34511904Y20745180D01*
X-34511904Y20745180D02*
X-34702380Y20745180D01*
X-34702380Y20745180D02*
X-34797618Y20792800D01*
X-34797618Y20792800D02*
X-34845237Y20840419D01*
X-34845237Y20840419D02*
X-34892856Y20935657D01*
X-34892856Y20935657D02*
X-34892856Y21173752D01*
X-34892856Y21173752D02*
X-34845237Y21268990D01*
X-34845237Y21268990D02*
X-34797618Y21316609D01*
X-34797618Y21316609D02*
X-34702380Y21364228D01*
X-34702380Y21364228D02*
X-34511904Y21364228D01*
X-34511904Y21364228D02*
X-34416666Y21316609D01*
X-34416666Y21316609D02*
X-34369047Y21268990D01*
X-34369047Y21268990D02*
X-34321428Y21173752D01*
X-32761904Y38440419D02*
X-32714285Y38392800D01*
X-32714285Y38392800D02*
X-32571428Y38345180D01*
X-32571428Y38345180D02*
X-32476190Y38345180D01*
X-32476190Y38345180D02*
X-32333333Y38392800D01*
X-32333333Y38392800D02*
X-32238095Y38488038D01*
X-32238095Y38488038D02*
X-32190476Y38583276D01*
X-32190476Y38583276D02*
X-32142857Y38773752D01*
X-32142857Y38773752D02*
X-32142857Y38916609D01*
X-32142857Y38916609D02*
X-32190476Y39107085D01*
X-32190476Y39107085D02*
X-32238095Y39202323D01*
X-32238095Y39202323D02*
X-32333333Y39297561D01*
X-32333333Y39297561D02*
X-32476190Y39345180D01*
X-32476190Y39345180D02*
X-32571428Y39345180D01*
X-32571428Y39345180D02*
X-32714285Y39297561D01*
X-32714285Y39297561D02*
X-32761904Y39249942D01*
X-33190476Y38345180D02*
X-33190476Y39345180D01*
X-33190476Y39345180D02*
X-33523809Y38630895D01*
X-33523809Y38630895D02*
X-33857142Y39345180D01*
X-33857142Y39345180D02*
X-33857142Y38345180D01*
X-34238095Y39345180D02*
X-34904761Y39345180D01*
X-34904761Y39345180D02*
X-34476190Y38345180D01*
X-31185714Y15640419D02*
X-31138095Y15592800D01*
X-31138095Y15592800D02*
X-30995238Y15545180D01*
X-30995238Y15545180D02*
X-30900000Y15545180D01*
X-30900000Y15545180D02*
X-30757143Y15592800D01*
X-30757143Y15592800D02*
X-30661905Y15688038D01*
X-30661905Y15688038D02*
X-30614286Y15783276D01*
X-30614286Y15783276D02*
X-30566667Y15973752D01*
X-30566667Y15973752D02*
X-30566667Y16116609D01*
X-30566667Y16116609D02*
X-30614286Y16307085D01*
X-30614286Y16307085D02*
X-30661905Y16402323D01*
X-30661905Y16402323D02*
X-30757143Y16497561D01*
X-30757143Y16497561D02*
X-30900000Y16545180D01*
X-30900000Y16545180D02*
X-30995238Y16545180D01*
X-30995238Y16545180D02*
X-31138095Y16497561D01*
X-31138095Y16497561D02*
X-31185714Y16449942D01*
X-31614286Y15545180D02*
X-31614286Y16545180D01*
X-31614286Y16545180D02*
X-31947619Y15830895D01*
X-31947619Y15830895D02*
X-32280952Y16545180D01*
X-32280952Y16545180D02*
X-32280952Y15545180D01*
X-33280952Y15545180D02*
X-32709524Y15545180D01*
X-32995238Y15545180D02*
X-32995238Y16545180D01*
X-32995238Y16545180D02*
X-32900000Y16402323D01*
X-32900000Y16402323D02*
X-32804762Y16307085D01*
X-32804762Y16307085D02*
X-32709524Y16259466D01*
X-33900000Y16545180D02*
X-33995238Y16545180D01*
X-33995238Y16545180D02*
X-34090476Y16497561D01*
X-34090476Y16497561D02*
X-34138095Y16449942D01*
X-34138095Y16449942D02*
X-34185714Y16354704D01*
X-34185714Y16354704D02*
X-34233333Y16164228D01*
X-34233333Y16164228D02*
X-34233333Y15926133D01*
X-34233333Y15926133D02*
X-34185714Y15735657D01*
X-34185714Y15735657D02*
X-34138095Y15640419D01*
X-34138095Y15640419D02*
X-34090476Y15592800D01*
X-34090476Y15592800D02*
X-33995238Y15545180D01*
X-33995238Y15545180D02*
X-33900000Y15545180D01*
X-33900000Y15545180D02*
X-33804762Y15592800D01*
X-33804762Y15592800D02*
X-33757143Y15640419D01*
X-33757143Y15640419D02*
X-33709524Y15735657D01*
X-33709524Y15735657D02*
X-33661905Y15926133D01*
X-33661905Y15926133D02*
X-33661905Y16164228D01*
X-33661905Y16164228D02*
X-33709524Y16354704D01*
X-33709524Y16354704D02*
X-33757143Y16449942D01*
X-33757143Y16449942D02*
X-33804762Y16497561D01*
X-33804762Y16497561D02*
X-33900000Y16545180D01*
X-32819046Y23040419D02*
X-32771427Y22992800D01*
X-32771427Y22992800D02*
X-32628570Y22945180D01*
X-32628570Y22945180D02*
X-32533332Y22945180D01*
X-32533332Y22945180D02*
X-32390475Y22992800D01*
X-32390475Y22992800D02*
X-32295237Y23088038D01*
X-32295237Y23088038D02*
X-32247618Y23183276D01*
X-32247618Y23183276D02*
X-32199999Y23373752D01*
X-32199999Y23373752D02*
X-32199999Y23516609D01*
X-32199999Y23516609D02*
X-32247618Y23707085D01*
X-32247618Y23707085D02*
X-32295237Y23802323D01*
X-32295237Y23802323D02*
X-32390475Y23897561D01*
X-32390475Y23897561D02*
X-32533332Y23945180D01*
X-32533332Y23945180D02*
X-32628570Y23945180D01*
X-32628570Y23945180D02*
X-32771427Y23897561D01*
X-32771427Y23897561D02*
X-32819046Y23849942D01*
X-33247618Y22945180D02*
X-33247618Y23945180D01*
X-33247618Y23945180D02*
X-33580951Y23230895D01*
X-33580951Y23230895D02*
X-33914284Y23945180D01*
X-33914284Y23945180D02*
X-33914284Y22945180D01*
X-34438094Y22945180D02*
X-34628570Y22945180D01*
X-34628570Y22945180D02*
X-34723808Y22992800D01*
X-34723808Y22992800D02*
X-34771427Y23040419D01*
X-34771427Y23040419D02*
X-34866665Y23183276D01*
X-34866665Y23183276D02*
X-34914284Y23373752D01*
X-34914284Y23373752D02*
X-34914284Y23754704D01*
X-34914284Y23754704D02*
X-34866665Y23849942D01*
X-34866665Y23849942D02*
X-34819046Y23897561D01*
X-34819046Y23897561D02*
X-34723808Y23945180D01*
X-34723808Y23945180D02*
X-34533332Y23945180D01*
X-34533332Y23945180D02*
X-34438094Y23897561D01*
X-34438094Y23897561D02*
X-34390475Y23849942D01*
X-34390475Y23849942D02*
X-34342856Y23754704D01*
X-34342856Y23754704D02*
X-34342856Y23516609D01*
X-34342856Y23516609D02*
X-34390475Y23421371D01*
X-34390475Y23421371D02*
X-34438094Y23373752D01*
X-34438094Y23373752D02*
X-34533332Y23326133D01*
X-34533332Y23326133D02*
X-34723808Y23326133D01*
X-34723808Y23326133D02*
X-34819046Y23373752D01*
X-34819046Y23373752D02*
X-34866665Y23421371D01*
X-34866665Y23421371D02*
X-34914284Y23516609D01*
D11*
X-26135000Y40627064D02*
X-26135000Y40172936D01*
X-24665000Y40627064D02*
X-24665000Y40172936D01*
X-36727064Y14135000D02*
X-36272936Y14135000D01*
X-36727064Y12665000D02*
X-36272936Y12665000D01*
X-272936Y37735000D02*
X-727064Y37735000D01*
X-272936Y36265000D02*
X-727064Y36265000D01*
X-28735000Y40627064D02*
X-28735000Y40172936D01*
X-27265000Y40627064D02*
X-27265000Y40172936D01*
X-23635000Y40627064D02*
X-23635000Y40172936D01*
X-22165000Y40627064D02*
X-22165000Y40172936D01*
X-9472936Y37735000D02*
X-9927064Y37735000D01*
X-9472936Y36265000D02*
X-9927064Y36265000D01*
X-37027064Y29335000D02*
X-36572936Y29335000D01*
X-37027064Y27865000D02*
X-36572936Y27865000D01*
X-31235000Y40172936D02*
X-31235000Y40627064D01*
X-29765000Y40172936D02*
X-29765000Y40627064D01*
X-37227064Y37035000D02*
X-36772936Y37035000D01*
X-37227064Y35565000D02*
X-36772936Y35565000D01*
D12*
X-36800000Y30550000D02*
X-36800000Y31650000D01*
D11*
X-4872936Y37735000D02*
X-5327064Y37735000D01*
X-4872936Y36265000D02*
X-5327064Y36265000D01*
X-37027064Y21835000D02*
X-36572936Y21835000D01*
X-37027064Y20365000D02*
X-36572936Y20365000D01*
D12*
X-36950000Y38350000D02*
X-36950000Y39450000D01*
X-36500000Y15350000D02*
X-36500000Y16450000D01*
X-36900000Y23050000D02*
X-36900000Y24150000D01*
%LPC*%
D13*
X36890000Y39095000D03*
X31110000Y39095000D03*
D14*
X38320000Y38595000D03*
D15*
X38320000Y42775000D03*
D14*
X29680000Y38595000D03*
D15*
X29680000Y42775000D03*
D16*
X-43892500Y36220000D03*
D17*
X-43892500Y38760000D03*
D18*
X-46432500Y36220000D03*
X-46432500Y38760000D03*
D16*
X-43892500Y28630000D03*
D17*
X-43892500Y31170000D03*
D18*
X-46432500Y28630000D03*
X-46432500Y31170000D03*
D16*
X-43892500Y21040000D03*
D17*
X-43892500Y23580000D03*
D18*
X-46432500Y21040000D03*
X-46432500Y23580000D03*
D16*
X-43892500Y13450000D03*
D17*
X-43892500Y15990000D03*
D18*
X-46432500Y13450000D03*
X-46432500Y15990000D03*
D19*
X44000000Y-44000000D03*
D20*
X-520000Y45940000D03*
D21*
X-520000Y43400000D03*
X-520000Y40860000D03*
D20*
X40200000Y-27900000D03*
D21*
X37660000Y-27900000D03*
X35120000Y-27900000D03*
X32580000Y-27900000D03*
X30040000Y-27900000D03*
D20*
X-7160000Y4380000D03*
D21*
X-4620000Y4380000D03*
X-2080000Y4380000D03*
X460000Y4380000D03*
D19*
X-44000000Y44000000D03*
X-44000000Y-44000000D03*
D20*
X-22880000Y45400000D03*
D21*
X-25420000Y45400000D03*
X-27960000Y45400000D03*
X-30500000Y45400000D03*
X-33040000Y45400000D03*
D20*
X-9700000Y45940000D03*
D21*
X-9700000Y43400000D03*
X-9700000Y40860000D03*
D20*
X-7200000Y13200000D03*
D21*
X-4660000Y13200000D03*
X-2120000Y13200000D03*
X420000Y13200000D03*
D20*
X-7300000Y21600000D03*
D21*
X-4760000Y21600000D03*
X-2220000Y21600000D03*
X320000Y21600000D03*
D22*
X-32000000Y-44000000D03*
D23*
X-37000000Y-44000000D03*
D20*
X-5110000Y45940000D03*
D21*
X-5110000Y43400000D03*
X-5110000Y40860000D03*
D19*
X44000000Y44000000D03*
D24*
X-25400000Y41400000D03*
X-25400000Y39400000D03*
D25*
X-37500000Y13400000D03*
X-35500000Y13400000D03*
D26*
X500000Y37000000D03*
X-1500000Y37000000D03*
D24*
X-28000000Y41400000D03*
X-28000000Y39400000D03*
X-22900000Y41400000D03*
X-22900000Y39400000D03*
D26*
X-8700000Y37000000D03*
X-10700000Y37000000D03*
D25*
X-37800000Y28600000D03*
X-35800000Y28600000D03*
D27*
X-30500000Y39400000D03*
X-30500000Y41400000D03*
D25*
X-38000000Y36300000D03*
X-36000000Y36300000D03*
D28*
X-37700000Y31100000D03*
X-35900000Y31100000D03*
D26*
X-4100000Y37000000D03*
X-6100000Y37000000D03*
D25*
X-37800000Y21100000D03*
X-35800000Y21100000D03*
D28*
X-37850000Y38900000D03*
X-36050000Y38900000D03*
X-37400000Y15900000D03*
X-35600000Y15900000D03*
X-37800000Y23600000D03*
X-36000000Y23600000D03*
%LPD*%
M02*
